<?xml version="1.0" encoding="UTF-8"?>
<svg width="367px" height="378px" viewBox="0 0 367 378" version="1.1" xmlns="http://www.w3.org/2000/svg" xmlns:xlink="http://www.w3.org/1999/xlink">
    <!-- Generator: Sketch 52.2 (67145) - http://www.bohemiancoding.com/sketch -->
    <title>@1xhowitwork</title>
    <desc>Created with Sketch.</desc>
    <defs>
        <polygon id="path-1" points="0.178254945 0.0470589145 279.695899 0.0470589145 279.695899 310.177409 0.178254945 310.177409"></polygon>
        <polygon id="path-3" points="0 377.604973 366.407525 377.604973 366.407525 0 0 0"></polygon>
    </defs>
    <g id="Mockups" stroke="none" stroke-width="1" fill="none" fill-rule="evenodd">
        <g id="Frontpage---Desktop" transform="translate(-88.000000, -1086.000000)">
            <g id="howitwork" transform="translate(88.500000, 1086.029673)">
                <path d="M274.805191,175.861574 C313.141652,98.4634672 161.562827,0.00133734349 83.2039898,4.31401124e-05 C5.7614483,-0.000819662137 8.62802249e-05,92.9639657 8.62802249e-05,170.406507 C8.62802249e-05,247.848617 5.7614483,320.450838 83.2035584,320.450838 C160.6461,320.450838 240.432444,245.258053 274.805191,175.861574" id="Fill-1" fill="#EBFFF6"></path>
                <g id="Group-5" transform="translate(86.711626, 67.427564)">
                    <mask id="mask-2" fill="white">
                        <use xlink:href="#path-1"></use>
                    </mask>
                    <g id="Clip-4"></g>
                    <path d="M256.567277,244.206513 C294.903738,166.808406 288.425819,51.3732304 215.619545,22.401625 C77.3278751,-32.6283338 0.178254945,21.9331234 0.178254945,99.3756649 C0.178254945,176.817775 24.7340384,245.681905 92.0291626,287.608055 C157.758732,328.558807 222.19453,313.602992 256.567277,244.206513" id="Fill-3" fill="#E2E0EF" mask="url(#mask-2)"></path>
                </g>
                <path d="M319.128766,354.575271 L127.897276,354.575271 C122.098382,354.575271 117.397404,349.874293 117.397404,344.074968 L117.397404,37.3837116 C117.397404,31.5848176 122.098382,26.8838396 127.897276,26.8838396 L319.128766,26.8838396 C324.92766,26.8838396 329.62907,31.5848176 329.62907,37.3837116 L329.62907,344.074968 C329.62907,349.874293 324.92766,354.575271 319.128766,354.575271" id="Fill-6" fill="#4E5255"></path>
                <path d="M308.491924,321.014981 L138.534118,321.014981 C133.446173,321.014981 129.321547,316.890355 129.321547,311.80241 L129.321547,46.0278253 C129.321547,40.9398804 133.446173,36.8152543 138.534118,36.8152543 L308.491924,36.8152543 C313.579869,36.8152543 317.704495,40.9398804 317.704495,46.0278253 L317.704495,311.80241 C317.704495,316.890355 313.579869,321.014981 308.491924,321.014981" id="Fill-8" fill="#F2F2F2"></path>
                <path d="M254.801811,344.407405 L192.22449,344.407405 C189.231429,344.407405 186.782364,341.958773 186.782364,338.965712 L186.782364,338.422146 C186.782364,335.429085 189.231429,332.980021 192.22449,332.980021 L254.801811,332.980021 C257.794872,332.980021 260.243505,335.429085 260.243505,338.422146 L260.243505,338.965712 C260.243505,341.958773 257.794872,344.407405 254.801811,344.407405" id="Fill-10" fill="#F2F2F2"></path>
                <mask id="mask-4" fill="white">
                    <use xlink:href="#path-3"></use>
                </mask>
                <g id="Clip-13"></g>
                <polygon id="Fill-12" fill="#0079FF" mask="url(#mask-4)" points="141.601811 60.7322189 180.78123 60.7322189 180.78123 45.6525926 141.601811 45.6525926"></polygon>
                <polygon id="Fill-14" fill="#666666" mask="url(#mask-4)" points="231.393641 53.7931318 250.983135 53.7931318 250.983135 49.6857617 231.393641 49.6857617"></polygon>
                <polygon id="Fill-15" fill="#666666" mask="url(#mask-4)" points="255.700506 53.7931318 275.29 53.7931318 275.29 49.6857617 255.700506 49.6857617"></polygon>
                <polygon id="Fill-16" fill="#666666" mask="url(#mask-4)" points="279.281754 53.7931318 298.871248 53.7931318 298.871248 49.6857617 279.281754 49.6857617"></polygon>
                <polygon id="Fill-17" fill="#666666" mask="url(#mask-4)" points="141.602242 122.495487 223.513237 122.495487 223.513237 70.6164815 141.602242 70.6164815"></polygon>
                <polygon id="Fill-18" fill="#333333" mask="url(#mask-4)" points="141.602242 301.121868 223.513237 301.121868 223.513237 249.242863 141.602242 249.242863"></polygon>
                <polygon id="Fill-19" fill="#666666" mask="url(#mask-4)" points="231.39321 77.5098401 291.536135 77.5098401 291.536135 70.6169129 231.39321 70.6169129"></polygon>
                <polygon id="Fill-20" fill="#B3B3B3" mask="url(#mask-4)" points="231.39321 94.6118748 291.536135 94.6118748 291.536135 79.6866901 231.39321 79.6866901"></polygon>
                <path d="M256.385614,113.425752 L236.472138,113.425752 C233.678816,113.425752 231.393253,111.140189 231.393253,108.346867 C231.393253,105.553113 233.678816,103.26755 236.472138,103.26755 L256.385614,103.26755 C259.178936,103.26755 261.4645,105.553113 261.4645,108.346867 C261.4645,111.140189 259.178936,113.425752 256.385614,113.425752" id="Fill-21" fill="#0079FF" mask="url(#mask-4)"></path>
                <path d="M192.514175,294.45754 L172.6007,294.45754 C169.807377,294.45754 167.521814,292.171977 167.521814,289.378654 C167.521814,286.584901 169.807377,284.299338 172.6007,284.299338 L192.514175,284.299338 C195.307498,284.299338 197.593061,286.584901 197.593061,289.378654 C197.593061,292.171977 195.307498,294.45754 192.514175,294.45754" id="Fill-22" fill="#0079FF" mask="url(#mask-4)"></path>
                <polygon id="Fill-23" fill="#E6E6E6" mask="url(#mask-4)" points="129.321115 236.912987 317.704495 236.912987 317.704495 140.816229 129.321115 140.816229"></polygon>
                <polygon id="Fill-24" fill="#666666" mask="url(#mask-4)" points="193.441558 157.323362 253.584483 157.323362 253.584483 150.430435 193.441558 150.430435"></polygon>
                <polygon id="Fill-25" fill="#B3B3B3" mask="url(#mask-4)" points="185.530956 167.118756 261.495086 167.118756 261.495086 160.225829 185.530956 160.225829"></polygon>
                <polygon id="Fill-26" fill="#666666" mask="url(#mask-4)" points="235.485049 262.32165 289.316144 262.32165 289.316144 255.428723 235.485049 255.428723"></polygon>
                <polygon id="Fill-27" fill="#F2F2F2" mask="url(#mask-4)" points="155.641761 260.598203 209.472856 260.598203 209.472856 257.151739 155.641761 257.151739"></polygon>
                <polygon id="Fill-28" fill="#B3B3B3" mask="url(#mask-4)" points="149.583595 276.858143 215.531884 276.858143 215.531884 264.922999 149.583595 264.922999"></polygon>
                <polygon id="Fill-29" fill="#B3B3B3" mask="url(#mask-4)" points="235.485481 283.784288 303.477318 283.784288 303.477318 266.580442 235.485481 266.580442"></polygon>
                <polygon id="Fill-30" fill="#B3B3B3" mask="url(#mask-4)" points="160.601579 225.917435 193.707302 225.917435 193.707302 215.006869 160.601579 215.006869"></polygon>
                <polygon id="Fill-31" fill="#B3B3B3" mask="url(#mask-4)" points="206.960376 225.917435 240.066098 225.917435 240.066098 215.006869 206.960376 215.006869"></polygon>
                <polygon id="Fill-32" fill="#B3B3B3" mask="url(#mask-4)" points="252.994327 225.917435 286.100049 225.917435 286.100049 215.006869 252.994327 215.006869"></polygon>
                <polygon id="Fill-33" fill="#666666" mask="url(#mask-4)" points="161.191736 210.840397 193.117145 210.840397 193.117145 178.914988 161.191736 178.914988"></polygon>
                <polygon id="Fill-34" fill="#666666" mask="url(#mask-4)" points="207.550532 210.840397 239.475941 210.840397 239.475941 178.914988 207.550532 178.914988"></polygon>
                <polygon id="Fill-35" fill="#666666" mask="url(#mask-4)" points="253.584483 210.840397 285.509892 210.840397 285.509892 178.914988 253.584483 178.914988"></polygon>
                <polygon id="Fill-36" fill="#C6C5D3" mask="url(#mask-4)" points="82.4426099 256.052788 75.2955875 307.174684 46.0297666 338.107439 39.5505531 344.956363 35.3530202 341.711364 58.3622306 304.292493 61.0904113 261.895254 61.7193941 252.118841"></polygon>
                <path d="M50.3331654,367.909923 L29.2674171,352.049892 C28.5758811,351.529191 28.4369699,350.546028 28.9581025,349.85406 L35.535244,341.118187 L40.3539946,344.836002 L52.6260624,365.859042 C53.500081,367.337022 51.705021,368.942697 50.3331654,367.909923" id="Fill-37" fill="#4E5255" mask="url(#mask-4)"></path>
                <polygon id="Fill-38" fill="#AAAAB2" mask="url(#mask-4)" points="75.2954581 307.174814 82.0404147 258.9295 61.2956288 255.513666"></polygon>
                <path d="M109.632701,307.021882 L96.4175905,310.178444 L66.2022558,261.102683 L65.4494608,259.88225 C65.446441,259.87923 65.446441,259.87621 65.446441,259.87621 L84.8836501,258.929285 L88.2132039,265.397282 L109.632701,307.021882 Z" id="Fill-39" fill="#E2E0EF" mask="url(#mask-4)"></path>
                <path d="M107.335533,370.513342 L83.0140007,370.810146 C82.2150458,370.820069 81.5597475,370.180301 81.5498253,369.381346 L81.426876,359.294756 L87.4733941,359.292599 L107.853215,367.723471 C109.324724,368.309745 108.919207,370.493929 107.335533,370.513342" id="Fill-40" fill="#4E5255" mask="url(#mask-4)"></path>
                <polygon id="Fill-41" fill="#E2E0EF" mask="url(#mask-4)" points="81.4267897 359.292729 87.4733079 359.292729 109.633089 307.022874 96.4166846 310.177279"></polygon>
                <path d="M112.593019,185.175611 C113.599478,187.354187 112.649532,189.935691 110.470957,190.94215 L85.6118983,202.630963 C83.4333226,203.637422 80.8518183,202.687477 79.8453595,200.508901 C78.8389006,198.330325 79.7888459,195.748821 81.9674216,194.742362 L106.82648,183.053549 C109.004624,182.04709 111.58656,182.997035 112.593019,185.175611" id="Fill-42" fill="#ECA89E" mask="url(#mask-4)"></path>
                <path d="M131.811464,157.305028 C133.052605,158.311918 132.743291,160.748903 131.121223,162.748016 L112.311271,189.554419 C110.79921,191.418071 108.062832,191.702796 106.199611,190.190735 C104.335958,188.678674 104.051233,185.942728 105.563294,184.079076 L126.627748,159.101813 C128.249817,157.1027 130.570323,156.298137 131.811464,157.305028" id="Fill-43" fill="#ECA89E" mask="url(#mask-4)"></path>
                <path d="M82.8414834,192.359173 L87.9932756,203.510029 L72.003393,210.897342 C68.9240517,212.319672 65.2748296,210.97672 63.8520687,207.89781 C62.4293078,204.818469 63.7726909,201.168815 66.8516007,199.746486 L82.8414834,192.359173 Z" id="Fill-44" fill="#FF5E62" mask="url(#mask-4)"></path>
                <path d="M128.634713,156.609738 C128.634713,156.609738 126.424213,148.778082 128.585102,146.032214 C130.74599,143.286346 130.873685,149.520092 131.544945,150.511452 C132.216205,151.502812 130.647199,156.990234 128.634713,156.609738" id="Fill-45" fill="#C98881" mask="url(#mask-4)"></path>
                <path d="M131.190549,161.490999 C133.421324,160.378415 139.90744,154.13863 138.550683,148.498923 C137.194358,142.858784 135.895409,143.681466 134.620188,144.828993 C133.344966,145.97652 128.118973,153.480311 128.540452,155.970359 C128.961931,158.460406 128.874788,162.64586 131.190549,161.490999" id="Fill-46" fill="#ECA89E" mask="url(#mask-4)"></path>
                <path d="M77.4985373,192.512407 C77.1262382,195.470093 77.0610966,199.667194 77.9743728,205.268075 L67.6298052,196.79018 C67.6298052,196.79018 68.5025297,194.353627 69.3118382,190.13021 C69.6919026,188.146627 69.9373698,186.147946 69.829951,184.563841 C69.7760258,183.708373 69.6189958,182.975422 69.3273686,182.430994 L78.9829886,186.884779 C78.9829886,186.884779 78.9294949,186.98055 78.837175,187.179857 C78.5382141,187.824371 77.8669539,189.546955 77.4985373,192.512407" id="Fill-47" fill="#ECA89E" mask="url(#mask-4)"></path>
                <path d="M78.8373907,187.18003 C78.5379984,187.824543 77.8667382,189.547128 77.498753,192.512579 L69.3120539,190.129951 C69.6916869,188.1468 69.9371541,186.148118 69.8297353,184.563582 L78.8373907,187.18003 Z" id="Fill-48" fill="#C98881" mask="url(#mask-4)"></path>
                <path d="M89.1367043,157.866798 C90.4995005,159.714921 90.785088,168.605235 95.6418019,172.466275 C95.6418019,172.466275 91.6772255,179.545136 89.9736225,185.949717 C88.9926163,189.638628 85.082828,191.725747 81.4659609,190.505744 C76.8693819,188.95572 71.1925745,186.663686 67.0407701,183.737492 C58.8333637,177.952403 61.7069266,163.374496 63.7651414,160.214483 C65.8229247,157.054901 81.0047931,146.837166 89.1367043,157.866798" id="Fill-49" fill="#ECA89E" mask="url(#mask-4)"></path>
                <path d="M99.5571122,145.033305 C103.399171,152.672125 97.8069178,163.244472 87.0658926,168.646908 C76.3248674,174.049345 64.502751,172.236597 60.6602612,164.597777 C56.8182028,156.958958 62.410887,146.38661 73.1519122,140.984174 C83.8929374,135.581738 95.7150538,137.394485 99.5571122,145.033305" id="Fill-50" fill="#4E5255" mask="url(#mask-4)"></path>
                <path d="M77.0446171,157.070087 C80.2162781,163.376308 76.6887112,171.556105 69.1650755,175.340356 C61.6414399,179.124606 52.9707087,177.080196 49.7990477,170.773975 C46.6269552,164.468184 50.1549536,156.288388 57.6785892,152.503706 C65.2022248,148.719455 73.872956,150.763865 77.0446171,157.070087" id="Fill-51" fill="#4E5255" mask="url(#mask-4)"></path>
                <path d="M71.4947279,169.002081 C73.1047169,172.033536 72.7414771,175.377327 70.6832624,176.470497 C68.6250476,177.563668 65.6509683,175.992505 64.0409793,172.960618 C62.4309903,169.929162 62.79423,166.585372 64.8524448,165.492201 C66.9106595,164.399031 69.8847389,165.970625 71.4947279,169.002081" id="Fill-52" fill="#ECA89E" mask="url(#mask-4)"></path>
                <path d="M86.2837624,258.062211 C86.970553,270.694931 58.8276692,259.086358 58.8276692,259.086358 C58.8276692,253.523872 62.6451378,244.040812 63.1399549,234.385192 C63.634772,224.729141 57.1974044,222.749872 55.7129531,212.599004 C54.2241878,202.448567 62.890605,195.267032 66.335343,196.011199 L77.2303784,202.759176 C77.2303784,202.759176 77.9245028,203.29627 78.9525317,204.239744 C81.2773524,206.376474 85.3208751,210.600322 86.889881,215.380247 C87.8989282,218.453117 87.8872804,221.755924 85.7427854,224.88272 C85.4399418,225.331377 85.0870557,225.776583 84.6918923,226.213592 C82.4283306,228.718738 81.1932291,231.27781 80.6328391,233.867079 C78.8606433,242.0266 85.8657347,250.30907 86.2837624,258.062211" id="Fill-53" fill="#FF5E62" mask="url(#mask-4)"></path>
                <path d="M86.8899241,215.38029 L71.8555949,217.862141 C68.5105106,218.414766 65.3496346,216.151204 64.7970097,212.802237 C64.7396334,212.460999 64.7124551,212.123212 64.7124551,211.789739 C64.7124551,208.839386 66.8496163,206.238469 69.8534623,205.743652 L78.9525748,204.239787 C81.2773955,206.376517 85.3209182,210.600366 86.8899241,215.38029" id="Fill-54" fill="#DD4A55" mask="url(#mask-4)"></path>
                <polygon id="Fill-55" fill="#4D4D4D" mask="url(#mask-4)" points="146.535746 179.455103 129.673138 152.622815 146.416247 119.693536 163.278855 146.525823"></polygon>
                <path d="M117.823154,202.06833 C118.214003,204.435859 116.611779,206.672243 114.24425,207.063092 L87.1721036,211.721793 C84.8045742,212.112642 82.5681908,210.510418 82.1773414,208.142889 C81.786492,205.77536 83.3887157,203.538976 85.7562451,203.148127 L112.828391,198.489426 C115.195921,198.098577 117.432304,199.700801 117.823154,202.06833" id="Fill-56" fill="#ECA89E" mask="url(#mask-4)"></path>
                <path d="M143.760024,180.3107 C144.6884,181.611375 143.742768,183.878388 141.647453,185.374055 L116.387192,206.214612 C114.434239,207.608901 111.720726,207.156361 110.326437,205.202977 C108.932149,203.250024 109.384689,200.536511 111.337642,199.142222 L138.285113,180.664449 C140.379997,179.16835 142.831649,179.010026 143.760024,180.3107" id="Fill-57" fill="#ECA89E" mask="url(#mask-4)"></path>
                <path d="M87.2324998,201.083096 L89.2337696,213.202448 L71.8556381,216.072128 C68.5088281,216.625184 65.3479521,214.359897 64.7953273,211.013518 C64.2427024,207.666709 66.5075583,204.505833 69.8543683,203.953208 L87.2324998,201.083096 Z" id="Fill-58" fill="#FF5E62" mask="url(#mask-4)"></path>
                <path d="M140.882493,178.795792 C140.882493,178.795792 140.833744,170.658273 143.646911,168.585822 C146.460078,166.512939 144.925584,172.556438 145.309531,173.690591 C145.693047,174.824745 142.721556,179.697852 140.882493,178.795792" id="Fill-59" fill="#C98881" mask="url(#mask-4)"></path>
                <path d="M142.048527,184.180929 C144.495003,183.701643 152.406468,179.410496 152.59801,173.613327 C152.789983,167.815728 151.319337,168.263091 149.784843,169.030553 C148.250349,169.797584 141.217217,175.642207 140.961396,178.154687 C140.706006,180.667167 139.508868,184.678335 142.048527,184.180929" id="Fill-60" fill="#ECA89E" mask="url(#mask-4)"></path>
            </g>
        </g>
    </g>
</svg>