<?xml version="1.0" encoding="UTF-8"?>
<svg width="101px" height="87px" viewBox="0 0 101 87" version="1.1" xmlns="http://www.w3.org/2000/svg" xmlns:xlink="http://www.w3.org/1999/xlink">
    <!-- Generator: Sketch 52.2 (67145) - http://www.bohemiancoding.com/sketch -->
    <title>business@1x</title>
    <desc>Created with Sketch.</desc>
    <defs>
        <polygon id="path-1" points="0.00370526316 0.506578947 99.5824211 0.506578947 99.5824211 74.0907895 0.00370526316 74.0907895"></polygon>
        <polygon id="path-3" points="0.161294737 0.495578947 33.7136105 0.495578947 33.7136105 13.2438842 0.161294737 13.2438842"></polygon>
        <polygon id="path-5" points="0 87.5045368 99.5824211 87.5045368 99.5824211 1.15801053 0 1.15801053"></polygon>
    </defs>
    <g id="Mockups" stroke="none" stroke-width="1" fill="none" fill-rule="evenodd">
        <g id="Partners---Desktop" transform="translate(-461.000000, -288.000000)">
            <g id="business" transform="translate(461.631579, 287.390044)">
                <path d="M93.6625684,13.9058526 L5.91614737,13.9058526 C2.64856842,13.9058526 0.000463157895,16.5551158 0.000463157895,19.8226947 L0.000463157895,81.5766947 C0.000463157895,84.8442737 2.64856842,87.4935368 5.91614737,87.4935368 L93.6625684,87.4935368 C96.9301474,87.4935368 99.5794105,84.8442737 99.5794105,81.5766947 L99.5794105,19.8226947 C99.5794105,16.5551158 96.9301474,13.9058526 93.6625684,13.9058526 Z M6.94783158,80.5461684 L92.6320421,80.5461684 L92.6320421,20.8532211 L6.94783158,20.8532211 L6.94783158,80.5461684 Z" id="Fill-1" fill="#FF5E62"></path>
                <g id="Group-5" transform="translate(0.000000, 13.399274)">
                    <mask id="mask-2" fill="white">
                        <use xlink:href="#path-1"></use>
                    </mask>
                    <g id="Clip-4"></g>
                    <path d="M99.5826526,44.9002632 L99.5826526,68.1739474 C99.5826526,71.4392105 96.9310737,74.0907895 93.6658105,74.0907895 L5.92054737,74.0907895 C2.64370526,74.0907895 0.00370526316,71.4392105 0.00370526316,68.1739474 L0.00370526316,6.42342105 C0.00370526316,3.15815789 2.64370526,0.506578947 5.92054737,0.506578947 L55.1889684,0.506578947 C55.1889684,15.3276316 62.4605474,28.4581579 73.6226526,36.5286842 C76.8647579,38.8676316 80.4310737,40.7781579 84.2405474,42.1792105 C89.0226526,43.9392105 94.1868632,44.9002632 99.5826526,44.9002632" id="Fill-3" fill="#0079FF" mask="url(#mask-2)"></path>
                </g>
                <g id="Group-8" transform="translate(33.578947, 0.662432)">
                    <mask id="mask-4" fill="white">
                        <use xlink:href="#path-3"></use>
                    </mask>
                    <g id="Clip-7"></g>
                    <path d="M29.1156105,0.495463158 L4.76045263,0.495463158 C2.22003158,0.495463158 0.161294737,2.56346316 0.161294737,5.09346316 L0.161294737,13.2438842 L5.72382105,13.2438842 L5.72382105,6.05798947 L28.1510842,6.05798947 L28.1510842,13.2438842 L33.7136105,13.2438842 L33.7136105,5.09346316 C33.7136105,2.56346316 31.6560316,0.495463158 29.1156105,0.495463158" id="Fill-6" fill="#FF5E62" mask="url(#mask-4)"></path>
                </g>
                <mask id="mask-6" fill="white">
                    <use xlink:href="#path-5"></use>
                </mask>
                <g id="Clip-10"></g>
                <polygon id="Fill-9" fill="#FFC371" mask="url(#mask-6)" points="16.0206316 87.5045368 26.6350526 87.5045368 26.6350526 13.9052737 16.0206316 13.9052737"></polygon>
                <path d="M84.2405474,55.5784842 L84.2405474,87.5016421 L73.6226526,87.5016421 L73.6226526,49.9279579 C76.8647579,52.2669053 80.4310737,54.1774316 84.2405474,55.5784842" id="Fill-11" fill="#FFC371" mask="url(#mask-6)"></path>
            </g>
        </g>
    </g>
</svg>