<?xml version="1.0" encoding="UTF-8"?>
<svg width="82px" height="66px" viewBox="0 0 82 66" version="1.1" xmlns="http://www.w3.org/2000/svg" xmlns:xlink="http://www.w3.org/1999/xlink">
    <!-- Generator: Sketch 52.2 (67145) - http://www.bohemiancoding.com/sketch -->
    <title>global_icon@1x</title>
    <desc>Created with Sketch.</desc>
    <defs>
        <polygon id="path-1" points="0.260978471 0.570454796 65.5152765 0.570454796 65.5152765 65.8254304 0.260978471 65.8254304"></polygon>
        <path d="M15.1059683,32.0192318 C9.89220696,32.0192318 4.91173873,30.9766731 0.377528204,29.082256 C0.824753922,34.8700537 2.80532496,40.2348263 5.890408,44.7467724 C11.7643596,53.3873281 21.6614067,59.0492832 32.8778665,59.0492832 C50.9053222,59.0492832 65.5050155,44.4486219 65.5050155,26.4221342 C65.5050155,20.4204037 63.8864843,14.7797452 61.0569588,9.96964865 C58.949577,6.35118601 56.1616764,3.20124556 52.8839572,0.647606073 C49.5849415,18.5056581 33.9213931,32.0192318 15.1059683,32.0192318" id="path-3"></path>
        <radialGradient cx="18.7507112%" cy="10.046459%" fx="18.7507112%" fy="10.046459%" r="89.3021382%" gradientTransform="translate(0.187507,0.100465),scale(0.896729,1.000000),scale(1.000000,1.269627),translate(-0.187507,-0.100465)" id="radialGradient-5">
            <stop stop-color="#E4114F" offset="0%"></stop>
            <stop stop-color="#0036FF" offset="100%"></stop>
        </radialGradient>
    </defs>
    <g id="Mockups" stroke="none" stroke-width="1" fill="none" fill-rule="evenodd">
        <g id="Frontpage---Desktop" transform="translate(-471.000000, -788.000000)">
            <g id="global_icon" transform="translate(473.279159, 787.186681)">
                <g id="Group-8" transform="translate(0.000000, 0.397566)">
                    <path d="M34.9070321,32.866347 C56.0457075,22.7669835 74.7643303,17.8910616 76.7168287,21.9761104" id="Stroke-1" stroke="#FFC371" stroke-width="4" stroke-linecap="round"></path>
                    <path d="M0.165337993,58.5494939 C-1.78619241,54.4644451 13.7679696,42.9653233 34.9066449,32.8659598" id="Stroke-3" stroke="#FFC371" stroke-width="4" stroke-linecap="round"></path>
                    <g id="Group-7" transform="translate(1.936042, 0.000000)">
                        <mask id="mask-2" fill="white">
                            <use xlink:href="#path-1"></use>
                        </mask>
                        <g id="Clip-6"></g>
                        <path d="M32.8881275,0.570454796 C14.8684159,0.570454796 0.260978471,15.1778922 0.260978471,33.1976038 C0.260978471,51.2173154 14.8684159,65.8257208 32.8881275,65.8257208 C50.9078391,65.8257208 65.5152765,51.2173154 65.5152765,33.1976038 C65.5152765,15.1778922 50.9078391,0.570454796 32.8881275,0.570454796 M32.8881275,6.37858101 C47.6765848,6.37858101 59.7071503,18.4101145 59.7071503,33.1976038 C59.7071503,47.9860612 47.6765848,60.0175946 32.8881275,60.0175946 C18.0996701,60.0175946 6.06910469,47.9860612 6.06910469,33.1976038 C6.06910469,18.4101145 18.0996701,6.37858101 32.8881275,6.37858101" id="Fill-5" fill="#FF5E62" mask="url(#mask-2)"></path>
                    </g>
                </g>
                <g id="Group-11" transform="translate(1.936042, 7.173713)">
                    <mask id="mask-4" fill="white">
                        <use xlink:href="#path-3"></use>
                    </mask>
                    <g id="Clip-10"></g>
                    <path d="M15.1059683,32.0192318 C9.89220696,32.0192318 4.91173873,30.9766731 0.377528204,29.082256 C0.824753922,34.8700537 2.80532496,40.2348263 5.890408,44.7467724 C11.7643596,53.3873281 21.6614067,59.0492832 32.8778665,59.0492832 C50.9053222,59.0492832 65.5050155,44.4486219 65.5050155,26.4221342 C65.5050155,20.4204037 63.8864843,14.7797452 61.0569588,9.96964865 C58.949577,6.35118601 56.1616764,3.20124556 52.8839572,0.647606073 C49.5849415,18.5056581 33.9213931,32.0192318 15.1059683,32.0192318" id="Fill-9" fill="url(#radialGradient-5)" mask="url(#mask-4)"></path>
                </g>
                <g id="Group-18" transform="translate(0.000000, 7.173713)">
                    <path d="M67.451609,26.421747 C67.451609,44.4482347 52.8509477,59.048896 34.82446,59.048896 C19.3506437,59.048896 6.41110652,48.3019264 3.04820144,33.8706688 C9.17771064,39.766885 17.478491,43.405676 26.6727548,43.405676 C45.4659152,43.405676 60.7045023,28.1661209 60.7045023,9.3739285 C60.7045023,8.37396277 60.6619094,7.37302902 60.5767236,6.39339173 C64.876673,11.9072396 67.451609,18.8663428 67.451609,26.421747" id="Fill-12" fill="#0079FF"></path>
                    <path d="M63.0993864,12.8433159 C63.0993864,33.19015 46.605276,49.6852285 26.2574738,49.6852285 C19.5539281,49.6852285 13.2540472,47.8963256 7.82635327,44.7463852 C4.74030221,40.2354071 2.76069919,34.8706346 2.31444149,29.0818688 C6.847684,30.9762859 11.8281522,32.0188446 17.0419135,32.0188446 C35.8573384,32.0188446 51.5218548,18.5052709 54.8199025,0.648186885 C58.0976217,3.20182638 60.8855223,6.35176683 62.9938721,9.97022946 C63.0567935,10.9266342 63.0993864,11.8849751 63.0993864,12.8433159" id="Fill-14" fill="#0079FF"></path>
                    <path d="M76.7163447,15.2003503 C78.6678751,19.2853991 65.9238782,32.7118508 44.7842348,42.8112143 C23.6455594,52.9105778 2.1167716,55.8582018 0.165241191,51.7731531" id="Stroke-16" stroke="#FFC371" stroke-width="4" stroke-linecap="round"></path>
                </g>
            </g>
        </g>
    </g>
</svg>