<?xml version="1.0" encoding="UTF-8"?>
<svg width="301px" height="282px" viewBox="0 0 301 282" version="1.1" xmlns="http://www.w3.org/2000/svg" xmlns:xlink="http://www.w3.org/1999/xlink">
    <!-- Generator: Sketch 52.2 (67145) - http://www.bohemiancoding.com/sketch -->
    <title>Japan@2x</title>
    <desc>Created with Sketch.</desc>
    <defs>
        <polygon id="path-1" points="0.298628914 0.237768259 41.7021905 0.237768259 41.7021905 71.2609547 0.298628914 71.2609547"></polygon>
        <polygon id="path-3" points="0.00561976635 0.482750939 15.5487927 0.482750939 15.5487927 20.8326587 0.00561976635 20.8326587"></polygon>
        <polygon id="path-5" points="0 0.161100728 11.0239469 0.161100728 11.0239469 14.0146626 0 14.0146626"></polygon>
    </defs>
    <g id="Mockups" stroke="none" stroke-width="1" fill="none" fill-rule="evenodd">
        <g id="Frontpage---Desktop" transform="translate(-576.000000, -133.000000)">
            <g id="Japan" transform="translate(576.500000, 133.883775)">
                <path d="M147.52634,176.153662 L147.52634,193.453273 L130.707596,193.453273 L130.707596,174.861695 C136.118794,175.556924 141.73856,176.008823 147.52634,176.153662" id="Fill-1" fill="#FF5E62"></path>
                <path d="M172.004189,174.884869 L172.004189,193.453273 L155.185445,193.453273 L155.185445,176.153662 C160.93267,176.014616 166.552436,175.568511 172.004189,174.884869" id="Fill-3" fill="#FF5E62"></path>
                <g id="Group-7" transform="translate(130.355405, 209.536175)">
                    <mask id="mask-2" fill="white">
                        <use xlink:href="#path-1"></use>
                    </mask>
                    <g id="Clip-6"></g>
                    <path d="M41.686326,64.5840929 C41.9059024,67.4779829 39.821954,70.0399012 36.9379131,70.3655 C31.7068955,70.9570239 26.3912918,71.2611865 21.0003716,71.2611865 C15.6100308,71.2611865 10.2938477,70.9570239 5.06340948,70.3655 C2.17878921,70.0399012 0.0954201564,67.4785623 0.314417237,64.5840929 C0.339329603,64.2561767 0.352075465,63.9242049 0.352075465,63.5904951 L0.352075465,0.237768259 L41.6486678,0.237768259 L41.6486678,63.5904951 C41.6486678,63.9242049 41.6614136,64.2555973 41.686326,64.5840929" id="Fill-5" fill="#FF5E62" mask="url(#mask-2)"></path>
                </g>
                <path d="M291.757296,140.401462 C291.757296,201.45414 252.78972,253.39932 198.370684,272.732475 L198.370684,209.773711 L245.200139,209.773711 C249.690158,209.773711 253.363284,206.100586 253.363284,201.610566 C253.363284,197.12634 249.690158,193.453215 245.200139,193.453215 L198.370684,193.453215 L198.370684,169.641627 C227.234267,161.814509 247.193128,149.700147 248.415572,148.952776 C251.503547,147.04669 252.46528,143.002776 250.564988,139.914801 C248.664696,136.821033 244.620782,135.8593 241.527013,137.759592 C241.260509,137.927606 223.821853,148.512465 198.370684,155.934032 L198.370684,146.426778 C198.370684,139.173224 192.438065,133.240605 185.190304,133.240605 C177.93675,133.240605 172.004131,139.173224 172.004131,146.426778 L172.004131,161.617528 C165.341521,162.527119 158.429788,163.065921 151.355835,163.065921 C144.206565,163.065921 137.300625,162.515532 130.707538,161.576973 L130.707538,146.426778 C130.707538,139.173224 124.774919,133.240605 117.521365,133.240605 C110.273604,133.240605 104.340985,139.173224 104.340985,146.426778 L104.340985,155.569037 C80.8596315,148.216992 65.5993588,138.072445 65.3618223,137.916018 C62.3607512,135.882474 58.2820754,136.6704 56.2427375,139.671471 C54.2091932,142.672542 54.9913256,146.757012 57.9981903,148.790556 C59.0989692,149.537927 77.0011115,161.495863 104.340985,169.363536 L104.340985,193.453215 L57.5115301,193.453215 C53.0215106,193.453215 49.348385,197.12634 49.348385,201.610566 C49.348385,206.100586 53.0215106,209.773711 57.5115301,209.773711 L104.340985,209.773711 L104.340985,272.732475 C49.9219487,253.39932 10.954373,201.45414 10.954373,140.401462 C10.954373,62.8602731 73.8146461,0 151.355835,0 C228.897023,0 291.757296,62.8602731 291.757296,140.401462" id="Fill-8" fill="#FF5E62"></path>
                <path d="M160.911175,32.8565143 C161.60119,31.4591044 161.027626,29.7668016 159.630216,29.076787 C159.019574,28.7749418 158.352733,28.7146886 157.737456,28.8589486 C157.478483,28.2830674 157.025426,27.7900343 156.414783,27.4887684 C155.016794,26.7981745 153.324491,27.3717383 152.634476,28.7691482 C152.366813,29.3114267 152.290338,29.8977363 152.377242,30.4527607 C152.458931,31.9619866 155.017373,34.3390898 155.017373,34.3390898 C155.017373,34.3390898 157.971516,34.841972 159.399053,34.238861 C160.035187,33.9926341 160.584997,33.5164024 160.911175,32.8565143" id="Fill-10" fill="#FFC371"></path>
                <path d="M155.428311,28.2755937 C154.312469,27.1875606 152.525731,27.2095761 151.437698,28.3254184 C150.962045,28.8132373 150.698438,29.4290942 150.645716,30.0582763 C150.017693,30.1272198 149.408788,30.4058907 148.933715,30.8931302 C147.845103,32.0089725 147.867698,33.7957106 148.98354,34.884323 C149.41632,35.3060952 149.949908,35.5604331 150.504932,35.6490747 C151.965492,36.0378235 155.016967,34.3391478 155.016967,34.3391478 C155.016967,34.3391478 156.408004,31.6851117 156.275332,30.1411244 C156.238253,29.4598001 155.955526,28.7894836 155.428311,28.2755937" id="Fill-12" fill="#F40F6C"></path>
                <path d="M149.377329,32.0744978 C147.997879,32.7992738 147.466609,34.5054812 148.191964,35.8855105 C148.508293,36.4880421 149.012913,36.9289331 149.595168,37.1740012 C149.465971,37.7921755 149.543025,38.4572778 149.859934,39.0603888 C150.58471,40.4398386 152.290917,40.9711093 153.670947,40.2457539 C154.205693,39.9647656 154.612402,39.5360412 154.868478,39.0354764 C155.689428,37.7661044 155.017373,34.3392057 155.017373,34.3392057 C155.017373,34.3392057 152.922996,32.1961628 151.413191,31.8450723 C150.753303,31.6701064 150.029106,31.7320976 149.377329,32.0744978" id="Fill-14" fill="#FFC371"></path>
                <path d="M151.1205,39.0032641 C151.383528,40.5397198 152.84235,41.5715553 154.378226,41.3085271 C155.049701,41.1932349 155.625003,40.8502554 156.037505,40.3717062 C156.586157,40.6857179 157.242569,40.8178114 157.913465,40.7030986 C159.44992,40.4400704 160.481756,38.9812486 160.218727,37.4447929 C160.116761,36.8492135 159.834614,36.3301093 159.437754,35.9320908 C158.484132,34.7588922 155.017257,34.3394374 155.017257,34.3394374 C155.017257,34.3394374 152.331936,35.6690626 151.531843,36.9963703 C151.161055,37.5693547 150.995938,38.2773294 151.1205,39.0032641" id="Fill-16" fill="#FFC371"></path>
                <path d="M158.248739,39.486564 C159.790988,39.7107753 161.223159,38.6430197 161.44795,37.1001911 C161.545861,36.4263985 161.396967,35.7734628 161.06963,35.2329223 C161.53775,34.8088328 161.866246,34.2254199 161.964737,33.5510479 C162.188948,32.0087987 161.120613,30.5766273 159.578364,30.3518366 C158.979888,30.264933 158.398792,30.3732728 157.897648,30.6270314 C156.487492,31.1716273 155.017083,34.3395533 155.017083,34.3395533 C155.017083,34.3395533 155.451601,37.3041249 156.466635,38.4755855 C156.897677,39.0045387 157.519907,39.3805417 158.248739,39.486564" id="Fill-18" fill="#F40F6C"></path>
                <path d="M42.2826585,117.510415 C42.7420889,116.580547 42.3602924,115.454855 41.4304238,114.995425 C41.0242943,114.794967 40.5805066,114.754992 40.1714803,114.850585 C39.9988318,114.46763 39.6969866,114.139714 39.2908571,113.938677 C38.3609886,113.479826 37.2352972,113.861043 36.7758669,114.790912 C36.5980041,115.151851 36.5470207,115.541759 36.6043771,115.910809 C36.659416,116.915415 38.3609886,118.497061 38.3609886,118.497061 C38.3609886,118.497061 40.3267481,118.83135 41.2763148,118.429855 C41.699825,118.266476 42.0659789,117.949568 42.2826585,117.510415" id="Fill-20" fill="#FFC371"></path>
                <path d="M38.6347349,114.46259 C37.8925782,113.738393 36.7037369,113.753456 35.9795402,114.495613 C35.6632111,114.820053 35.4882451,115.229659 35.4529043,115.648534 C35.0351877,115.694304 34.6296375,115.879698 34.3133084,116.204138 C33.5896911,116.946874 33.604175,118.135136 34.3469111,118.859333 C34.6348517,119.140321 34.9899978,119.309494 35.3590484,119.368588 C36.3312101,119.626981 38.3612783,118.497235 38.3612783,118.497235 C38.3612783,118.497235 39.286512,116.731353 39.1984496,115.703573 C39.1735373,115.250516 38.9852461,114.804411 38.6347349,114.46259" id="Fill-22" fill="#F40F6C"></path>
                <path d="M34.6088386,116.990094 C33.6911365,117.472699 33.3377286,118.60766 33.8197539,119.525362 C34.03064,119.926857 34.3660879,120.220012 34.7536779,120.382811 C34.6679331,120.794155 34.7189165,121.236784 34.9298026,121.638278 C35.4124073,122.55598 36.5473683,122.909388 37.4656497,122.426784 C37.8213751,122.239651 38.091935,121.954028 38.2622661,121.621477 C38.8086001,120.776774 38.3613362,118.497003 38.3613362,118.497003 C38.3613362,118.497003 36.9679818,117.071204 35.9633761,116.837723 C35.5242232,116.721272 35.0421979,116.762407 34.6088386,116.990094" id="Fill-24" fill="#FFC371"></path>
                <path d="M35.7685962,121.600041 C35.9435621,122.622027 36.9139856,123.308566 37.935972,123.1336 C38.3826565,123.057125 38.7656118,122.828858 39.0402271,122.510791 C39.4046429,122.719359 39.8414784,122.807421 40.2881629,122.730946 C41.3101493,122.55598 41.9972671,121.585557 41.8217218,120.56357 C41.753937,120.166711 41.5662252,119.821414 41.3026176,119.556647 C40.667642,118.776253 38.3612203,118.497003 38.3612203,118.497003 C38.3612203,118.497003 36.5744822,119.381681 36.0420528,120.264622 C35.795826,120.645839 35.6857481,121.117436 35.7685962,121.600041" id="Fill-26" fill="#FFC371"></path>
                <path d="M40.5112734,121.921584 C41.5373153,122.071058 42.4903581,121.360187 42.6398323,120.334145 C42.7052997,119.885722 42.6062296,119.451204 42.3883912,119.091423 C42.6995061,118.809276 42.9179239,118.421107 42.9833912,117.972684 C43.1328654,116.946642 42.421994,115.9936 41.3959521,115.844125 C40.9979336,115.78619 40.6109229,115.85803 40.2777924,116.027202 C39.3398128,116.389301 38.3612783,118.497003 38.3612783,118.497003 C38.3612783,118.497003 38.6503776,120.469715 39.3259083,121.24895 C39.6121108,121.601199 40.0263513,121.850902 40.5112734,121.921584" id="Fill-28" fill="#F40F6C"></path>
                <path d="M258.451548,252.073113 C258.910978,251.143245 258.529182,250.017553 257.599313,249.558123 C257.193184,249.357665 256.749396,249.31769 256.34037,249.413284 C256.167721,249.030328 255.865876,248.702412 255.459747,248.501375 C254.529878,248.042524 253.404187,248.423741 252.944756,249.35361 C252.766894,249.714549 252.71591,250.104457 252.773267,250.473508 C252.828306,251.478113 254.529878,253.059759 254.529878,253.059759 C254.529878,253.059759 256.495638,253.394048 257.445204,252.992553 C257.868715,252.829175 258.234868,252.512266 258.451548,252.073113" id="Fill-30" fill="#FFC371"></path>
                <path d="M254.803682,249.025288 C254.061526,248.301091 252.872684,248.316155 252.148488,249.058311 C251.832158,249.382751 251.657193,249.792357 251.621852,250.211232 C251.204135,250.257002 250.798585,250.442396 250.482256,250.766836 C249.758639,251.509572 249.773122,252.697834 250.515859,253.422031 C250.803799,253.703019 251.158945,253.872192 251.527996,253.931286 C252.500158,254.189679 254.530226,253.059933 254.530226,253.059933 C254.530226,253.059933 255.455459,251.294051 255.367397,250.266271 C255.342485,249.813214 255.154194,249.367109 254.803682,249.025288" id="Fill-32" fill="#F40F6C"></path>
                <path d="M250.777728,251.552792 C249.860026,252.035397 249.506618,253.170358 249.988643,254.08806 C250.199529,254.489555 250.534977,254.78271 250.922567,254.945509 C250.836823,255.356853 250.887806,255.799482 251.098692,256.200976 C251.581297,257.118678 252.716258,257.472086 253.634539,256.989482 C253.990265,256.802349 254.260825,256.516726 254.431156,256.184175 C254.97749,255.339472 254.530226,253.059701 254.530226,253.059701 C254.530226,253.059701 253.136871,251.633902 252.132266,251.400421 C251.693692,251.283971 251.211087,251.325105 250.777728,251.552792" id="Fill-34" fill="#FFC371"></path>
                <path d="M251.937486,256.162739 C252.112452,257.184725 253.082875,257.871264 254.104862,257.696298 C254.551546,257.619823 254.934501,257.391556 255.209117,257.073489 C255.573532,257.282057 256.010368,257.37012 256.457052,257.293644 C257.479039,257.118678 258.166157,256.148255 257.990611,255.126269 C257.922826,254.729409 257.735115,254.384112 257.471507,254.119345 C256.836531,253.338951 254.53011,253.059701 254.53011,253.059701 C254.53011,253.059701 252.743372,253.94438 252.210942,254.82732 C251.964715,255.208537 251.854638,255.680134 251.937486,256.162739" id="Fill-36" fill="#FFC371"></path>
                <path d="M256.680163,256.484282 C257.706205,256.633756 258.659248,255.922885 258.808722,254.896843 C258.87361,254.44842 258.775119,254.013902 258.557281,253.654122 C258.868396,253.371974 259.086813,252.983805 259.152281,252.535382 C259.301755,251.509341 258.590883,250.556298 257.564842,250.406824 C257.166823,250.348888 256.779812,250.420728 256.446682,250.5899 C255.508702,250.951999 254.530168,253.059701 254.530168,253.059701 C254.530168,253.059701 254.819267,255.032413 255.494798,255.811648 C255.781,256.163898 256.195241,256.413601 256.680163,256.484282" id="Fill-38" fill="#F40F6C"></path>
                <path d="M290.450671,231.640396 C291.140686,230.242986 290.567122,228.550683 289.169712,227.860669 C288.55907,227.558823 287.892229,227.49857 287.276952,227.64283 C287.017979,227.066949 286.564922,226.573916 285.954279,226.27265 C284.55629,225.582056 282.863987,226.15562 282.173972,227.55303 C281.906309,228.095308 281.829834,228.681618 281.916738,229.236642 C281.998427,230.745868 284.556869,233.122971 284.556869,233.122971 C284.556869,233.122971 287.511012,233.625854 288.938549,233.022743 C289.574683,232.776516 290.124493,232.300284 290.450671,231.640396" id="Fill-40" fill="#FFC371"></path>
                <path d="M284.967865,227.059533 C283.852023,225.9715 282.065285,225.993516 280.977252,227.109358 C280.501599,227.597177 280.237992,228.213034 280.18527,228.842216 C279.557247,228.911159 278.948342,229.18983 278.473269,229.67707 C277.384657,230.792912 277.407252,232.57965 278.523094,233.668263 C278.955874,234.090035 279.489462,234.344373 280.044486,234.433014 C281.505046,234.821763 284.556521,233.123087 284.556521,233.123087 C284.556521,233.123087 285.947558,230.469051 285.814886,228.925064 C285.777807,228.24374 285.49508,227.573423 284.967865,227.059533" id="Fill-42" fill="#F40F6C"></path>
                <path d="M278.916883,230.858437 C277.536854,231.583213 277.006163,233.289421 277.731518,234.66945 C278.047847,235.271982 278.552467,235.712873 279.134721,235.957941 C279.005525,236.576115 279.082579,237.241217 279.399488,237.844328 C280.124264,239.223778 281.830471,239.755049 283.2105,239.029693 C283.745247,238.748705 284.151956,238.319401 284.408032,237.819416 C285.228982,236.550044 284.556927,233.123145 284.556927,233.123145 C284.556927,233.123145 282.46255,230.980102 280.952745,230.629012 C280.292857,230.454046 279.56866,230.516037 278.916883,230.858437" id="Fill-44" fill="#FFC371"></path>
                <path d="M280.659996,237.787146 C280.923024,239.323601 282.381846,240.355437 283.917722,240.092409 C284.589197,239.977117 285.164499,239.634137 285.577001,239.155588 C286.125653,239.469599 286.782065,239.601693 287.452961,239.48698 C288.989416,239.223952 290.021252,237.76513 289.758223,236.228674 C289.656257,235.633095 289.37411,235.113991 288.97725,234.715972 C288.023628,233.542774 284.556753,233.123319 284.556753,233.123319 C284.556753,233.123319 281.871432,234.452944 281.071339,235.780252 C280.700551,236.353236 280.535434,237.061211 280.659996,237.787146" id="Fill-46" fill="#FFC371"></path>
                <path d="M287.788293,238.270446 C289.330542,238.494657 290.762713,237.426901 290.987504,235.884073 C291.085415,235.21028 290.93652,234.557344 290.609184,234.016804 C291.077304,233.592714 291.4058,233.009301 291.504291,232.33493 C291.728502,230.79268 290.660167,229.360509 289.117918,229.135718 C288.519442,229.048815 287.938346,229.157154 287.437202,229.410913 C286.027046,229.955509 284.556637,233.123435 284.556637,233.123435 C284.556637,233.123435 284.991155,236.088006 286.006189,237.259467 C286.437231,237.78842 287.059461,238.164423 287.788293,238.270446" id="Fill-48" fill="#F40F6C"></path>
                <path d="M157.336251,238.717072 C158.026265,237.319662 157.452702,235.627359 156.055292,234.937345 C155.444649,234.6355 154.777809,234.575246 154.162531,234.719506 C153.903559,234.143625 153.450501,233.650592 152.839858,233.349326 C151.441869,232.658732 149.749566,233.232296 149.059552,234.629706 C148.791889,235.171985 148.715413,235.758294 148.802317,236.313319 C148.884006,237.822544 151.442448,240.199648 151.442448,240.199648 C151.442448,240.199648 154.396592,240.70253 155.824128,240.099419 C156.460263,239.853192 157.010073,239.37696 157.336251,238.717072" id="Fill-50" fill="#FFC371"></path>
                <path d="M151.853387,234.136152 C150.737544,233.048118 148.950806,233.070134 147.862773,234.185976 C147.387121,234.673795 147.123513,235.289652 147.070792,235.918834 C146.442768,235.987778 145.833864,236.266449 145.358791,236.753688 C144.270178,237.86953 144.292773,239.656268 145.408615,240.744881 C145.841395,241.166653 146.374983,241.420991 146.930008,241.509633 C148.390568,241.898381 151.442043,240.199706 151.442043,240.199706 C151.442043,240.199706 152.83308,237.54567 152.700407,236.001682 C152.663328,235.320358 152.380602,234.650042 151.853387,234.136152" id="Fill-52" fill="#F40F6C"></path>
                <path d="M145.802405,237.935056 C144.422955,238.659832 143.891684,240.366039 144.617039,241.746068 C144.933369,242.3486 145.437989,242.789491 146.020243,243.034559 C145.891046,243.652733 145.968101,244.317836 146.285009,244.920947 C147.009785,246.300397 148.715993,246.831667 150.096022,246.106312 C150.630769,245.825323 151.037478,245.396599 151.293554,244.896034 C152.114503,243.626662 151.442448,240.199764 151.442448,240.199764 C151.442448,240.199764 149.348072,238.056721 147.838266,237.70563 C147.178378,237.530664 146.454182,237.592655 145.802405,237.935056" id="Fill-54" fill="#FFC371"></path>
                <path d="M147.545517,244.863822 C147.808545,246.400278 149.267367,247.432113 150.803243,247.169085 C151.474719,247.053793 152.050021,246.710813 152.462523,246.232264 C153.011174,246.546276 153.667586,246.678369 154.338482,246.563657 C155.874938,246.300628 156.906773,244.841806 156.643745,243.305351 C156.541778,242.709771 156.259631,242.190667 155.862771,241.792649 C154.909149,240.61945 151.442275,240.199995 151.442275,240.199995 C151.442275,240.199995 148.756953,241.52962 147.956861,242.856928 C147.586072,243.429913 147.420955,244.137887 147.545517,244.863822" id="Fill-56" fill="#FFC371"></path>
                <path d="M154.673814,245.347122 C156.216063,245.571333 157.648235,244.503578 157.873025,242.960749 C157.970937,242.286956 157.822042,241.634021 157.494705,241.09348 C157.962826,240.669391 158.291321,240.085978 158.389812,239.411606 C158.614023,237.869357 157.545689,236.437185 156.003439,236.212395 C155.404963,236.125491 154.823868,236.233831 154.322724,236.487589 C152.912568,237.032185 151.442159,240.200111 151.442159,240.200111 C151.442159,240.200111 151.876677,243.164683 152.891711,244.336143 C153.322753,244.865097 153.944983,245.2411 154.673814,245.347122" id="Fill-58" fill="#F40F6C"></path>
                <path d="M82.6931237,258.810228 C83.285227,257.610958 82.7933526,256.15851 81.5940828,255.566406 C81.0697644,255.307434 80.4973594,255.255871 79.9695648,255.379274 C79.7470916,254.885082 79.3577634,254.462151 78.8340244,254.203178 C77.6347547,253.611075 76.1823058,254.10295 75.5902026,255.302219 C75.3601977,255.767443 75.294151,256.270905 75.3688881,256.747137 C75.4395696,258.04258 77.6347547,260.083076 77.6347547,260.083076 C77.6347547,260.083076 80.1700225,260.514118 81.3953633,259.996173 C81.9416972,259.785287 82.4132941,259.37684 82.6931237,258.810228" id="Fill-60" fill="#FFC371"></path>
                <path d="M77.9875833,254.878825 C77.0299056,253.944901 75.4963467,253.96402 74.5624226,254.921697 C74.154555,255.339993 73.9286057,255.868367 73.8834158,256.408908 C73.3440341,256.468002 72.8214538,256.707277 72.4135862,257.125573 C71.4796621,258.083251 71.4987809,259.61623 72.4564586,260.550154 C72.8278267,260.912832 73.2860984,261.13067 73.7617507,261.207145 C75.0160594,261.540276 77.6347547,260.082613 77.6347547,260.082613 C77.6347547,260.082613 78.8288102,257.805159 78.7146768,256.479589 C78.6828121,255.895018 78.4400614,255.319716 77.9875833,254.878825" id="Fill-62" fill="#F40F6C"></path>
                <path d="M72.7945136,258.139101 C71.6103072,258.76133 71.1549323,260.225366 71.7771621,261.409573 C72.0488807,261.926939 72.4816607,262.305259 72.9816461,262.515566 C72.8709888,263.046257 72.9370356,263.616924 73.2087542,264.134291 C73.830984,265.318497 75.29502,265.774451 76.4792264,265.152221 C76.9386568,264.910629 77.2874299,264.542737 77.5070064,264.113434 C78.2115049,263.023662 77.6350443,260.082845 77.6350443,260.082845 C77.6350443,260.082845 75.8372985,258.243385 74.5418554,257.942119 C73.9758233,257.792066 73.3535935,257.845366 72.7945136,258.139101" id="Fill-64" fill="#FFC371"></path>
                <path d="M74.2904723,264.085567 C74.5164216,265.404184 75.7678335,266.290021 77.0864509,266.064072 C77.6629114,265.965002 78.1559445,265.670688 78.5105112,265.259924 C78.9809494,265.529325 79.5446641,265.642879 80.1205453,265.544388 C81.4391627,265.318439 82.3244207,264.066448 82.0990507,262.74841 C82.0115677,262.236837 81.768817,261.791311 81.4287342,261.449491 C80.6101023,260.443147 77.6345229,260.082787 77.6345229,260.082787 C77.6345229,260.082787 75.3298394,261.224121 74.6433009,262.363137 C74.3252337,262.855012 74.1838705,263.462757 74.2904723,264.085567" id="Fill-66" fill="#FFC371"></path>
                <path d="M80.4081383,264.500328 C81.7319699,264.693254 82.9607868,263.776132 83.1537128,262.4523 C83.2377197,261.874102 83.110261,261.313863 82.8292727,260.849798 C83.2307674,260.485382 83.5129144,259.984817 83.5969212,259.406619 C83.7898472,258.082787 82.8727245,256.853391 81.5494723,256.661044 C81.0355823,256.586307 80.5367557,256.679004 80.1068725,256.896843 C78.896595,257.364384 77.6347547,260.082729 77.6347547,260.082729 C77.6347547,260.082729 78.0078608,262.627266 78.8792143,263.632451 C79.2488443,264.086667 79.7830117,264.409369 80.4081383,264.500328" id="Fill-68" fill="#F40F6C"></path>
                <path d="M240.363316,226.399877 C240.955419,225.200607 240.463545,223.748158 239.264275,223.156055 C238.739957,222.897082 238.167552,222.84552 237.639757,222.968923 C237.417284,222.474731 237.027956,222.0518 236.504217,221.792827 C235.304947,221.200724 233.852498,221.692598 233.260395,222.891868 C233.03039,223.357092 232.964343,223.860554 233.03908,224.336785 C233.109762,225.632228 235.304947,227.672725 235.304947,227.672725 C235.304947,227.672725 237.840215,228.103767 239.065556,227.585821 C239.61189,227.374935 240.083487,226.966488 240.363316,226.399877" id="Fill-70" fill="#FFC371"></path>
                <path d="M235.657776,222.468416 C234.700098,221.534492 233.166539,221.553611 232.232615,222.511288 C231.824747,222.929584 231.598798,223.457958 231.553608,223.998499 C231.014227,224.057593 230.491646,224.296868 230.083779,224.715164 C229.149855,225.672841 229.168973,227.205821 230.126651,228.139745 C230.498019,228.502423 230.956291,228.720261 231.431943,228.796736 C232.686252,229.129867 235.304947,227.672204 235.304947,227.672204 C235.304947,227.672204 236.499003,225.39475 236.384869,224.06918 C236.353005,223.484609 236.110254,222.909307 235.657776,222.468416" id="Fill-72" fill="#F40F6C"></path>
                <path d="M230.464648,225.728749 C229.280442,226.350979 228.825067,227.815015 229.447297,228.999222 C229.719015,229.516588 230.151795,229.894908 230.651781,230.105215 C230.541123,230.635906 230.60717,231.206573 230.878889,231.724519 C231.501118,232.908146 232.965154,233.3641 234.149361,232.74187 C234.608791,232.500278 234.957564,232.132386 235.177141,231.703082 C235.881639,230.613311 235.305179,227.672493 235.305179,227.672493 C235.305179,227.672493 233.507433,225.833034 232.21199,225.531768 C231.645958,225.381714 231.023728,225.435015 230.464648,225.728749" id="Fill-74" fill="#FFC371"></path>
                <path d="M231.960665,231.675215 C232.186614,232.993833 233.438026,233.87967 234.756643,233.653721 C235.333104,233.554651 235.826137,233.260337 236.180704,232.849573 C236.651142,233.118974 237.214857,233.232528 237.790738,233.134037 C239.109355,232.908088 239.994613,231.656097 239.769243,230.338059 C239.68176,229.826486 239.439009,229.38096 239.098927,229.039139 C238.280295,228.032796 235.304715,227.672435 235.304715,227.672435 C235.304715,227.672435 233.000032,228.813769 232.313493,229.952786 C231.995426,230.44466 231.854063,231.052406 231.960665,231.675215" id="Fill-76" fill="#FFC371"></path>
                <path d="M238.078331,232.089977 C239.402162,232.282903 240.630979,231.365781 240.823905,230.041949 C240.907912,229.46375 240.780453,228.903512 240.499465,228.439447 C240.90096,228.075031 241.183107,227.574466 241.267114,226.996267 C241.46004,225.672436 240.542917,224.44304 239.219665,224.250693 C238.705775,224.175956 238.206948,224.268653 237.777065,224.486491 C236.566787,224.954033 235.304947,227.672377 235.304947,227.672377 C235.304947,227.672377 235.678053,230.216915 236.549407,231.2221 C236.919037,231.676316 237.453204,231.999018 238.078331,232.089977" id="Fill-78" fill="#F40F6C"></path>
                <path d="M35.8740971,235.152692 C38.5547836,233.296431 39.2227826,229.618671 37.3659423,226.937984 C36.554842,225.766523 35.395548,224.979756 34.1244379,224.619975 C34.2345158,223.302517 33.9054408,221.941027 33.0937612,220.769566 C31.2375002,218.089459 27.5597397,217.42146 24.8790532,219.277721 C23.8396861,219.997862 23.1044817,220.992039 22.7000902,222.095715 C21.3189023,224.94036 23.5870863,231.885116 23.5870863,231.885116 C23.5870863,231.885116 28.4809179,235.802152 31.7050416,236.146869 C33.1192529,236.342692 34.6082013,236.029839 35.8740971,235.152692" id="Fill-80" fill="#FFC371"></path>
                <path d="M30.4911721,221.209125 C29.5537719,218.086389 26.2624427,216.314134 23.1397066,217.251535 C21.7747407,217.66114 20.6681681,218.520327 19.9329636,219.618789 C18.7145751,219.106637 17.3177445,218.998876 15.9527786,219.408482 C12.8300424,220.345882 11.0583677,223.637211 11.9957679,226.759948 C12.3590249,227.971384 13.077428,228.978307 14.0020824,229.703662 C16.2806949,231.89653 23.5869705,231.885522 23.5869705,231.885522 C23.5869705,231.885522 28.824361,228.441243 30.1481925,225.481306 C30.771581,224.196871 30.9338011,222.684169 30.4911721,221.209125" id="Fill-82" fill="#F40F6C"></path>
                <path d="M15.5666369,222.019761 C12.3071724,221.946183 9.60447037,224.528958 9.53089198,227.788423 C9.49902733,229.213062 9.97410036,230.5311 10.7909942,231.569888 C9.92775177,232.570438 9.39358429,233.865302 9.36171964,235.289942 C9.28814125,238.549986 11.8709163,241.252108 15.1303808,241.325687 C16.3945386,241.354075 17.5741101,240.981548 18.5497479,240.326875 C21.3393536,238.836767 23.5866808,231.885638 23.5866808,231.885638 C23.5866808,231.885638 21.9297187,225.839465 19.5236477,223.665716 C18.494709,222.676173 17.1065688,222.054523 15.5666369,222.019761" id="Fill-84" fill="#FFC371"></path>
                <path d="M11.7256135,236.464357 C10.6480088,239.541903 12.2696301,242.909708 15.3471763,243.987312 C16.6918648,244.45775 18.0921715,244.41314 19.3325756,243.957186 C20.017376,245.087512 21.0839729,245.995365 22.4286613,246.466382 C25.5062076,247.543987 28.8745912,245.922366 29.9516166,242.84482 C30.3693332,241.651343 30.3797616,240.414415 30.0582183,239.284089 C29.5037733,236.170623 23.5867967,231.885116 23.5867967,231.885116 C23.5867967,231.885116 17.3251024,231.59312 14.5140605,233.209527 C13.2551169,233.882741 12.2342893,235.010749 11.7256135,236.464357" id="Fill-86" fill="#FFC371"></path>
                <path d="M24.2763478,244.58098 C26.8701307,246.556588 30.5745416,246.055444 32.5501502,243.461661 C33.4133926,242.327859 33.8038795,240.982591 33.752896,239.661656 C35.0396487,239.359811 36.2331249,238.625766 37.0963673,237.492543 C39.0719759,234.89818 38.5708318,231.194349 35.9770489,229.21874 C34.9707052,228.45225 33.7975066,228.060605 32.6231492,228.017153 C29.4911433,227.582056 23.5869125,231.885522 23.5869125,231.885522 C23.5869125,231.885522 21.3737674,237.750357 22.0423458,240.923497 C22.2932076,242.328438 23.051007,243.647635 24.2763478,244.58098" id="Fill-88" fill="#F40F6C"></path>
                <path d="M114.258135,90.8948541 C116.956202,88.4302679 117.145652,84.2455697 114.681645,81.5475025 C113.60462,80.3685103 112.199099,79.6686466 110.732745,79.4594986 C110.657429,77.9803993 110.087341,76.5175219 109.010895,75.3385297 C106.546309,72.6398832 102.361031,72.4504333 99.6629642,74.9150195 C98.6166448,75.8703798 97.9492251,77.0852922 97.6659194,78.3720448 C96.5593468,81.7386904 100.121236,89.1110128 100.121236,89.1110128 C100.121236,89.1110128 106.144814,92.726782 109.777385,92.6253945 C111.37757,92.6300294 112.983548,92.058783 114.258135,90.8948541" id="Fill-90" fill="#FFC371"></path>
                <path d="M106.185891,76.217241 C104.676085,72.8894124 100.754415,71.4161066 97.4265868,72.9259119 C95.9723999,73.5857999 94.8727796,74.706277 94.2210026,76.0364815 C92.7905693,75.6506295 91.2234076,75.7410093 89.7692207,76.4008973 C86.441392,77.9107026 84.9680863,81.8323725 86.4778915,85.1596218 C87.0636218,86.45043 88.0126092,87.4602499 89.1487289,88.1276695 C92.0084369,90.2203083 100.121178,89.1114183 100.121178,89.1114183 C100.121178,89.1114183 105.42056,84.4997338 106.446602,81.0137406 C106.946008,79.4935069 106.89908,77.7890375 106.185891,76.217241" id="Fill-92" fill="#F40F6C"></path>
                <path d="M89.7321418,79.3587484 C86.1007299,79.7666159 83.4878282,83.0405643 83.8951164,86.6719762 C84.0735585,88.258836 84.7989139,89.6516111 85.862614,90.6822879 C85.0544105,91.9232713 84.6552333,93.4417669 84.8336754,95.0286267 C85.2415429,98.6600386 88.5154914,101.27352 92.1469033,100.865652 C93.555321,100.707488 94.8090503,100.116543 95.7945372,99.2428721 C98.6693084,97.1693522 100.121178,89.1110707 100.121178,89.1110707 C100.121178,89.1110707 97.3727066,82.6454426 94.3745323,80.5927795 C93.0825654,79.648427 91.4476189,79.1664017 89.7321418,79.3587484" id="Fill-94" fill="#FFC371"></path>
                <path d="M87.6354475,95.9779617 C86.9008224,99.5578108 89.2078234,103.054812 92.7870931,103.788858 C94.351358,104.109822 95.8999802,103.850269 97.2087485,103.157358 C98.1391964,104.3097 99.4607105,105.157879 101.024975,105.478843 C104.604245,106.213468 108.101246,103.907046 108.835871,100.327197 C109.120915,98.9390572 108.946528,97.5636628 108.419313,96.3568614 C107.335915,92.9821048 100.121178,89.1114183 100.121178,89.1114183 C100.121178,89.1114183 93.122541,89.7272752 90.2437143,91.9444758 C88.9459539,92.8807173 87.9824826,94.2868176 87.6354475,95.9779617" id="Fill-96" fill="#FFC371"></path>
                <path d="M102.793348,103.107649 C105.970544,104.912347 110.009823,103.799402 111.813942,100.621627 C112.603027,99.2334866 112.83419,97.6802295 112.579852,96.2214077 C113.963358,95.6924544 115.17827,94.6982772 115.966775,93.3095576 C117.771474,90.1323619 116.658528,86.0936617 113.481332,84.2889636 C112.24846,83.5890999 110.88697,83.3295478 109.576464,83.4575858 C106.031955,83.4454193 100.120772,89.1115342 100.120772,89.1115342 C100.120772,89.1115342 98.544341,95.9572207 99.7633089,99.3806433 C100.252866,100.903774 101.292233,102.255415 102.793348,103.107649" id="Fill-98" fill="#F40F6C"></path>
                <path d="M256.891744,115.666784 C258.675586,113.803571 258.611856,110.84711 256.748643,109.06269 C255.934067,108.283454 254.911501,107.856468 253.868658,107.778834 C253.745834,106.740625 253.274816,105.736599 252.460819,104.957363 C250.597606,103.172943 247.641145,103.237251 245.856725,105.100465 C245.164972,105.822923 244.75247,106.710499 244.613424,107.629939 C243.992932,110.053391 246.849743,115.078157 246.849743,115.078157 C246.849743,115.078157 251.263867,117.339968 253.817095,117.097217 C254.944524,117.025377 256.048779,116.546828 256.891744,115.666784" id="Fill-100" fill="#FFC371"></path>
                <path d="M250.51273,105.709717 C249.292024,103.437477 246.460125,102.584663 244.187886,103.805369 C243.194867,104.338378 242.472988,105.179605 242.076708,106.147132 C241.051245,105.943777 239.951045,106.081085 238.958027,106.614094 C236.685787,107.8348 235.832973,110.666698 237.053679,112.939517 C237.527014,113.82072 238.243679,114.48756 239.075057,114.903539 C241.188553,116.242434 246.850033,115.077925 246.850033,115.077925 C246.850033,115.077925 250.364994,111.579766 250.922915,109.075783 C251.202745,107.981377 251.089191,106.783266 250.51273,105.709717" id="Fill-102" fill="#F40F6C"></path>
                <path d="M239.071871,108.699606 C236.533127,109.158457 234.847197,111.588282 235.306048,114.126447 C235.506506,115.235916 236.083545,116.182007 236.881321,116.858117 C236.370327,117.770605 236.161179,118.859217 236.361637,119.968107 C236.820488,122.506851 239.250313,124.192781 241.788477,123.73393 C242.773385,123.556067 243.628516,123.080994 244.280873,122.418789 C246.207815,120.822659 246.849743,115.078331 246.849743,115.078331 C246.849743,115.078331 244.608789,110.653779 242.399699,109.349645 C241.445498,108.745376 240.27114,108.482927 239.071871,108.699606" id="Fill-104" fill="#FFC371"></path>
                <path d="M238.379944,120.504534 C238.03175,123.060659 239.821385,125.414588 242.37751,125.762781 C243.494511,125.915152 244.572695,125.659076 245.462008,125.109266 C246.172301,125.876915 247.142724,126.412241 248.259725,126.564033 C250.81527,126.912226 253.169779,125.122591 253.517973,122.566467 C253.652963,121.575186 253.465251,120.615191 253.037106,119.789607 C252.114769,117.464067 246.850149,115.078273 246.850149,115.078273 C246.850149,115.078273 241.949365,115.842445 240.026478,117.540542 C239.156862,118.261262 238.544482,119.297153 238.379944,120.504534" id="Fill-106" fill="#FFC371"></path>
                <path d="M249.393296,124.810434 C251.716519,125.93149 254.509021,124.957011 255.629498,122.633209 C256.119635,121.618175 256.209435,120.51334 255.960891,119.497727 C256.910457,119.059733 257.71982,118.301933 258.209377,117.286899 C259.330433,114.963676 258.355954,112.171753 256.032152,111.050696 C255.131251,110.615599 254.160248,110.49741 253.242546,110.649781 C250.745516,110.808525 246.849917,115.078389 246.849917,115.078389 C246.849917,115.078389 246.06257,119.975117 247.082819,122.328467 C247.499956,123.378262 248.295993,124.280901 249.393296,124.810434" id="Fill-108" fill="#F40F6C"></path>
                <path d="M295.873804,186.085064 C296.367996,182.665696 293.996686,179.492556 290.57674,178.998364 C289.082577,178.782264 287.635342,179.113657 286.43839,179.84075 C285.495776,178.804859 284.201491,178.077186 282.707329,177.861086 C279.287962,177.366894 276.114821,179.738783 275.620629,183.15815 C275.428862,184.484299 275.669875,185.77279 276.234748,186.882839 C277.445026,190.007892 284.470313,193.260404 284.470313,193.260404 C284.470313,193.260404 291.041964,192.289981 293.636326,190.037439 C294.808945,189.0815 295.640323,187.700312 295.873804,186.085064" id="Fill-110" fill="#FFC371"></path>
                <path d="M281.16983,180.197866 C278.070268,178.671259 274.320088,179.946425 272.792902,183.045987 C272.126062,184.399945 271.993968,185.879044 272.315512,187.242272 C271.038608,187.818153 269.947099,188.823918 269.279679,190.178455 C267.753072,193.278017 269.028238,197.028197 272.1278,198.555383 C273.329966,199.147486 274.629465,199.316079 275.86002,199.122574 C279.205809,198.93718 284.470429,193.260636 284.470429,193.260636 C284.470429,193.260636 285.57816,186.711001 284.237527,183.547131 C283.690614,182.136396 282.633866,180.919166 281.16983,180.197866" id="Fill-112" fill="#F40F6C"></path>
                <path d="M271.027021,192.362922 C268.617474,194.839095 268.670774,198.799582 271.146948,201.209709 C272.229187,202.262401 273.594733,202.845235 274.990405,202.961106 C275.143934,204.352722 275.762688,205.702046 276.844927,206.755317 C279.321101,209.164865 283.281588,209.111564 285.691714,206.63539 C286.626218,205.674816 287.188774,204.491189 287.384596,203.261213 C288.242045,200.021447 284.470429,193.260347 284.470429,193.260347 C284.470429,193.260347 278.583579,190.1828 275.160156,190.48059 C273.649772,190.564597 272.165458,191.193199 271.027021,192.362922" id="Fill-114" fill="#FFC371"></path>
                <path d="M279.462348,205.768556 C281.072382,208.825825 284.856165,209.998444 287.912854,208.38841 C289.248853,207.684491 290.22507,206.565752 290.766189,205.274364 C292.137528,205.558249 293.611993,205.38618 294.947991,204.68284 C298.00526,203.072806 299.177879,199.289023 297.567845,196.231755 C296.943298,195.046389 295.990834,194.145489 294.881944,193.579457 C292.065688,191.762592 284.470313,193.26081 284.470313,193.26081 C284.470313,193.26081 279.724218,197.908415 278.949617,201.255941 C278.562606,202.718239 278.701652,204.324218 279.462348,205.768556" id="Fill-116" fill="#FFC371"></path>
                <g id="Group-120" transform="translate(284.464462, 181.147664)">
                    <mask id="mask-4" fill="white">
                        <use xlink:href="#path-3"></use>
                    </mask>
                    <g id="Clip-119"></g>
                    <path d="M10.3541008,20.7409354 C13.758984,20.1540464 16.0439694,16.9183356 15.4570804,13.5134524 C15.2004251,12.0256627 14.4385702,10.7516559 13.3771875,9.83742996 C14.0712576,8.62135887 14.3632537,7.16543384 14.1065984,5.67764415 C13.5202888,2.27276097 10.2839986,-0.0122244402 6.87911543,0.574664561 C5.55876002,0.802352002 4.40757695,1.42979602 3.52637442,2.30926048 C0.928536034,4.42623226 0.00561976635,12.1131457 0.00561976635,12.1131457 C0.00561976635,12.1131457 2.95918356,18.0631457 5.904057,19.8342411 C7.17516704,20.6540318 8.74580483,21.0178682 10.3541008,20.7409354" id="Fill-118" fill="#F40F6C" mask="url(#mask-4)"></path>
                </g>
                <path d="M187.283233,78.619778 C187.534674,76.8811266 186.329031,75.2681957 184.59038,75.0167547 C183.830842,74.9072561 183.095058,75.0758491 182.486154,75.4454791 C182.007025,74.9182639 181.349455,74.5486339 180.589917,74.4391354 C178.851266,74.1876943 177.238335,75.3933369 176.986894,77.1319884 C176.889562,77.805781 177.011806,78.4610341 177.299167,79.0253282 C177.914445,80.6139261 181.485603,82.2679913 181.485603,82.2679913 C181.485603,82.2679913 184.826757,81.7743788 186.145954,80.6289894 C186.741533,80.1429085 187.164464,79.4407274 187.283233,78.619778" id="Fill-121" fill="#FFC371"></path>
                <path d="M179.8079,75.6268179 C178.232048,74.8504791 176.325383,75.49878 175.549624,77.074632 C175.21012,77.7634879 175.142915,78.5149144 175.306294,79.2078258 C174.657414,79.5009806 174.102389,80.0119738 173.763465,80.7008297 C172.987126,82.2766817 173.635427,84.1833467 175.211279,84.9596856 C175.821922,85.2603721 176.482969,85.3461169 177.108095,85.2476262 C178.809668,85.1537703 181.485719,82.2679913 181.485719,82.2679913 C181.485719,82.2679913 182.048855,78.9378452 181.36753,77.3295492 C181.089439,76.6123048 180.552375,75.9935512 179.8079,75.6268179" id="Fill-123" fill="#F40F6C"></path>
                <path d="M174.651446,81.8113418 C173.426105,83.0702854 173.453915,85.0835522 174.712279,86.308893 C175.262668,86.8442192 175.956738,87.1402708 176.666451,87.1993653 C176.744085,87.9067606 177.059255,88.5927197 177.609065,89.1280459 C178.868009,90.3533867 180.881855,90.3261569 182.106617,89.0672134 C182.58169,88.5788151 182.867892,87.9768628 182.967542,87.3517362 C183.403218,85.7046233 181.485546,82.2678754 181.485546,82.2678754 C181.485546,82.2678754 178.493165,80.7030312 176.752775,80.8542435 C175.985127,80.8971159 175.230224,81.2169212 174.651446,81.8113418" id="Fill-125" fill="#FFC371"></path>
                <path d="M178.939907,88.6265542 C179.758539,90.1809699 181.682006,90.7771287 183.236421,89.9584967 C183.915428,89.6004539 184.411358,89.0321043 184.686553,88.3751131 C185.38352,88.5199524 186.133208,88.4324694 186.812794,88.0744266 C188.366631,87.2557947 188.96279,85.3323282 188.144158,83.7784918 C187.82667,83.1753808 187.342906,82.7176885 186.779192,82.4297479 C185.3476,81.5062523 181.485603,82.2675278 181.485603,82.2675278 C181.485603,82.2675278 179.073159,84.6307265 178.679196,86.332299 C178.482794,87.0761939 178.553476,87.8925084 178.939907,88.6265542" id="Fill-127" fill="#FFC371"></path>
                <path d="M186.746748,86.6540741 C188.477867,86.3557051 189.639479,84.7109095 189.34111,82.9797898 C189.210754,82.2231491 188.823164,81.5754275 188.283783,81.1107829 C188.636611,80.4926086 188.784927,79.7527693 188.654571,78.9961286 C188.356202,77.2650088 186.711407,76.1033973 184.980287,76.4017663 C184.308812,76.5176378 183.723661,76.8362844 183.275818,77.2835482 C181.954883,78.3599942 181.485603,82.2677596 181.485603,82.2677596 C181.485603,82.2677596 182.987298,85.2925843 184.484357,86.1929057 C185.13092,86.6100429 185.929274,86.7948579 186.746748,86.6540741" id="Fill-129" fill="#F40F6C"></path>
                <path d="M18.7174719,167.836871 C21.0296871,167.200157 22.3888595,164.809729 21.7521457,162.496934 C21.4740542,161.486535 20.8605147,160.658634 20.0656365,160.098974 C20.4624962,159.211399 20.5656219,158.185936 20.2875303,157.175537 C19.6508166,154.863322 17.2598088,153.504729 14.9475936,154.140863 C14.0507484,154.38767 13.2981632,154.899242 12.7489324,155.567241 C11.097764,157.205664 10.9824718,162.578624 10.9824718,162.578624 C10.9824718,162.578624 13.4273599,166.488707 15.5814105,167.512431 C16.5153346,167.992718 17.6253833,168.137558 18.7174719,167.836871" id="Fill-131" fill="#FFC371"></path>
                <path d="M18.3735074,156.847389 C18.483006,154.451167 16.6290624,152.42052 14.2328404,152.311021 C13.1859417,152.263514 12.2085658,152.590851 11.4310682,153.174263 C10.7097683,152.522486 9.7659952,152.107667 8.71909646,152.060159 C6.32345379,151.950661 4.2922269,153.804604 4.18330772,156.200247 C4.14101463,157.129536 4.39477316,158.003207 4.85999711,158.732039 C5.90805457,160.808455 10.9826456,162.578971 10.9826456,162.578971 C10.9826456,162.578971 15.4570225,161.46255 17.0960245,159.729692 C17.841078,158.989853 18.3219446,157.979453 18.3735074,156.847389" id="Fill-133" fill="#F40F6C"></path>
                <g id="Group-137" transform="translate(0.000000, 153.338511)">
                    <mask id="mask-6" fill="white">
                        <use xlink:href="#path-5"></use>
                    </mask>
                    <g id="Clip-136"></g>
                    <path d="M7.81558866,0.440137783 C5.57057891,-0.403985884 3.06601706,0.731554533 2.22189339,2.97656429 C1.85284276,3.95741629 1.86211248,4.98809302 2.17670352,5.90753315 C1.33373857,6.39245525 0.647779459,7.16126246 0.279308181,8.14269382 C-0.565394843,10.3877036 0.570145574,12.8916861 2.81515533,13.7363891 C3.68592943,14.063726 4.59552048,14.0921145 5.4321125,13.8748555 C7.73100249,13.5191301 10.982356,9.24057601 10.982356,9.24057601 C10.982356,9.24057601 11.3033199,4.64047861 10.161986,2.54552241 C9.68865099,1.60812221 8.87581262,0.838735644 7.81558866,0.440137783" id="Fill-135" fill="#FFC371" mask="url(#mask-6)"></path>
                </g>
                <path d="M1.63448297,162.871489 C0.138002922,164.74571 0.443903606,167.478539 2.31812465,168.975019 C3.13675659,169.629113 4.11992603,169.939069 5.09208767,169.924006 C5.29254531,170.875311 5.81222886,171.765204 6.6308608,172.419298 C8.50508185,173.915778 11.2379105,173.609878 12.7343905,171.735656 C13.3149066,171.009142 13.6231247,170.152852 13.6746875,169.28961 C14.0472143,166.993617 10.9824139,162.578913 10.9824139,162.578913 C10.9824139,162.578913 6.70675662,160.852429 4.3620974,161.290423 C3.32446838,161.451484 2.34129894,161.986231 1.63448297,162.871489" id="Fill-138" fill="#FFC371"></path>
                <path d="M8.37217727,171.559937 C9.69195333,173.562776 12.3853857,174.116062 14.3882241,172.795707 C15.2630537,172.219246 15.8615298,171.380337 16.1477323,170.451047 C17.1146798,170.554173 18.1216029,170.335176 18.9964325,169.758136 C20.9992708,168.43836 21.5525571,165.744928 20.2327811,163.742089 C19.7206292,162.96575 19.0016467,162.408409 18.1969193,162.092079 C16.1280342,161.028379 10.9827615,162.57874 10.9827615,162.57874 C10.9827615,162.57874 8.01934864,166.11224 7.71170989,168.477177 C7.54369625,169.513647 7.74878876,170.613847 8.37217727,171.559937" id="Fill-140" fill="#F40F6C"></path>
            </g>
        </g>
    </g>
</svg>