<?xml version="1.0" encoding="UTF-8"?>
<svg width="280px" height="202px" viewBox="0 0 280 202" version="1.1" xmlns="http://www.w3.org/2000/svg" xmlns:xlink="http://www.w3.org/1999/xlink">
    <!-- Generator: Sketch 52.2 (67145) - http://www.bohemiancoding.com/sketch -->
    <title>listclinic@1x</title>
    <desc>Created with Sketch.</desc>
    <defs>
        <polygon id="path-1" points="0 201.765001 279.677565 201.765001 279.677565 0 0 0"></polygon>
    </defs>
    <g id="Mockups" stroke="none" stroke-width="1" fill="none" fill-rule="evenodd">
        <g id="Planner---Desktop" transform="translate(-572.000000, -2682.000000)">
            <g id="listclinic" transform="translate(571.987358, 2681.959269)">
                <path d="M275.124344,195.837377 L171.076164,195.837377 C168.561588,195.837377 166.523265,193.798732 166.523265,191.284156 L166.523265,47.5511465 C166.523265,45.0365707 168.561588,42.9979256 171.076164,42.9979256 L275.124344,42.9979256 C277.63892,42.9979256 279.677565,45.0365707 279.677565,47.5511465 L279.677565,191.284156 C279.677565,193.798732 277.63892,195.837377 275.124344,195.837377" id="Fill-1" fill="#ECA89E"></path>
                <path d="M270.361592,186.185 L175.83911,186.185 C173.554449,186.185 171.70257,184.333121 171.70257,182.048782 L171.70257,51.474387 C171.70257,49.1897264 173.554449,47.3378471 175.83911,47.3378471 L270.361592,47.3378471 C272.64593,47.3378471 274.497809,49.1897264 274.497809,51.474387 L274.497809,182.048782 C274.497809,184.333121 272.64593,186.185 270.361592,186.185" id="Fill-3" fill="#F2F2F2"></path>
                <path d="M223.100286,34.7663206 C225.382693,34.7663206 227.369816,36.0530724 228.376097,37.9390847 L217.824475,37.9390847 C218.830756,36.0530724 220.81788,34.7663206 223.100286,34.7663206 Z M235.399457,37.9390847 C234.120433,32.3274172 229.093536,28.1258312 223.100286,28.1258312 C217.107037,28.1258312 212.080139,32.3274172 210.801116,37.9390847 L201.053874,37.9390847 L201.053874,53.3598197 L245.146698,53.3598197 L245.146698,37.9390847 L235.399457,37.9390847 Z" id="Fill-5" fill="#4E5255"></path>
                <path d="M234.787606,77.7126602 C234.787606,71.2579706 229.554944,66.0253087 223.100254,66.0253087 C216.645564,66.0253087 211.412902,71.2579706 211.412902,77.7126602 C211.412902,84.1673499 216.645564,89.4000118 223.100254,89.4000118 C229.554944,89.4000118 234.787606,84.1673499 234.787606,77.7126602" id="Fill-7" fill="#FF5E62"></path>
                <polygon id="Fill-9" fill="#F2F2F2" points="229.470802 75.700903 225.112076 75.700903 225.112076 71.3421762 221.088561 71.3421762 221.088561 75.700903 216.729834 75.700903 216.729834 79.7244175 221.088561 79.7244175 221.088561 84.0831443 225.112076 84.0831443 225.112076 79.7244175 229.470802 79.7244175"></polygon>
                <mask id="mask-2" fill="white">
                    <use xlink:href="#path-1"></use>
                </mask>
                <g id="Clip-12"></g>
                <polygon id="Fill-11" fill="#4E5255" mask="url(#mask-2)" points="186.179075 103.348131 208.225487 103.348131 208.225487 99.119496 186.179075 99.119496"></polygon>
                <polygon id="Fill-13" fill="#B3B3B3" mask="url(#mask-2)" points="186.179075 107.930333 260.021433 107.930333 260.021433 106.071047 186.179075 106.071047"></polygon>
                <polygon id="Fill-14" fill="#B3B3B3" mask="url(#mask-2)" points="186.179075 110.519937 260.021433 110.519937 260.021433 108.660651 186.179075 108.660651"></polygon>
                <polygon id="Fill-15" fill="#B3B3B3" mask="url(#mask-2)" points="186.179075 113.176197 260.021433 113.176197 260.021433 111.316911 186.179075 111.316911"></polygon>
                <polygon id="Fill-16" fill="#B3B3B3" mask="url(#mask-2)" points="186.179075 115.832457 245.146827 115.832457 245.146827 113.973171 186.179075 113.973171"></polygon>
                <polygon id="Fill-17" fill="#4E5255" mask="url(#mask-2)" points="186.179075 125.863389 208.225487 125.863389 208.225487 121.634754 186.179075 121.634754"></polygon>
                <polygon id="Fill-18" fill="#B3B3B3" mask="url(#mask-2)" points="186.179075 130.445591 260.021433 130.445591 260.021433 128.586305 186.179075 128.586305"></polygon>
                <polygon id="Fill-19" fill="#B3B3B3" mask="url(#mask-2)" points="186.179075 133.035517 260.021433 133.035517 260.021433 131.176232 186.179075 131.176232"></polygon>
                <polygon id="Fill-20" fill="#B3B3B3" mask="url(#mask-2)" points="186.179075 135.691777 260.021433 135.691777 260.021433 133.832492 186.179075 133.832492"></polygon>
                <polygon id="Fill-21" fill="#B3B3B3" mask="url(#mask-2)" points="186.179075 138.348037 245.146827 138.348037 245.146827 136.488752 186.179075 136.488752"></polygon>
                <polygon id="Fill-22" fill="#4E5255" mask="url(#mask-2)" points="186.179075 147.543032 208.225487 147.543032 208.225487 143.314397 186.179075 143.314397"></polygon>
                <polygon id="Fill-23" fill="#B3B3B3" mask="url(#mask-2)" points="186.179075 152.125556 260.021433 152.125556 260.021433 150.26627 186.179075 150.26627"></polygon>
                <polygon id="Fill-24" fill="#B3B3B3" mask="url(#mask-2)" points="186.179075 154.71516 260.021433 154.71516 260.021433 152.855874 186.179075 152.855874"></polygon>
                <polygon id="Fill-25" fill="#B3B3B3" mask="url(#mask-2)" points="186.179075 157.37142 260.021433 157.37142 260.021433 155.512134 186.179075 155.512134"></polygon>
                <polygon id="Fill-26" fill="#B3B3B3" mask="url(#mask-2)" points="186.179075 160.02768 245.146827 160.02768 245.146827 158.168395 186.179075 158.168395"></polygon>
                <path d="M41.2039115,62.3254465 C37.890751,62.3254465 35.1948837,65.0209919 35.1948837,68.3344743 C35.1948837,71.6476348 37.890751,74.3428582 41.2039115,74.3428582 L61.0877046,74.3428582 C64.4008651,74.3428582 67.0967325,71.6476348 67.0967325,68.3344743 C67.0967325,65.0209919 64.4008651,62.3254465 61.0877046,62.3254465 L41.2039115,62.3254465 Z M61.0877046,84.0601528 L41.2039115,84.0601528 C32.5325053,84.0601528 25.4779111,77.0055586 25.4779111,68.3344743 C25.4779111,59.6630681 32.5325053,52.6081519 41.2039115,52.6081519 L61.0877046,52.6081519 C69.7591108,52.6081519 76.814027,59.6630681 76.814027,68.3344743 C76.814027,77.0055586 69.7591108,84.0601528 61.0877046,84.0601528 Z" id="Fill-27" fill="#4E5255" mask="url(#mask-2)"></path>
                <path d="M93.2084236,185.906816 L9.08364338,185.906816 C4.06672819,185.906816 6.44019921e-05,181.83983 6.44019921e-05,176.823237 L6.44019921e-05,75.7984076 C6.44019921e-05,70.7818144 4.06672819,66.7148286 9.08364338,66.7148286 L93.2084236,66.7148286 C98.2250167,66.7148286 102.292003,70.7818144 102.292003,75.7984076 L102.292003,176.823237 C102.292003,181.83983 98.2250167,185.906816 93.2084236,185.906816" id="Fill-28" fill="#FF5E62" mask="url(#mask-2)"></path>
                <path d="M73.8812247,122.099157 L28.4108422,122.099157 C13.7777436,122.099157 1.91554065,110.236954 1.91554065,95.6038557 L1.91554065,76.0948822 C1.91554065,71.8089296 5.39002813,68.3341201 9.6759807,68.3341201 L92.6160862,68.3341201 C96.9020388,68.3341201 100.376526,71.8089296 100.376526,76.0948822 L100.376526,95.6038557 C100.376526,110.236954 88.5143234,122.099157 73.8812247,122.099157" id="Fill-29" fill="#FFC371" mask="url(#mask-2)"></path>
                <path d="M29.283779,139.184072 C26.5334919,139.184072 24.303895,136.954475 24.303895,134.204188 L24.303895,108.941218 C24.303895,106.190931 26.5334919,103.961656 29.283779,103.961656 C32.0340661,103.961656 34.2636631,106.190931 34.2636631,108.941218 L34.2636631,134.204188 C34.2636631,136.954475 32.0340661,139.184072 29.283779,139.184072" id="Fill-30" fill="#4E5255" mask="url(#mask-2)"></path>
                <path d="M73.0082557,139.184072 C70.2579686,139.184072 68.0283717,136.954475 68.0283717,134.204188 L68.0283717,108.941218 C68.0283717,106.190931 70.2579686,103.961656 73.0082557,103.961656 C75.7585428,103.961656 77.9881398,106.190931 77.9881398,108.941218 L77.9881398,134.204188 C77.9881398,136.954475 75.7585428,139.184072 73.0082557,139.184072" id="Fill-31" fill="#4E5255" mask="url(#mask-2)"></path>
                <path d="M33.0894215,133.920948 C33.0894215,131.819189 31.3856668,130.115434 29.2839078,130.115434 C27.1818268,130.115434 25.4780721,131.819189 25.4780721,133.920948 C25.4780721,136.022707 27.1818268,137.726462 29.2839078,137.726462 C31.3856668,137.726462 33.0894215,136.022707 33.0894215,133.920948" id="Fill-32" fill="#FFFFFF" mask="url(#mask-2)"></path>
                <path d="M76.8138982,133.920948 C76.8138982,131.819189 75.1101435,130.115434 73.0083845,130.115434 C70.9063035,130.115434 69.2025488,131.819189 69.2025488,133.920948 C69.2025488,136.022707 70.9063035,137.726462 73.0083845,137.726462 C75.1101435,137.726462 76.8138982,136.022707 76.8138982,133.920948" id="Fill-33" fill="#FFFFFF" mask="url(#mask-2)"></path>
                <path d="M82.7216218,146.066648 L19.5703164,146.066648 C13.6656197,146.066648 8.87894165,150.853326 8.87894165,156.758023 L8.87894165,169.383068 C8.87894165,175.287764 13.6656197,180.074442 19.5703164,180.074442 L82.7216218,180.074442 C88.6263184,180.074442 93.4129965,175.287764 93.4129965,169.383068 L93.4129965,156.758023 C93.4129965,150.853326 88.6263184,146.066648 82.7216218,146.066648" id="Fill-34" fill="#0079FF" mask="url(#mask-2)"></path>
                <polygon id="Fill-35" fill="#FFFFFF" mask="url(#mask-2)" points="18.8382267 157.726597 83.4533894 157.726597 83.4533894 153.192053 18.8382267 153.192053"></polygon>
                <path d="M190.999113,201.765001 L73.2548831,201.765001 C69.6844367,201.765001 66.7898892,198.870454 66.7898892,195.300007 L66.7898892,6.46531599 C66.7898892,2.89454754 69.6844367,0 73.2548831,0 L190.999113,0 C194.56956,0 197.464107,2.89454754 197.464107,6.46531599 L197.464107,195.300007 C197.464107,198.870454 194.56956,201.765001 190.999113,201.765001" id="Fill-36" fill="#4E5255" mask="url(#mask-2)"></path>
                <path d="M184.449849,181.101396 L79.8040183,181.101396 C76.6715054,181.101396 74.1318129,178.561704 74.1318129,175.428869 L74.1318129,11.7875932 C74.1318129,8.65475831 76.6715054,6.11506575 79.8040183,6.11506575 L184.449849,6.11506575 C187.582684,6.11506575 190.122377,8.65475831 190.122377,11.7875932 L190.122377,175.428869 C190.122377,178.561704 187.582684,181.101396 184.449849,181.101396" id="Fill-37" fill="#F2F2F2" mask="url(#mask-2)"></path>
                <path d="M151.391985,195.504483 L112.861883,195.504483 C111.019342,195.504483 109.511369,193.996833 109.511369,192.15397 L109.511369,191.819079 C109.511369,189.976216 111.019342,188.468566 112.861883,188.468566 L151.391985,188.468566 C153.234848,188.468566 154.742498,189.976216 154.742498,191.819079 L154.742498,192.15397 C154.742498,193.996833 153.234848,195.504483 151.391985,195.504483" id="Fill-38" fill="#F2F2F2" mask="url(#mask-2)"></path>
                <path d="M99.8966026,21.441645 C99.8966026,17.8232191 96.9630919,14.8897084 93.344666,14.8897084 C89.725918,14.8897084 86.7927293,17.8232191 86.7927293,21.441645 C86.7927293,25.060071 89.725918,27.9935817 93.344666,27.9935817 C96.9630919,27.9935817 99.8966026,25.060071 99.8966026,21.441645" id="Fill-39" fill="#FF5E62" mask="url(#mask-2)"></path>
                <polygon id="Fill-40" fill="#F2F2F2" mask="url(#mask-2)" points="96.916014 20.3138374 94.4726025 20.3138374 94.4726025 17.8701038 92.2169227 17.8701038 92.2169227 20.3138374 89.7731891 20.3138374 89.7731891 22.5695171 92.2169227 22.5695171 92.2169227 25.0129287 94.4726025 25.0129287 94.4726025 22.5695171 96.916014 22.5695171"></polygon>
                <polygon id="Fill-41" fill="#666666" mask="url(#mask-2)" points="103.703952 19.8480499 139.562659 19.8480499 139.562659 15.5096097 103.703952 15.5096097"></polygon>
                <polygon id="Fill-42" fill="#CCCCCC" mask="url(#mask-2)" points="103.70363 23.3009628 166.522943 23.3009628 166.522943 22.0615464 103.70363 22.0615464"></polygon>
                <polygon id="Fill-43" fill="#CCCCCC" mask="url(#mask-2)" points="103.70363 25.6326369 166.522943 25.6326369 166.522943 24.3932205 103.70363 24.3932205"></polygon>
                <polygon id="Fill-44" fill="#CCCCCC" mask="url(#mask-2)" points="103.70363 27.9936139 166.522943 27.9936139 166.522943 26.7541976 103.70363 26.7541976"></polygon>
                <path d="M86.7926649,40.5662996 L176.484031,40.5662996" id="Stroke-45" stroke="#B3B3B3" mask="url(#mask-2)"></path>
                <path d="M106.772997,31.8530965 C106.81035,31.8572826 106.839331,31.8737051 106.860261,31.903008 C106.88087,31.9319889 106.891174,31.9632239 106.891174,31.9963909 C106.891174,32.5193351 106.760438,33.0049261 106.498966,33.453164 C106.24168,33.8888435 105.895197,34.2353262 105.459518,34.4926121 C105.01128,34.7540842 104.525689,34.8848203 104.002745,34.8848203 C103.969578,34.8848203 103.938343,34.874516 103.909362,34.8539073 C103.880381,34.8329767 103.863637,34.8039958 103.85945,34.7666426 L103.710038,34.1190806 C103.701666,34.0859136 103.705852,34.0527465 103.722596,34.0195795 C103.739019,33.9864125 103.764135,33.9635498 103.797302,33.9509914 L104.494454,33.6521661 C104.523435,33.6399298 104.55467,33.6367097 104.587837,33.6428279 C104.621004,33.6492681 104.648053,33.6666566 104.668661,33.6959595 L104.973927,34.069491 C105.218654,33.9574316 105.435689,33.8057649 105.624387,33.614813 C105.813085,33.4238611 105.963786,33.2081144 106.075845,32.967573 L105.702313,32.6561893 C105.677197,32.6355807 105.660774,32.6094979 105.652402,32.5782629 C105.64403,32.54735 105.646284,32.515149 105.65852,32.4819819 L105.957345,31.7845084 C105.969904,31.7555275 105.992766,31.7326648 106.025933,31.7162423 C106.0591,31.6994977 106.092267,31.6953116 106.125435,31.7036839 L106.772997,31.8530965 Z" id="Fill-46" fill="#333333" mask="url(#mask-2)"></path>
                <path d="M111.772072,32.4943149 C111.664199,32.4943149 111.570816,32.5336001 111.491924,32.6124926 C111.413031,32.691385 111.373746,32.7847679 111.373746,32.8926412 C111.373746,33.0005146 111.413031,33.0938975 111.491924,33.1727899 C111.570816,33.2516824 111.664199,33.2912896 111.772072,33.2912896 C111.879946,33.2912896 111.973329,33.2516824 112.052221,33.1727899 C112.131113,33.0938975 112.170399,33.0005146 112.170399,32.8926412 C112.170399,32.7847679 112.131113,32.691385 112.052221,32.6124926 C111.973329,32.5336001 111.879946,32.4943149 111.772072,32.4943149 M112.469224,33.9697646 L112.469224,33.8515869 C112.469224,33.7517638 112.428973,33.6667532 112.347826,33.596233 C112.267002,33.5257128 112.168467,33.4902917 112.052221,33.4902917 L112.020986,33.4902917 C111.942094,33.5234588 111.859337,33.5402033 111.772072,33.5402033 C111.684808,33.5402033 111.602051,33.5234588 111.523159,33.4902917 L111.491924,33.4902917 C111.375678,33.4902917 111.277143,33.5257128 111.196319,33.596233 C111.115172,33.6667532 111.074921,33.7517638 111.074921,33.8515869 L111.074921,33.9697646 C111.074921,34.0029316 111.088445,34.0309465 111.115172,34.0538092 C111.142221,34.0766719 111.174422,34.0879422 111.211775,34.0879422 L112.33237,34.0879422 C112.369723,34.0879422 112.401924,34.0766719 112.428973,34.0538092 C112.4557,34.0309465 112.469224,34.0029316 112.469224,33.9697646 M113.191492,32.6936391 L113.066874,32.6936391 L113.066874,33.0919654 L113.191492,33.0919654 C113.212101,33.0919654 113.229811,33.0993716 113.244302,33.1138621 C113.258792,33.1283525 113.266199,33.1460631 113.266199,33.1666717 L113.266199,33.4155854 C113.266199,33.4365161 113.258792,33.4542266 113.244302,33.4687171 C113.229811,33.4832075 113.212101,33.4902917 113.191492,33.4902917 L113.066874,33.4902917 L113.066874,33.8889401 L113.191492,33.8889401 C113.212101,33.8889401 113.229811,33.8960243 113.244302,33.9105147 C113.258792,33.9250052 113.266199,33.9427157 113.266199,33.9636464 L113.266199,34.2125601 C113.266199,34.2331687 113.258792,34.2508793 113.244302,34.2653697 C113.229811,34.2798602 113.212101,34.2872664 113.191492,34.2872664 L113.066874,34.2872664 L113.066874,34.5860916 C113.066874,34.6691702 113.037894,34.7396904 112.979932,34.7976522 C112.921648,34.855936 112.851128,34.8849169 112.768049,34.8849169 L110.776096,34.8849169 C110.693017,34.8849169 110.622497,34.855936 110.564213,34.7976522 C110.506251,34.7396904 110.47727,34.6691702 110.47727,34.5860916 L110.47727,31.9961655 C110.47727,31.913409 110.506251,31.8425668 110.564213,31.784605 C110.622497,31.7266432 110.693017,31.6973403 110.776096,31.6973403 L112.768049,31.6973403 C112.851128,31.6973403 112.921648,31.7266432 112.979932,31.784605 C113.037894,31.8425668 113.066874,31.913409 113.066874,31.9961655 L113.066874,32.2949908 L113.191492,32.2949908 C113.212101,32.2949908 113.229811,32.302397 113.244302,32.3168874 C113.258792,32.3313779 113.266199,32.3490884 113.266199,32.3696971 L113.266199,32.6189328 C113.266199,32.6395414 113.258792,32.657252 113.244302,32.6717424 C113.229811,32.6862329 113.212101,32.6936391 113.191492,32.6936391" id="Fill-47" fill="#333333" mask="url(#mask-2)"></path>
                <path d="M99.8966026,54.2457657 C99.8966026,50.6273398 96.9630919,47.6938291 93.344666,47.6938291 C89.725918,47.6938291 86.7927293,50.6273398 86.7927293,54.2457657 C86.7927293,57.8641917 89.725918,60.7977024 93.344666,60.7977024 C96.9630919,60.7977024 99.8966026,57.8641917 99.8966026,54.2457657" id="Fill-48" fill="#FF5E62" mask="url(#mask-2)"></path>
                <polygon id="Fill-49" fill="#F2F2F2" mask="url(#mask-2)" points="96.916014 53.1179903 94.4726025 53.1179903 94.4726025 50.6745787 92.2169227 50.6745787 92.2169227 53.1179903 89.7731891 53.1179903 89.7731891 55.37367 92.2169227 55.37367 92.2169227 57.8170816 94.4726025 57.8170816 94.4726025 55.37367 96.916014 55.37367"></polygon>
                <polygon id="Fill-50" fill="#666666" mask="url(#mask-2)" points="103.703952 52.6521707 139.562659 52.6521707 139.562659 48.3137305 103.703952 48.3137305"></polygon>
                <polygon id="Fill-51" fill="#CCCCCC" mask="url(#mask-2)" points="103.70363 56.1050835 166.522943 56.1050835 166.522943 54.8656671 103.70363 54.8656671"></polygon>
                <polygon id="Fill-52" fill="#CCCCCC" mask="url(#mask-2)" points="103.70363 58.4370796 166.522943 58.4370796 166.522943 57.1976633 103.70363 57.1976633"></polygon>
                <polygon id="Fill-53" fill="#CCCCCC" mask="url(#mask-2)" points="103.70363 60.7977346 166.522943 60.7977346 166.522943 59.5583183 103.70363 59.5583183"></polygon>
                <path d="M86.7926649,73.3704525 L176.484031,73.3704525" id="Stroke-54" stroke="#B3B3B3" mask="url(#mask-2)"></path>
                <path d="M106.772997,64.6572494 C106.81035,64.6614355 106.839331,64.677858 106.860261,64.7071609 C106.88087,64.7361418 106.891174,64.7673768 106.891174,64.8005438 C106.891174,65.323488 106.760438,65.809079 106.498966,66.2573169 C106.24168,66.6929964 105.895197,67.0394791 105.459518,67.296765 C105.01128,67.5582371 104.525689,67.6889732 104.002745,67.6889732 C103.969578,67.6889732 103.938343,67.6786689 103.909362,67.6580602 C103.880381,67.6371296 103.863637,67.6081487 103.85945,67.5707955 L103.710038,66.9232335 C103.701666,66.8900665 103.705852,66.8568994 103.722596,66.8237324 C103.739019,66.7905654 103.764135,66.7677027 103.797302,66.7551443 L104.494454,66.456319 C104.523435,66.4440827 104.55467,66.4408626 104.587837,66.4469808 C104.621004,66.453421 104.648053,66.4708095 104.668661,66.5001124 L104.973927,66.873644 C105.218654,66.7615845 105.435689,66.6099178 105.624387,66.4189659 C105.813085,66.228014 105.963786,66.0122673 106.075845,65.7717259 L105.702313,65.4603422 C105.677197,65.4397336 105.660774,65.4136508 105.652402,65.3824158 C105.64403,65.3515029 105.646284,65.3193019 105.65852,65.2861349 L105.957345,64.5886613 C105.969904,64.5596804 105.992766,64.5368177 106.025933,64.5203952 C106.0591,64.5036506 106.092267,64.4994645 106.125435,64.5078368 L106.772997,64.6572494 Z" id="Fill-55" fill="#333333" mask="url(#mask-2)"></path>
                <path d="M111.772072,65.2984678 C111.664199,65.2984678 111.570816,65.337753 111.491924,65.4166455 C111.413031,65.4955379 111.373746,65.5889208 111.373746,65.6967942 C111.373746,65.8046675 111.413031,65.8980504 111.491924,65.9769428 C111.570816,66.0558353 111.664199,66.0954425 111.772072,66.0954425 C111.879946,66.0954425 111.973329,66.0558353 112.052221,65.9769428 C112.131113,65.8980504 112.170399,65.8046675 112.170399,65.6967942 C112.170399,65.5889208 112.131113,65.4955379 112.052221,65.4166455 C111.973329,65.337753 111.879946,65.2984678 111.772072,65.2984678 M112.469224,66.7739175 L112.469224,66.6557398 C112.469224,66.5559167 112.428973,66.4709061 112.347826,66.4003859 C112.267002,66.3298657 112.168467,66.2944446 112.052221,66.2944446 L112.020986,66.2944446 C111.942094,66.3276117 111.859337,66.3443562 111.772072,66.3443562 C111.684808,66.3443562 111.602051,66.3276117 111.523159,66.2944446 L111.491924,66.2944446 C111.375678,66.2944446 111.277143,66.3298657 111.196319,66.4003859 C111.115172,66.4709061 111.074921,66.5559167 111.074921,66.6557398 L111.074921,66.7739175 C111.074921,66.8070845 111.088445,66.8350994 111.115172,66.8579621 C111.142221,66.8808248 111.174422,66.8920951 111.211775,66.8920951 L112.33237,66.8920951 C112.369723,66.8920951 112.401924,66.8808248 112.428973,66.8579621 C112.4557,66.8350994 112.469224,66.8070845 112.469224,66.7739175 M113.191492,65.497792 L113.066874,65.497792 L113.066874,65.8961183 L113.191492,65.8961183 C113.212101,65.8961183 113.229811,65.9035246 113.244302,65.918015 C113.258792,65.9325054 113.266199,65.950216 113.266199,65.9708246 L113.266199,66.2197383 C113.266199,66.240669 113.258792,66.2583795 113.244302,66.27287 C113.229811,66.2873604 113.212101,66.2944446 113.191492,66.2944446 L113.066874,66.2944446 L113.066874,66.693093 L113.191492,66.693093 C113.212101,66.693093 113.229811,66.7001772 113.244302,66.7146676 C113.258792,66.7291581 113.266199,66.7468686 113.266199,66.7677993 L113.266199,67.016713 C113.266199,67.0373216 113.258792,67.0550322 113.244302,67.0695226 C113.229811,67.0840131 113.212101,67.0914193 113.191492,67.0914193 L113.066874,67.0914193 L113.066874,67.3902445 C113.066874,67.4733231 113.037894,67.5438433 112.979932,67.6018051 C112.921648,67.6600889 112.851128,67.6890698 112.768049,67.6890698 L110.776096,67.6890698 C110.693017,67.6890698 110.622497,67.6600889 110.564213,67.6018051 C110.506251,67.5438433 110.47727,67.4733231 110.47727,67.3902445 L110.47727,64.8003184 C110.47727,64.7175619 110.506251,64.6467197 110.564213,64.5887579 C110.622497,64.5307961 110.693017,64.5014932 110.776096,64.5014932 L112.768049,64.5014932 C112.851128,64.5014932 112.921648,64.5307961 112.979932,64.5887579 C113.037894,64.6467197 113.066874,64.7175619 113.066874,64.8003184 L113.066874,65.0991437 L113.191492,65.0991437 C113.212101,65.0991437 113.229811,65.1065499 113.244302,65.1210403 C113.258792,65.1355308 113.266199,65.1532413 113.266199,65.17385 L113.266199,65.4230857 C113.266199,65.4436943 113.258792,65.4614049 113.244302,65.4758953 C113.229811,65.4903858 113.212101,65.497792 113.191492,65.497792" id="Fill-56" fill="#333333" mask="url(#mask-2)"></path>
                <path d="M99.8966026,86.7842926 C99.8966026,83.1658667 96.9630919,80.232356 93.344666,80.232356 C89.725918,80.232356 86.7927293,83.1658667 86.7927293,86.7842926 C86.7927293,90.4027186 89.725918,93.3362293 93.344666,93.3362293 C96.9630919,93.3362293 99.8966026,90.4027186 99.8966026,86.7842926" id="Fill-57" fill="#FF5E62" mask="url(#mask-2)"></path>
                <polygon id="Fill-58" fill="#F2F2F2" mask="url(#mask-2)" points="96.916014 85.656485 94.4726025 85.656485 94.4726025 83.2130734 92.2169227 83.2130734 92.2169227 85.656485 89.7731891 85.656485 89.7731891 87.9121647 92.2169227 87.9121647 92.2169227 90.3555763 94.4726025 90.3555763 94.4726025 87.9121647 96.916014 87.9121647"></polygon>
                <polygon id="Fill-59" fill="#666666" mask="url(#mask-2)" points="103.703952 85.1906331 139.562659 85.1906331 139.562659 80.8521929 103.703952 80.8521929"></polygon>
                <polygon id="Fill-60" fill="#CCCCCC" mask="url(#mask-2)" points="103.70363 88.643546 166.522943 88.643546 166.522943 87.4041296 103.70363 87.4041296"></polygon>
                <polygon id="Fill-61" fill="#CCCCCC" mask="url(#mask-2)" points="103.70363 90.9755421 166.522943 90.9755421 166.522943 89.7361257 103.70363 89.7361257"></polygon>
                <polygon id="Fill-62" fill="#CCCCCC" mask="url(#mask-2)" points="103.70363 93.3361971 166.522943 93.3361971 166.522943 92.0967808 103.70363 92.0967808"></polygon>
                <path d="M86.7926649,105.908979 L176.484031,105.908979" id="Stroke-63" stroke="#B3B3B3" mask="url(#mask-2)"></path>
                <path d="M106.772997,97.1957763 C106.81035,97.1999624 106.839331,97.2163849 106.860261,97.2456878 C106.88087,97.2746687 106.891174,97.3059037 106.891174,97.3390707 C106.891174,97.8620149 106.760438,98.3476059 106.498966,98.7958438 C106.24168,99.2315233 105.895197,99.578006 105.459518,99.8352919 C105.01128,100.096764 104.525689,100.2275 104.002745,100.2275 C103.969578,100.2275 103.938343,100.217196 103.909362,100.196587 C103.880381,100.175656 103.863637,100.146676 103.85945,100.109322 L103.710038,99.4617604 C103.701666,99.4285934 103.705852,99.3954263 103.722596,99.3622593 C103.739019,99.3290923 103.764135,99.3062296 103.797302,99.2936712 L104.494454,98.9948459 C104.523435,98.9826096 104.55467,98.9793895 104.587837,98.9855077 C104.621004,98.9919479 104.648053,99.0093364 104.668661,99.0386393 L104.973927,99.4121709 C105.218654,99.3001114 105.435689,99.1484447 105.624387,98.9574928 C105.813085,98.7665409 105.963786,98.5507942 106.075845,98.3102528 L105.702313,97.9988691 C105.677197,97.9782605 105.660774,97.9521777 105.652402,97.9209427 C105.64403,97.8900298 105.646284,97.8578288 105.65852,97.8246617 L105.957345,97.1271882 C105.969904,97.0982073 105.992766,97.0753446 106.025933,97.0589221 C106.0591,97.0421775 106.092267,97.0379914 106.125435,97.0463637 L106.772997,97.1957763 Z" id="Fill-64" fill="#333333" mask="url(#mask-2)"></path>
                <path d="M111.772072,97.8369947 C111.664199,97.8369947 111.570816,97.8762799 111.491924,97.9551724 C111.413031,98.0340648 111.373746,98.1274477 111.373746,98.235321 C111.373746,98.3431944 111.413031,98.4365773 111.491924,98.5154697 C111.570816,98.5943622 111.664199,98.6339694 111.772072,98.6339694 C111.879946,98.6339694 111.973329,98.5943622 112.052221,98.5154697 C112.131113,98.4365773 112.170399,98.3431944 112.170399,98.235321 C112.170399,98.1274477 112.131113,98.0340648 112.052221,97.9551724 C111.973329,97.8762799 111.879946,97.8369947 111.772072,97.8369947 M112.469224,99.3124444 L112.469224,99.1942667 C112.469224,99.0944436 112.428973,99.009433 112.347826,98.9389128 C112.267002,98.8683926 112.168467,98.8329715 112.052221,98.8329715 L112.020986,98.8329715 C111.942094,98.8661386 111.859337,98.8828831 111.772072,98.8828831 C111.684808,98.8828831 111.602051,98.8661386 111.523159,98.8329715 L111.491924,98.8329715 C111.375678,98.8329715 111.277143,98.8683926 111.196319,98.9389128 C111.115172,99.009433 111.074921,99.0944436 111.074921,99.1942667 L111.074921,99.3124444 C111.074921,99.3456114 111.088445,99.3736263 111.115172,99.396489 C111.142221,99.4193517 111.174422,99.430622 111.211775,99.430622 L112.33237,99.430622 C112.369723,99.430622 112.401924,99.4193517 112.428973,99.396489 C112.4557,99.3736263 112.469224,99.3456114 112.469224,99.3124444 M113.191492,98.0363189 L113.066874,98.0363189 L113.066874,98.4346452 L113.191492,98.4346452 C113.212101,98.4346452 113.229811,98.4420514 113.244302,98.4565419 C113.258792,98.4710323 113.266199,98.4887429 113.266199,98.5093515 L113.266199,98.7582652 C113.266199,98.7791959 113.258792,98.7969064 113.244302,98.8113969 C113.229811,98.8258873 113.212101,98.8329715 113.191492,98.8329715 L113.066874,98.8329715 L113.066874,99.2316199 L113.191492,99.2316199 C113.212101,99.2316199 113.229811,99.2387041 113.244302,99.2531945 C113.258792,99.267685 113.266199,99.2853955 113.266199,99.3063262 L113.266199,99.5552399 C113.266199,99.5758485 113.258792,99.5935591 113.244302,99.6080495 C113.229811,99.62254 113.212101,99.6299462 113.191492,99.6299462 L113.066874,99.6299462 L113.066874,99.9287714 C113.066874,100.01185 113.037894,100.08237 112.979932,100.140332 C112.921648,100.198616 112.851128,100.227597 112.768049,100.227597 L110.776096,100.227597 C110.693017,100.227597 110.622497,100.198616 110.564213,100.140332 C110.506251,100.08237 110.47727,100.01185 110.47727,99.9287714 L110.47727,97.3388453 C110.47727,97.2560888 110.506251,97.1852466 110.564213,97.1272848 C110.622497,97.069323 110.693017,97.0400201 110.776096,97.0400201 L112.768049,97.0400201 C112.851128,97.0400201 112.921648,97.069323 112.979932,97.1272848 C113.037894,97.1852466 113.066874,97.2560888 113.066874,97.3388453 L113.066874,97.6376706 L113.191492,97.6376706 C113.212101,97.6376706 113.229811,97.6450768 113.244302,97.6595672 C113.258792,97.6740577 113.266199,97.6917682 113.266199,97.7123769 L113.266199,97.9616126 C113.266199,97.9822212 113.258792,97.9999318 113.244302,98.0144222 C113.229811,98.0289127 113.212101,98.0363189 113.191492,98.0363189" id="Fill-65" fill="#333333" mask="url(#mask-2)"></path>
                <path d="M99.8966026,119.588413 C99.8966026,115.969987 96.9630919,113.036477 93.344666,113.036477 C89.725918,113.036477 86.7927293,115.969987 86.7927293,119.588413 C86.7927293,123.206839 89.725918,126.14035 93.344666,126.14035 C96.9630919,126.14035 99.8966026,123.206839 99.8966026,119.588413" id="Fill-66" fill="#FF5E62" mask="url(#mask-2)"></path>
                <polygon id="Fill-67" fill="#F2F2F2" mask="url(#mask-2)" points="96.916014 118.460638 94.4726025 118.460638 94.4726025 116.017226 92.2169227 116.017226 92.2169227 118.460638 89.7731891 118.460638 89.7731891 120.716318 92.2169227 120.716318 92.2169227 123.159729 94.4726025 123.159729 94.4726025 120.716318 96.916014 120.716318"></polygon>
                <polygon id="Fill-68" fill="#666666" mask="url(#mask-2)" points="103.703952 117.994754 139.562659 117.994754 139.562659 113.656314 103.703952 113.656314"></polygon>
                <polygon id="Fill-69" fill="#CCCCCC" mask="url(#mask-2)" points="103.70363 121.447667 166.522943 121.447667 166.522943 120.20825 103.70363 120.20825"></polygon>
                <polygon id="Fill-70" fill="#CCCCCC" mask="url(#mask-2)" points="103.70363 123.779663 166.522943 123.779663 166.522943 122.540246 103.70363 122.540246"></polygon>
                <polygon id="Fill-71" fill="#CCCCCC" mask="url(#mask-2)" points="103.70363 126.140318 166.522943 126.140318 166.522943 124.900901 103.70363 124.900901"></polygon>
                <path d="M86.7926649,138.7131 L176.484031,138.7131" id="Stroke-72" stroke="#B3B3B3" mask="url(#mask-2)"></path>
                <path d="M106.772997,129.999897 C106.81035,130.004083 106.839331,130.020506 106.860261,130.049809 C106.88087,130.078789 106.891174,130.110024 106.891174,130.143191 C106.891174,130.666136 106.760438,131.151727 106.498966,131.599964 C106.24168,132.035644 105.895197,132.382127 105.459518,132.639413 C105.01128,132.900885 104.525689,133.031621 104.002745,133.031621 C103.969578,133.031621 103.938343,133.021316 103.909362,133.000708 C103.880381,132.979777 103.863637,132.950796 103.85945,132.913443 L103.710038,132.265881 C103.701666,132.232714 103.705852,132.199547 103.722596,132.16638 C103.739019,132.133213 103.764135,132.11035 103.797302,132.097792 L104.494454,131.798967 C104.523435,131.78673 104.55467,131.78351 104.587837,131.789628 C104.621004,131.796069 104.648053,131.813457 104.668661,131.84276 L104.973927,132.216292 C105.218654,132.104232 105.435689,131.952565 105.624387,131.761613 C105.813085,131.570662 105.963786,131.354915 106.075845,131.114373 L105.702313,130.80299 C105.677197,130.782381 105.660774,130.756298 105.652402,130.725063 C105.64403,130.69415 105.646284,130.661949 105.65852,130.628782 L105.957345,129.931309 C105.969904,129.902328 105.992766,129.879465 106.025933,129.863043 C106.0591,129.846298 106.092267,129.842112 106.125435,129.850484 L106.772997,129.999897 Z" id="Fill-73" fill="#333333" mask="url(#mask-2)"></path>
                <path d="M111.772072,130.641115 C111.664199,130.641115 111.570816,130.680401 111.491924,130.759293 C111.413031,130.838186 111.373746,130.931568 111.373746,131.039442 C111.373746,131.147315 111.413031,131.240698 111.491924,131.31959 C111.570816,131.398483 111.664199,131.43809 111.772072,131.43809 C111.879946,131.43809 111.973329,131.398483 112.052221,131.31959 C112.131113,131.240698 112.170399,131.147315 112.170399,131.039442 C112.170399,130.931568 112.131113,130.838186 112.052221,130.759293 C111.973329,130.680401 111.879946,130.641115 111.772072,130.641115 M112.469224,132.116565 L112.469224,131.998387 C112.469224,131.898564 112.428973,131.813554 112.347826,131.743034 C112.267002,131.672513 112.168467,131.637092 112.052221,131.637092 L112.020986,131.637092 C111.942094,131.670259 111.859337,131.687004 111.772072,131.687004 C111.684808,131.687004 111.602051,131.670259 111.523159,131.637092 L111.491924,131.637092 C111.375678,131.637092 111.277143,131.672513 111.196319,131.743034 C111.115172,131.813554 111.074921,131.898564 111.074921,131.998387 L111.074921,132.116565 C111.074921,132.149732 111.088445,132.177747 111.115172,132.20061 C111.142221,132.223472 111.174422,132.234743 111.211775,132.234743 L112.33237,132.234743 C112.369723,132.234743 112.401924,132.223472 112.428973,132.20061 C112.4557,132.177747 112.469224,132.149732 112.469224,132.116565 M113.191492,130.84044 L113.066874,130.84044 L113.066874,131.238766 L113.191492,131.238766 C113.212101,131.238766 113.229811,131.246172 113.244302,131.260663 C113.258792,131.275153 113.266199,131.292864 113.266199,131.313472 L113.266199,131.562386 C113.266199,131.583317 113.258792,131.601027 113.244302,131.615518 C113.229811,131.630008 113.212101,131.637092 113.191492,131.637092 L113.066874,131.637092 L113.066874,132.035741 L113.191492,132.035741 C113.212101,132.035741 113.229811,132.042825 113.244302,132.057315 C113.258792,132.071806 113.266199,132.089516 113.266199,132.110447 L113.266199,132.359361 C113.266199,132.379969 113.258792,132.39768 113.244302,132.41217 C113.229811,132.426661 113.212101,132.434067 113.191492,132.434067 L113.066874,132.434067 L113.066874,132.732892 C113.066874,132.815971 113.037894,132.886491 112.979932,132.944453 C112.921648,133.002736 112.851128,133.031717 112.768049,133.031717 L110.776096,133.031717 C110.693017,133.031717 110.622497,133.002736 110.564213,132.944453 C110.506251,132.886491 110.47727,132.815971 110.47727,132.732892 L110.47727,130.142966 C110.47727,130.060209 110.506251,129.989367 110.564213,129.931405 C110.622497,129.873444 110.693017,129.844141 110.776096,129.844141 L112.768049,129.844141 C112.851128,129.844141 112.921648,129.873444 112.979932,129.931405 C113.037894,129.989367 113.066874,130.060209 113.066874,130.142966 L113.066874,130.441791 L113.191492,130.441791 C113.212101,130.441791 113.229811,130.449197 113.244302,130.463688 C113.258792,130.478178 113.266199,130.495889 113.266199,130.516498 L113.266199,130.765733 C113.266199,130.786342 113.258792,130.804052 113.244302,130.818543 C113.229811,130.833033 113.212101,130.84044 113.191492,130.84044" id="Fill-74" fill="#333333" mask="url(#mask-2)"></path>
                <path d="M99.8966026,151.583065 C99.8966026,147.964639 96.9630919,145.031129 93.344666,145.031129 C89.725918,145.031129 86.7927293,147.964639 86.7927293,151.583065 C86.7927293,155.201491 89.725918,158.135002 93.344666,158.135002 C96.9630919,158.135002 99.8966026,155.201491 99.8966026,151.583065" id="Fill-75" fill="#FF5E62" mask="url(#mask-2)"></path>
                <polygon id="Fill-76" fill="#F2F2F2" mask="url(#mask-2)" points="96.916014 150.45529 94.4726025 150.45529 94.4726025 148.011878 92.2169227 148.011878 92.2169227 150.45529 89.7731891 150.45529 89.7731891 152.71097 92.2169227 152.71097 92.2169227 155.154381 94.4726025 155.154381 94.4726025 152.71097 96.916014 152.71097"></polygon>
                <polygon id="Fill-77" fill="#666666" mask="url(#mask-2)" points="103.703952 149.989342 139.562659 149.989342 139.562659 145.650901 103.703952 145.650901"></polygon>
                <polygon id="Fill-78" fill="#CCCCCC" mask="url(#mask-2)" points="103.70363 153.442576 166.522943 153.442576 166.522943 152.20316 103.70363 152.20316"></polygon>
                <polygon id="Fill-79" fill="#CCCCCC" mask="url(#mask-2)" points="103.70363 155.77425 166.522943 155.77425 166.522943 154.534834 103.70363 154.534834"></polygon>
                <polygon id="Fill-80" fill="#CCCCCC" mask="url(#mask-2)" points="103.70363 158.134905 166.522943 158.134905 166.522943 156.895489 103.70363 156.895489"></polygon>
                <path d="M86.7926649,170.707752 L176.484031,170.707752" id="Stroke-81" stroke="#B3B3B3" mask="url(#mask-2)"></path>
                <path d="M106.772997,161.994549 C106.81035,161.998735 106.839331,162.015158 106.860261,162.044461 C106.88087,162.073442 106.891174,162.104676 106.891174,162.137844 C106.891174,162.660788 106.760438,163.146379 106.498966,163.594617 C106.24168,164.030296 105.895197,164.376779 105.459518,164.634065 C105.01128,164.895537 104.525689,165.026273 104.002745,165.026273 C103.969578,165.026273 103.938343,165.015969 103.909362,164.99536 C103.880381,164.974429 103.863637,164.945448 103.85945,164.908095 L103.710038,164.260533 C103.701666,164.227366 103.705852,164.194199 103.722596,164.161032 C103.739019,164.127865 103.764135,164.105002 103.797302,164.092444 L104.494454,163.793619 C104.523435,163.781382 104.55467,163.778162 104.587837,163.78428 C104.621004,163.790721 104.648053,163.808109 104.668661,163.837412 L104.973927,164.210944 C105.218654,164.098884 105.435689,163.947217 105.624387,163.756266 C105.813085,163.565314 105.963786,163.349567 106.075845,163.109026 L105.702313,162.797642 C105.677197,162.777033 105.660774,162.75095 105.652402,162.719716 C105.64403,162.688803 105.646284,162.656602 105.65852,162.623435 L105.957345,161.925961 C105.969904,161.89698 105.992766,161.874117 106.025933,161.857695 C106.0591,161.84095 106.092267,161.836764 106.125435,161.845136 L106.772997,161.994549 Z" id="Fill-82" fill="#333333" mask="url(#mask-2)"></path>
                <path d="M111.772072,162.635768 C111.664199,162.635768 111.570816,162.675053 111.491924,162.753945 C111.413031,162.832838 111.373746,162.92622 111.373746,163.034094 C111.373746,163.141967 111.413031,163.23535 111.491924,163.314242 C111.570816,163.393135 111.664199,163.432742 111.772072,163.432742 C111.879946,163.432742 111.973329,163.393135 112.052221,163.314242 C112.131113,163.23535 112.170399,163.141967 112.170399,163.034094 C112.170399,162.92622 112.131113,162.832838 112.052221,162.753945 C111.973329,162.675053 111.879946,162.635768 111.772072,162.635768 M112.469224,164.111217 L112.469224,163.993039 C112.469224,163.893216 112.428973,163.808206 112.347826,163.737686 C112.267002,163.667165 112.168467,163.631744 112.052221,163.631744 L112.020986,163.631744 C111.942094,163.664911 111.859337,163.681656 111.772072,163.681656 C111.684808,163.681656 111.602051,163.664911 111.523159,163.631744 L111.491924,163.631744 C111.375678,163.631744 111.277143,163.667165 111.196319,163.737686 C111.115172,163.808206 111.074921,163.893216 111.074921,163.993039 L111.074921,164.111217 C111.074921,164.144384 111.088445,164.172399 111.115172,164.195262 C111.142221,164.218124 111.174422,164.229395 111.211775,164.229395 L112.33237,164.229395 C112.369723,164.229395 112.401924,164.218124 112.428973,164.195262 C112.4557,164.172399 112.469224,164.144384 112.469224,164.111217 M113.191492,162.835092 L113.066874,162.835092 L113.066874,163.233418 L113.191492,163.233418 C113.212101,163.233418 113.229811,163.240824 113.244302,163.255315 C113.258792,163.269805 113.266199,163.287516 113.266199,163.308124 L113.266199,163.557038 C113.266199,163.577969 113.258792,163.595679 113.244302,163.61017 C113.229811,163.62466 113.212101,163.631744 113.191492,163.631744 L113.066874,163.631744 L113.066874,164.030393 L113.191492,164.030393 C113.212101,164.030393 113.229811,164.037477 113.244302,164.051967 C113.258792,164.066458 113.266199,164.084168 113.266199,164.105099 L113.266199,164.354013 C113.266199,164.374621 113.258792,164.392332 113.244302,164.406822 C113.229811,164.421313 113.212101,164.428719 113.191492,164.428719 L113.066874,164.428719 L113.066874,164.727544 C113.066874,164.810623 113.037894,164.881143 112.979932,164.939105 C112.921648,164.997389 112.851128,165.026369 112.768049,165.026369 L110.776096,165.026369 C110.693017,165.026369 110.622497,164.997389 110.564213,164.939105 C110.506251,164.881143 110.47727,164.810623 110.47727,164.727544 L110.47727,162.137618 C110.47727,162.054862 110.506251,161.984019 110.564213,161.926058 C110.622497,161.868096 110.693017,161.838793 110.776096,161.838793 L112.768049,161.838793 C112.851128,161.838793 112.921648,161.868096 112.979932,161.926058 C113.037894,161.984019 113.066874,162.054862 113.066874,162.137618 L113.066874,162.436443 L113.191492,162.436443 C113.212101,162.436443 113.229811,162.44385 113.244302,162.45834 C113.258792,162.47283 113.266199,162.490541 113.266199,162.51115 L113.266199,162.760385 C113.266199,162.780994 113.258792,162.798705 113.244302,162.813195 C113.229811,162.827685 113.212101,162.835092 113.191492,162.835092" id="Fill-83" fill="#333333" mask="url(#mask-2)"></path>
            </g>
        </g>
    </g>
</svg>