<?xml version="1.0" encoding="UTF-8"?>
<svg width="70px" height="70px" viewBox="0 0 70 70" version="1.1" xmlns="http://www.w3.org/2000/svg" xmlns:xlink="http://www.w3.org/1999/xlink">
    <!-- Generator: Sketch 52.2 (67145) - http://www.bohemiancoding.com/sketch -->
    <title>notification_icon@1x</title>
    <desc>Created with Sketch.</desc>
    <defs>
        <polygon id="path-1" points="0 0.294023924 69.1242078 0.294023924 69.1242078 69.4179254 0 69.4179254"></polygon>
    </defs>
    <g id="Mockups" stroke="none" stroke-width="1" fill="none" fill-rule="evenodd">
        <g id="Frontpage---Desktop" transform="translate(-745.000000, -786.000000)">
            <g id="notification_icon" transform="translate(745.871498, 785.686681)">
                <g id="Group-3" transform="translate(0.000000, 0.727199)">
                    <mask id="mask-2" fill="white">
                        <use xlink:href="#path-1"></use>
                    </mask>
                    <g id="Clip-2"></g>
                    <path d="M34.5621039,0.293717649 C15.4740299,0.293717649 0,15.7677476 0,34.8558215 C0,53.9438955 15.4740299,69.4179254 34.5621039,69.4179254 C53.6501779,69.4179254 69.1242078,53.9438955 69.1242078,34.8558215 C69.1242078,15.7677476 53.6501779,0.293717649 34.5621039,0.293717649 M34.5621039,5.39829966 C50.8048838,5.39829966 64.0196258,18.6130416 64.0196258,34.8558215 C64.0196258,51.0986015 50.8048838,64.3133434 34.5621039,64.3133434 C18.3193239,64.3133434 5.10458201,51.0986015 5.10458201,34.8558215 C5.10458201,18.6130416 18.3193239,5.39829966 34.5621039,5.39829966" id="Fill-1" fill="#FF5E62" mask="url(#mask-2)"></path>
                </g>
                <path d="M69.120022,35.5812847 C69.120022,54.6724215 53.6531385,70.1495141 34.5620018,70.1495141 C16.3080165,70.1495141 1.36180039,55.9894036 0.0958640502,38.0621116 C2.85233834,39.7976695 5.89466922,41.0840241 9.15139254,41.8395023 C8.66135267,39.8385061 8.3959144,37.7354183 8.3959144,35.5812847 C8.3959144,21.1353176 20.1058255,9.41519734 34.5620018,9.41519734 C38.7579682,9.41519734 42.7191238,10.4054862 46.2310763,12.1614625 C46.2004488,8.77202 45.6083173,5.51529668 44.536355,2.48317497 C58.7577205,6.76081469 69.120022,19.9612638 69.120022,35.5812847" id="Fill-4" fill="#0079FF"></path>
                <path d="M60.7280892,35.5812847 C60.7280892,50.037461 49.018178,61.7473721 34.5620018,61.7473721 C22.2599591,61.7473721 11.9487035,53.273766 9.15139254,41.8395023 C8.66135267,39.8385061 8.3959144,37.7354183 8.3959144,35.5812847 C8.3959144,21.1353176 20.1058255,9.41519734 34.5620018,9.41519734 C38.7579682,9.41519734 42.7191238,10.4054862 46.2310763,12.1614625 C54.8271924,16.4391022 60.7280892,25.3210749 60.7280892,35.5812847" id="Fill-6" fill="#2B30C9"></path>
                <polygon id="Fill-8" fill="#FFC371" points="42.046442 28.0944964 19.3065501 20.3294062 27.0706193 43.07134 49.8105113 50.8364302"></polygon>
                <path d="M37.0308839,35.5831224 C37.0308839,34.2181571 35.9242105,33.1104629 34.5582244,33.1104629 C33.1932592,33.1104629 32.0865858,34.2181571 32.0865858,35.5831224 C32.0865858,36.9480876 33.1932592,38.0557819 34.5582244,38.0557819 C35.9242105,38.0557819 37.0308839,36.9480876 37.0308839,35.5831224" id="Fill-10" fill="#FFFFFF"></path>
            </g>
        </g>
    </g>
</svg>