<?xml version="1.0" encoding="UTF-8"?>
<svg width="60px" height="73px" viewBox="0 0 60 73" version="1.1" xmlns="http://www.w3.org/2000/svg" xmlns:xlink="http://www.w3.org/1999/xlink">
    <!-- Generator: Sketch 52.2 (67145) - http://www.bohemiancoding.com/sketch -->
    <title>person_icon@1x</title>
    <desc>Created with Sketch.</desc>
    <defs>
        <polygon id="path-1" points="0.0002 0.499 58.73 0.499 58.73 59.2287 0.0002 59.2287"></polygon>
    </defs>
    <g id="Mockups" stroke="none" stroke-width="1" fill="none" fill-rule="evenodd">
        <g id="Frontpage---Desktop" transform="translate(-212.000000, -785.000000)">
            <g id="person_icon" transform="translate(212.309567, 784.186681)">
                <g id="Group-3" transform="translate(0.000000, 0.501300)">
                    <mask id="mask-2" fill="white">
                        <use xlink:href="#path-1"></use>
                    </mask>
                    <g id="Clip-2"></g>
                    <path d="M29.3652,0.4987 C13.1472,0.4987 0.0002,13.6457 0.0002,29.8637 C0.0002,46.0817 13.1472,59.2287 29.3652,59.2287 C45.5832,59.2287 58.7302,46.0817 58.7302,29.8637 C58.7302,13.6457 45.5832,0.4987 29.3652,0.4987 M29.3652,5.4987 C42.8002,5.4987 53.7302,16.4287 53.7302,29.8637 C53.7302,43.2987 42.8002,54.2287 29.3652,54.2287 C15.9302,54.2287 5.0002,43.2987 5.0002,29.8637 C5.0002,16.4287 15.9302,5.4987 29.3652,5.4987" id="Fill-1" fill="#FF5E62" mask="url(#mask-2)"></path>
                </g>
                <path d="M43.7809,66.6208 C43.7809,58.6588 37.3269,52.2048 29.3649,52.2048 C21.4039,52.2048 14.9499,58.6588 14.9499,66.6208 C14.9499,74.5828 21.4039,73.4448 29.3649,73.4448 C37.3269,73.4448 43.7809,74.5828 43.7809,66.6208" id="Fill-4" fill="#0079FF"></path>
                <path d="M58.4255,34.6041 C56.9235,45.0001 49.9725,53.6491 40.5555,57.5321 C37.0965,58.9521 33.3265,59.7361 29.3605,59.7361 C25.3955,59.7361 21.6255,58.9521 18.1815,57.5321 C7.5095,53.1271 0.0025,42.6171 0.0025,30.3611 C0.0025,14.2381 12.9765,1.1651 29.0675,1.0031 C27.9415,3.8421 27.3205,6.9591 27.3205,10.2061 C27.3205,24.0781 38.5645,35.3221 52.4365,35.3221 C54.4925,35.3221 56.4995,35.0771 58.4255,34.6041" id="Fill-6" fill="#0079FF"></path>
                <path d="M40.4859,40.1694 C40.4859,34.8104 35.5069,36.8674 29.3649,36.8674 C23.2239,36.8674 18.2449,34.8104 18.2449,40.1694 C18.2449,45.5284 23.2239,49.8724 29.3649,49.8724 C35.5069,49.8724 40.4859,45.5284 40.4859,40.1694" id="Fill-8" fill="#FFC371"></path>
            </g>
        </g>
    </g>
</svg>