<?xml version="1.0" encoding="UTF-8"?>
<svg width="85px" height="88px" viewBox="0 0 85 88" version="1.1" xmlns="http://www.w3.org/2000/svg" xmlns:xlink="http://www.w3.org/1999/xlink">
    <!-- Generator: Sketch 52.2 (67145) - http://www.bohemiancoding.com/sketch -->
    <title>pie@1x</title>
    <desc>Created with Sketch.</desc>
    <defs>
        <polygon id="path-1" points="0 0.441 78.5595 0.441 78.5595 79 0 79"></polygon>
        <polygon id="path-3" points="0 0.41 78.5898 0.41 78.5898 79 0 79"></polygon>
    </defs>
    <g id="Mockups" stroke="none" stroke-width="1" fill="none" fill-rule="evenodd">
        <g id="Partners---Desktop" transform="translate(-791.000000, -288.000000)">
            <g id="pie" transform="translate(791.867079, 288.390044)">
                <g id="Group-3" transform="translate(0.000000, 8.665500)">
                    <mask id="mask-2" fill="white">
                        <use xlink:href="#path-1"></use>
                    </mask>
                    <g id="Clip-2"></g>
                    <path d="M39.2795,0.441 C17.5855,0.441 -0.0005,18.027 -0.0005,39.72 C-0.0005,61.414 17.5855,79 39.2795,79 C60.9725,79 78.5595,61.414 78.5595,39.72 C78.5595,18.027 60.9725,0.441 39.2795,0.441 M39.2795,5.441 C58.1815,5.441 73.5595,20.819 73.5595,39.72 C73.5595,58.622 58.1815,74 39.2795,74 C20.3775,74 4.9995,58.622 4.9995,39.72 C4.9995,20.819 20.3775,5.441 39.2795,5.441" id="Fill-1" fill="#FF5E62" mask="url(#mask-2)"></path>
                </g>
                <g id="Group-6" transform="translate(0.000000, 8.665500)">
                    <mask id="mask-4" fill="white">
                        <use xlink:href="#path-3"></use>
                    </mask>
                    <g id="Clip-5"></g>
                    <path d="M78.5898,39.71 C78.5898,61.41 60.9998,79 39.2998,79 C17.5898,79 -0.0002,61.41 -0.0002,39.71 C-0.0002,18 17.5898,0.41 39.2998,0.41 L39.2998,43.12 L77.1998,29.32 C78.1098,32.63 78.5898,36.11 78.5898,39.71" id="Fill-4" fill="#0079FF" mask="url(#mask-4)"></path>
                </g>
                <path d="M83.7,28.9099 L45.8,42.7099 L45.8,-0.0001 C63.91,-0.0001 79.15,12.2399 83.7,28.9099" id="Fill-7" fill="#FFC371"></path>
                <path d="M33.5495,52.0755 C33.5495,44.8755 27.7125,39.0395 20.5135,39.0395 C13.3135,39.0395 7.4765,44.8755 7.4765,52.0755 C7.4765,59.2755 13.3135,65.1115 20.5135,65.1115 C27.7125,65.1115 33.5495,59.2755 33.5495,52.0755" id="Fill-9" fill="#FFFFFF"></path>
                <path d="M19.3806,47.8661 C19.3806,46.5011 18.2746,45.3951 16.9096,45.3951 C15.5446,45.3951 14.4376,46.5011 14.4376,47.8661 C14.4376,49.2311 15.5446,50.3371 16.9096,50.3371 C18.2746,50.3371 19.3806,49.2311 19.3806,47.8661" id="Fill-11" fill="#FF5E62"></path>
                <path d="M26.5885,56.2848 C26.5885,54.9198 25.4825,53.8138 24.1175,53.8138 C22.7525,53.8138 21.6455,54.9198 21.6455,56.2848 C21.6455,57.6498 22.7525,58.7558 24.1175,58.7558 C25.4825,58.7558 26.5885,57.6498 26.5885,56.2848" id="Fill-13" fill="#FF5E62"></path>
                <path d="M15.7047,58.7561 C15.4057,58.7561 15.1057,58.6511 14.8637,58.4361 C14.3407,57.9711 14.2927,57.1701 14.7577,56.6471 L24.3737,45.8211 C24.8367,45.2981 25.6377,45.2491 26.1627,45.7151 C26.6857,46.1801 26.7337,46.9811 26.2687,47.5041 L16.6527,58.3301 C16.4027,58.6121 16.0547,58.7561 15.7047,58.7561" id="Fill-15" fill="#FF5E62"></path>
            </g>
        </g>
    </g>
</svg>