<?xml version="1.0" encoding="UTF-8"?>
<svg width="79px" height="79px" viewBox="0 0 79 79" version="1.1" xmlns="http://www.w3.org/2000/svg" xmlns:xlink="http://www.w3.org/1999/xlink">
    <!-- Generator: Sketch 52.2 (67145) - http://www.bohemiancoding.com/sketch -->
    <title>pill@1x</title>
    <desc>Created with Sketch.</desc>
    <defs>
        <polygon id="path-1" points="0.449946913 0.586761066 56.3285575 0.586761066 56.3285575 45.013497 0.449946913 45.013497"></polygon>
        <polygon id="path-3" points="0 0.943689501 55.874698 0.943689501 55.874698 56.7952373 0 56.7952373"></polygon>
    </defs>
    <g id="Mockups" stroke="none" stroke-width="1" fill="none" fill-rule="evenodd">
        <g id="Partners---Desktop" transform="translate(-152.000000, -298.000000)">
            <g id="pill" transform="translate(152.869763, 298.390044)">
                <path d="M53.8046897,-7.10542736e-15 C47.6341695,-7.10542736e-15 41.4598629,2.34754911 36.7735996,7.03381247 L21.9032643,21.9028856 L55.8745718,55.8741931 L70.744907,41.00512 C80.1022883,31.6477387 80.1489868,16.3760482 70.7764601,7.00352152 C66.1040801,2.33114151 59.9562781,-7.10542736e-15 53.8046897,-7.10542736e-15 M53.8059519,7.57273907 C58.2107618,7.57273907 62.3353803,9.27155687 65.4212715,12.357448 C71.8341193,18.7702959 71.820236,29.2194137 65.3897184,35.6499313 L55.8745718,45.1650779 L32.6123794,21.9028856 L42.1287882,12.387739 C45.2336112,9.28291598 49.380948,7.57273907 53.8059519,7.57273907" id="Fill-1" fill="#FF5E62"></path>
                <g id="Group-5" transform="translate(21.456094, 10.862716)">
                    <mask id="mask-2" fill="white">
                        <use xlink:href="#path-1"></use>
                    </mask>
                    <g id="Clip-4"></g>
                    <path d="M49.2941139,30.1456859 L34.4136817,45.013497 L0.449946913,11.037141 L7.06347237,4.42361553 C12.4274959,10.0526849 20.000235,13.5613873 28.3933541,13.5613873 C38.5534457,13.5613873 47.5145202,8.41192477 52.8154376,0.586761066 C58.4823707,9.83812397 57.2833536,22.143825 49.2941139,30.1456859" id="Fill-3" fill="#FFC371" mask="url(#mask-2)"></path>
                </g>
                <g id="Group-8" transform="translate(0.000000, 20.959701)">
                    <mask id="mask-4" fill="white">
                        <use xlink:href="#path-3"></use>
                    </mask>
                    <g id="Clip-7"></g>
                    <path d="M55.874698,34.914997 L41.0043627,49.7853323 C36.3256721,54.4640229 30.1488412,56.8103099 23.9871559,56.7951644 C17.810325,56.7951644 11.6814549,54.4943138 7.00276424,49.8168853 C-2.354617,40.458242 -2.32432605,25.171406 7.0330552,15.8140248 L21.9033905,0.943689501 L55.874698,34.914997 Z" id="Fill-6" fill="#0079FF" mask="url(#mask-4)"></path>
                </g>
            </g>
        </g>
    </g>
</svg>