<?xml version="1.0" encoding="UTF-8"?>
<svg width="380px" height="344px" viewBox="0 0 380 344" version="1.1" xmlns="http://www.w3.org/2000/svg" xmlns:xlink="http://www.w3.org/1999/xlink">
    <!-- Generator: Sketch 52.2 (67145) - http://www.bohemiancoding.com/sketch -->
    <title>plan@1x</title>
    <desc>Created with Sketch.</desc>
    <defs>
        <polygon id="path-1" points="0.00015686899 0.129984657 253.558061 0.129984657 253.558061 288.157247 0.00015686899 288.157247"></polygon>
        <polygon id="path-3" points="0 343.142776 379.687691 343.142776 379.687691 0.129984657 0 0.129984657"></polygon>
        <polygon id="path-5" points="0.283374911 66.9266339 24.1587561 67.1122069 46.2586555 35.0231329 33.99872 0.239071459"></polygon>
        <linearGradient x1="78.918271%" y1="71.2364141%" x2="14.6758421%" y2="38.7364141%" id="linearGradient-7">
            <stop stop-color="#D1DAED" offset="0%"></stop>
            <stop stop-color="#FFFFFF" offset="100%"></stop>
        </linearGradient>
        <polygon id="path-8" points="0 343.142776 379.687691 343.142776 379.687691 0.129984657 0 0.129984657"></polygon>
    </defs>
    <g id="Mockups" stroke="none" stroke-width="1" fill="none" fill-rule="evenodd">
        <g id="Planner---Desktop" transform="translate(-522.000000, -104.000000)">
            <g id="plan" transform="translate(522.000000, 104.511698)">
                <g id="Group-68" transform="translate(0.000000, 0.287972)">
                    <g id="Group-3">
                        <mask id="mask-2" fill="white">
                            <use xlink:href="#path-1"></use>
                        </mask>
                        <g id="Clip-2"></g>
                        <path d="M253.558061,136.39102 C253.558061,192.695274 187.400468,226.076254 105.437828,272.161457 C-21.198575,343.365046 1.597641,157.078642 1.597641,100.774388 C1.597641,44.4697156 32.1549023,0.129901066 104.94422,0.129901066 C177.733539,0.129901066 253.558061,80.0867655 253.558061,136.39102" id="Fill-1" fill="#EBFFF6" mask="url(#mask-2)"></path>
                    </g>
                    <path d="M302.64056,309.015869 C237.122442,344.228336 233.579419,262.603823 136.271066,243.567131 C-14.0752068,214.154654 169.764058,131.77949 205.018321,87.8781127 C240.272584,43.9763172 293.953322,55.1967934 354.745182,104.014182 C415.536623,152.831989 352.236185,282.361073 302.64056,309.015869" id="Fill-4" fill="#F2F2F9"></path>
                    <mask id="mask-4" fill="white">
                        <use xlink:href="#path-3"></use>
                    </mask>
                    <g id="Clip-7"></g>
                    <polygon id="Fill-6" fill="#E6E6E6" mask="url(#mask-4)" points="95.9842652 222.961721 308.315665 222.961721 308.315665 216.859965 95.9842652 216.859965"></polygon>
                    <polygon id="Fill-8" fill="#CCCCCC" mask="url(#mask-4)" points="100.950431 229.063477 303.349499 229.063477 303.349499 222.961721 100.950431 222.961721"></polygon>
                    <polygon id="Fill-9" fill="#CCCCCC" mask="url(#mask-4)" points="280.58534 339.498483 269.410004 339.498483 236.610402 229.063769 247.785739 229.063769"></polygon>
                    <polygon id="Fill-10" fill="#CCCCCC" mask="url(#mask-4)" points="123.714548 339.498483 134.889467 339.498483 167.689486 229.063769 156.514149 229.063769"></polygon>
                    <path d="M154.308464,190.573348 C157.252136,187.520171 153.874207,184.660509 146.830376,183.035909 C146.830376,183.035909 149.717206,195.335133 154.308464,190.573348" id="Fill-11" fill="#B9C983" mask="url(#mask-4)"></path>
                    <path d="M156.304251,205.61437 C156.304251,205.61437 156.247827,205.523673 156.142084,205.353147 C156.043864,205.18053 155.882951,204.933936 155.711588,204.607093 C155.350891,203.959678 154.873584,203.013005 154.42219,201.821409 C154.198583,201.225402 153.979156,200.569628 153.782716,199.86328 C153.593382,199.156097 153.409062,198.401266 153.282421,197.60673 C153.147839,196.813865 153.046694,195.983802 153.007406,195.134096 C152.950982,194.284807 152.973133,193.415874 153.020362,192.547777 C153.090161,191.680934 153.193815,190.813255 153.372282,189.97149 C153.537375,189.127634 153.772685,188.310528 154.047283,187.538143 C154.324389,186.766595 154.639946,186.038931 154.992702,185.378141 C155.337099,184.713589 155.716604,184.115075 156.093601,183.586777 C156.290877,183.327226 156.463075,183.071436 156.655335,182.846157 C156.848013,182.623804 157.031079,182.412735 157.202859,182.214624 C157.556033,181.828013 157.900429,181.522905 158.168758,181.267115 C158.450461,181.020102 158.691204,180.845396 158.845012,180.720427 C159.00509,180.600891 159.090771,180.536944 159.090771,180.536944 C159.090771,180.536944 159.051483,180.636836 158.977505,180.824081 C158.898093,181.005892 158.795276,181.281326 158.640631,181.607332 C158.507303,181.942534 158.345554,182.349624 158.159981,182.8169 C157.985693,183.28334 157.784237,183.798263 157.598246,184.368775 C157.494175,184.64797 157.406822,184.947227 157.3132,185.252754 C157.212472,185.555355 157.123447,185.872584 157.037348,186.198591 C156.850521,186.845588 156.695041,187.535636 156.543741,188.246163 C156.475614,188.60268 156.406651,188.965049 156.336434,189.332015 C156.288369,189.703579 156.21857,190.073471 156.169251,190.451304 C156.072703,191.206135 155.985768,191.975176 155.938121,192.750068 C155.880861,193.524543 155.851186,194.302361 155.840737,195.073074 C155.838647,195.459684 155.836557,195.842951 155.834468,196.22162 C155.841991,196.602379 155.849096,196.97854 155.856619,197.348432 C155.895907,198.832598 155.98744,200.23568 156.069777,201.455697 C156.156712,202.674042 156.231527,203.710993 156.267889,204.447434 C156.295892,204.812728 156.293802,205.10906 156.302997,205.307171 C156.303833,205.507373 156.304251,205.61437 156.304251,205.61437" id="Fill-12" fill="#754C24" mask="url(#mask-4)"></path>
                    <polygon id="Fill-13" fill="#B7736E" mask="url(#mask-4)" points="162.050576 216.860091 150.55801 216.860091 146.830669 200.181931 165.777918 200.181931"></polygon>
                    <polygon id="Fill-14" fill="#D68F87" mask="url(#mask-4)" points="144.636561 203.312722 167.97236 203.312722 167.97236 200.181805 144.636561 200.181805"></polygon>
                    <path d="M163.132625,178.203322 C162.700458,177.455179 161.916788,177.038894 161.110549,177.038476 C160.70722,176.340488 159.95448,175.869868 159.090562,175.869868 C158.010143,175.869868 157.104012,176.605054 156.838191,177.601464 C155.806673,177.60021 154.86209,178.285242 154.582477,179.328881 C154.302864,180.37252 154.778499,181.43831 155.672091,181.952815 C155.404181,182.948807 155.821302,184.038839 156.757108,184.57884 C157.695004,185.120512 158.850237,184.934521 159.578318,184.200171 C160.470657,184.715512 161.627562,184.600574 162.390752,183.837384 C163.154359,183.073776 163.269297,181.917289 162.753956,181.024951 C163.488307,180.296451 163.67388,179.141218 163.132625,178.203322" id="Fill-15" fill="#FF5E62" mask="url(#mask-4)"></path>
                    <path d="M160.170354,180.536986 C160.170354,179.940561 159.686778,179.457403 159.090771,179.457403 C158.494346,179.457403 158.01077,179.940561 158.01077,180.536986 C158.01077,181.133411 158.494346,181.616569 159.090771,181.616569 C159.686778,181.616569 160.170354,181.133411 160.170354,180.536986" id="Fill-16" fill="#FFC371" mask="url(#mask-4)"></path>
                    <path d="M155.405811,191.489343 C154.365516,195.600786 158.717703,196.407026 165.638654,194.321002 C165.638654,194.321002 157.02832,185.076627 155.405811,191.489343" id="Fill-17" fill="#B9C983" mask="url(#mask-4)"></path>
                    <path d="M225.699883,218.91598 L225.657252,218.916816 C224.947978,218.929772 224.341105,217.477371 224.307668,215.688933 L222.37796,199.804474 C222.344524,198.016035 223.620965,196.528526 225.213799,196.498851 L225.309929,196.497179 C226.903182,196.467504 228.233957,197.90653 228.266976,199.694969 L226.928259,215.640032 C226.961696,217.428888 226.408738,218.903023 225.699883,218.91598" id="Fill-18" fill="#ECA89E" mask="url(#mask-4)"></path>
                    <path d="M226.258148,201.102565 C224.886413,201.909222 223.103826,201.446961 222.297169,200.075226 L216.312859,189.899643 C215.506202,188.527908 215.968463,186.745321 217.340198,185.938663 C218.711933,185.132006 220.49452,185.594267 221.301177,186.966002 L227.285487,197.141585 C228.092144,198.513321 227.629884,200.295908 226.258148,201.102565" id="Fill-19" fill="#ECA89E" mask="url(#mask-4)"></path>
                    <path d="M225.71773,214.060781 C224.013301,213.905719 222.751906,214.100487 222.135002,216.456929 C221.517679,218.813371 221.646828,219.032381 222.135002,219.309904 C222.622758,219.58701 229.033384,220.027119 229.696682,219.309904 C230.359979,218.592272 230.581079,214.50298 225.71773,214.060781" id="Fill-20" fill="#ECA89E" mask="url(#mask-4)"></path>
                    <path d="M168.532338,161.311001 C168.532338,161.311001 165.551051,158.139961 164.436359,158.43671 C163.321667,158.73346 159.838831,161.798757 161.092702,163.470585 C162.346573,165.142414 166.669504,173.436354 169.732293,172.215084 C172.795501,170.993813 172.628318,164.185292 168.532338,161.311001" id="Fill-21" fill="#D6928B" mask="url(#mask-4)"></path>
                    <path d="M168.680253,170.660994 L168.73626,170.635081 C169.665378,170.207511 171.041293,171.194307 171.793198,172.827684 L180.628393,186.379106 C181.380298,188.012901 180.28734,190.136123 178.199226,191.097424 L178.073421,191.15552 C175.985308,192.116822 173.661466,191.56679 172.909143,189.932996 L168.358427,174.409233 C167.606104,172.775439 167.751135,171.088564 168.680253,170.660994" id="Fill-22" fill="#ECA89E" mask="url(#mask-4)"></path>
                    <path d="M172.974554,189.601012 L172.850002,189.06143 C172.526086,187.659184 173.408811,186.246907 174.811057,185.92299 L186.852819,183.143157 C188.255065,182.819658 189.667342,183.701966 189.991259,185.104212 L190.11581,185.643795 C190.439309,187.046041 189.557001,188.458318 188.154755,188.782234 L176.112576,191.562067 C174.71033,191.885566 173.29847,191.003258 172.974554,189.601012" id="Fill-23" fill="#ECA89E" mask="url(#mask-4)"></path>
                    <path d="M168.050852,172.305028 C167.5213,172.242753 161.135752,167.872593 164.453913,165.629835 C170.044089,161.851503 167.876564,159.360479 169.869801,158.479843 C170.950638,158.002118 171.54163,160.877245 171.820407,161.82559 C172.098766,162.773935 174.451865,173.059023 168.050852,172.305028" id="Fill-24" fill="#ECA89E" mask="url(#mask-4)"></path>
                    <path d="M218.537687,208.80355 L218.537687,210.157731 C218.537687,214.040552 215.361213,217.212846 211.482571,217.212846 L197.07141,217.212846 C196.235496,217.212846 195.433019,217.066561 194.689055,216.794889 C191.972334,215.81269 190.016295,213.204638 190.016295,210.157731 L190.016295,208.80355 C190.016295,204.920728 193.192768,201.748434 197.07141,201.748434 L211.482571,201.748434 C212.243253,201.748434 212.974678,201.869641 213.660127,202.099518 L213.664307,202.099518 C216.485517,203.019023 218.537687,205.68141 218.537687,208.80355" id="Fill-25" fill="#505858" mask="url(#mask-4)"></path>
                    <path d="M225.884077,190.003254 L218.537645,180.380628 C218.537645,180.380628 214.396944,176.012558 207.528237,177.978629 C207.331379,177.969016 207.13285,177.963582 206.933484,177.963582 L203.023496,177.963582 C202.491018,177.963582 201.967736,178.00287 201.454067,178.072251 L201.467859,177.963582 C201.467859,177.963582 195.921151,178.043412 194.607511,178.542035 L182.475053,183.151266 L185.737208,192.233055 L191.470325,190.055081 L192.613438,200.964597 C192.613438,204.003145 193.35155,209.93312 196.390098,209.93312 L212.505688,209.93312 C215.544236,209.93312 217.272907,204.003145 217.272907,200.964597 L218.047381,193.985967 L225.884077,190.003254 Z" id="Fill-26" fill="#0079FF" mask="url(#mask-4)"></path>
                    <path d="M204.497881,181.740033 C202.831068,181.740033 201.467692,180.376239 201.467692,178.709845 L201.467692,175.335259 C201.467692,173.668446 202.831068,172.30507 204.497881,172.30507 C206.164276,172.30507 207.52807,173.668446 207.52807,175.335259 L207.52807,178.709845 C207.52807,180.376239 206.164276,181.740033 204.497881,181.740033" id="Fill-27" fill="#ECA89E" mask="url(#mask-4)"></path>
                    <path d="M204.497881,179.349235 C202.831068,179.349235 201.467692,177.985859 201.467692,176.319046 L201.467692,175.335175 C201.467692,173.66878 202.831068,172.304986 204.497881,172.304986 C206.164276,172.304986 207.52807,173.66878 207.52807,175.335175 L207.52807,176.319046 C207.52807,177.985859 206.164276,179.349235 204.497881,179.349235" id="Fill-28" fill="#C98881" mask="url(#mask-4)"></path>
                    <path d="M191.267658,156.843123 C191.320321,156.709377 191.373819,156.576467 191.430243,156.445228 C191.442782,156.259655 191.461172,156.074082 191.485414,155.888091 C192.261142,149.95937 198.800499,145.92692 206.090924,146.880698 C210.677168,147.480884 214.468039,149.911723 216.45626,153.108259 C218.830675,156.110445 220.037735,160.0313 219.501914,164.126444 C218.449498,172.16961 211.075899,177.83669 203.032732,176.784274 C202.751447,176.747494 202.473924,176.702355 202.198908,176.65011 C201.88962,176.625869 201.579078,176.594104 201.267282,176.553144 C193.207815,175.498638 187.366865,169.352997 188.220751,162.826597 C188.522516,160.521146 189.620071,158.476918 191.267658,156.843123" id="Fill-29" fill="#ECA89E" mask="url(#mask-4)"></path>
                    <path d="M223.546067,155.904016 C222.747769,148.840541 218.464544,142.70493 208.665958,142.27736 C197.772742,141.802143 192.231467,153.945469 188.618646,149.625882 C188.618646,149.625882 188.475705,154.306166 195.796641,152.985003 C203.117578,151.664259 207.834224,156.981509 207.284192,161.182396 C206.734578,165.3837 204.645629,164.255634 204.508121,166.231735 C204.371031,168.207837 207.479378,175.910368 213.513843,174.531945 C219.460118,173.173167 224.580928,165.060202 223.546067,155.904016" id="Fill-30" fill="#4E5255" mask="url(#mask-4)"></path>
                    <path d="M206.280552,165.888843 C204.428166,167.631725 203.891091,170.069668 205.080597,171.333571 C206.269685,172.597891 208.735632,172.209609 210.588017,170.46631 C212.440403,168.723428 212.977896,166.285903 211.78839,165.021582 C210.598884,163.75768 208.132937,164.145962 206.280552,165.888843" id="Fill-31" fill="#ECA89E" mask="url(#mask-4)"></path>
                    <path d="M199.956025,216.860091 L197.770945,216.860091 C195.394023,216.860091 193.449687,214.915336 193.449687,212.538832 L191.77744,204.153359 C192.996621,202.218636 195.394023,201.74718 197.770945,201.74718 L199.956025,201.74718 C202.332947,201.74718 204.277283,203.691934 204.277283,206.068856 L204.277283,212.538832 C204.277283,214.915336 202.332947,216.860091 199.956025,216.860091" id="Fill-32" fill="#505858" mask="url(#mask-4)"></path>
                    <path d="M203.186123,206.220533 L203.186123,217.212805 L197.07141,217.212805 C196.235496,217.212805 195.433019,217.06652 194.689055,216.794848 L194.689055,206.220533 C194.689055,203.884153 196.599119,201.974089 198.935499,201.974089 C200.105779,201.974089 201.16739,202.45056 201.94061,203.219601 C202.709652,203.992822 203.186123,205.054433 203.186123,206.220533" id="Fill-33" fill="#3A3F3F" mask="url(#mask-4)"></path>
                    <path d="M214.745896,216.077382 C211.76837,216.077382 209.332098,213.64111 209.332098,210.663584 L209.332098,206.378688 C209.332098,203.400744 211.76837,200.964472 214.745896,200.964472 C217.723423,200.964472 220.159695,203.400744 220.159695,206.378688 L220.159695,210.663584 C220.159695,213.64111 217.723423,216.077382 214.745896,216.077382" id="Fill-34" fill="#505858" mask="url(#mask-4)"></path>
                    <path d="M215.151398,217.149818 C212.396643,217.149818 210.143019,214.896194 210.143019,212.141439 L210.143019,207.045706 C210.143019,204.29095 212.396643,202.036908 215.151398,202.036908 C217.906154,202.036908 220.159778,204.29095 220.159778,207.045706 L220.159778,212.141439 C220.159778,214.896194 217.906154,217.149818 215.151398,217.149818" id="Fill-35" fill="#3A3F3F" mask="url(#mask-4)"></path>
                    <path d="M199.63378,238.330839 C197.296982,238.330839 195.384828,236.418686 195.384828,234.081887 L195.384828,206.701936 C195.384828,204.365138 197.296982,202.452984 199.63378,202.452984 C201.970578,202.452984 203.882732,204.365138 203.882732,206.701936 L203.882732,234.081887 C203.882732,236.418686 201.970578,238.330839 199.63378,238.330839" id="Fill-36" fill="#ECA89E" mask="url(#mask-4)"></path>
                    <path d="M215.378642,238.330839 C213.041844,238.330839 211.12969,236.418686 211.12969,234.081887 L211.12969,206.701936 C211.12969,204.365138 213.041844,202.452984 215.378642,202.452984 C217.71544,202.452984 219.627594,204.365138 219.627594,206.701936 L219.627594,234.081887 C219.627594,236.418686 217.71544,238.330839 215.378642,238.330839" id="Fill-37" fill="#ECA89E" mask="url(#mask-4)"></path>
                    <polygon id="Fill-38" fill="#505858" mask="url(#mask-4)" points="204.214673 211.396012 209.52231 211.396012 209.52231 205.362801 204.214673 205.362801"></polygon>
                    <path d="M202.763401,241.041166 L196.504075,241.041166 C194.631628,241.041166 193.099815,239.508935 193.099815,237.636487 L193.099815,237.410372 C193.099815,234.251453 195.684044,231.667224 198.842963,231.667224 L200.424931,231.667224 C203.583433,231.667224 206.168079,234.251453 206.168079,237.410372 L206.168079,237.636487 C206.168079,239.508935 204.635849,241.041166 202.763401,241.041166" id="Fill-39" fill="#D1DAEE" mask="url(#mask-4)"></path>
                    <path d="M201.850583,240.022395 L197.416894,240.022395 C196.090716,240.022395 195.005281,238.937379 195.005281,237.610783 L195.005281,237.450287 C195.005281,235.212963 196.835933,233.382311 199.073676,233.382311 L200.194219,233.382311 C202.431543,233.382311 204.262195,235.212963 204.262195,237.450287 L204.262195,237.610783 C204.262195,238.937379 203.17676,240.022395 201.850583,240.022395" id="Fill-40" fill="#4E5255" mask="url(#mask-4)"></path>
                    <path d="M218.508263,240.344557 L212.248937,240.344557 C210.376489,240.344557 208.844677,238.812326 208.844677,236.939878 L208.844677,236.713763 C208.844677,233.554843 211.428905,230.970615 214.587825,230.970615 L216.169793,230.970615 C219.328294,230.970615 221.912941,233.554843 221.912941,236.713763 L221.912941,236.939878 C221.912941,238.812326 220.38071,240.344557 218.508263,240.344557" id="Fill-41" fill="#D1DAEE" mask="url(#mask-4)"></path>
                    <path d="M217.595444,239.325828 L213.161755,239.325828 C211.835578,239.325828 210.750143,238.240811 210.750143,236.914215 L210.750143,236.75372 C210.750143,234.516396 212.580795,232.685743 214.818537,232.685743 L215.93908,232.685743 C218.176405,232.685743 220.007057,234.516396 220.007057,236.75372 L220.007057,236.914215 C220.007057,238.240811 218.921622,239.325828 217.595444,239.325828" id="Fill-42" fill="#4E5255" mask="url(#mask-4)"></path>
                    <path d="M96.252719,176.731737 L89.9382232,162.291737 L87.7042425,157.177196 L84.0086659,148.729866 C82.8049494,145.970513 84.0726133,142.730927 86.8315481,141.527629 C87.3184681,141.314053 87.8237782,141.179053 88.3295063,141.115105 C90.6725738,140.819192 93.0432265,142.078496 94.0333668,144.346332 L97.9956001,153.404716 L100.229581,158.518839 L106.277838,172.352383 C107.481136,175.107138 106.213473,178.347141 103.454956,179.554619 C100.7002,180.757918 97.4564354,179.490672 96.252719,176.731737" id="Fill-43" fill="#ECA89E" mask="url(#mask-4)"></path>
                    <path d="M99.5913603,155.305334 L88.0457135,159.713109 L80.344018,147.447322 C78.3779479,142.297673 80.1266804,136.847513 84.2494092,135.273068 C88.3725559,133.699042 93.3086292,136.597574 95.2746994,141.747224 L99.5913603,155.305334 Z" id="Fill-44" fill="#2B30C9" mask="url(#mask-4)"></path>
                    <path d="M142.194897,194.652651 C142.194897,194.652651 150.483405,194.798518 154.035204,197.476787 C157.587421,200.155056 155.145716,200.731001 154.206148,200.528292 C153.266999,200.325165 146.249081,199.057919 145.333337,199.645984 C144.418011,200.234468 142.194897,194.652651 142.194897,194.652651" id="Fill-45" fill="#C98881" mask="url(#mask-4)"></path>
                    <path d="M142.171366,201.372481 C141.188749,202.877545 137.764009,202.248937 134.561622,199.975251 L99.6350368,180.804813 C96.1559619,178.381497 94.5948922,174.553428 96.1659929,172.298132 C97.7366757,170.042835 101.8686,170.180761 105.347674,172.604077 L133.105877,194.25091 C136.308264,196.524597 143.153984,199.867418 142.171366,201.372481" id="Fill-46" fill="#ECA89E" mask="url(#mask-4)"></path>
                    <path d="M144.005571,194.750704 C144.005571,194.750704 151.088272,200.973249 156.708541,201.183899 C162.328392,201.394968 161.481193,204.269676 158.863528,204.577711 C156.245863,204.885745 143.910695,208.412467 137.411462,201.935804 C128.407412,192.963101 144.005571,194.750704 144.005571,194.750704" id="Fill-47" fill="#ECA89E" mask="url(#mask-4)"></path>
                    <polygon id="Fill-48" fill="#C6C5D3" mask="url(#mask-4)" points="98.9801398 190.382341 98.9801398 255.951451 67.6041006 300.012488 60.6576537 309.767606 54.8062543 306.42395 77.1711385 255.303617 73.1462117 201.487461 72.218347 189.078315"></polygon>
                    <polygon id="Fill-49" fill="#A1A1AF" mask="url(#mask-4)" points="98.9801398 190.382341 98.9801398 255.951451 67.6041006 300.012488 91.2019583 255.951451 73.1462117 201.487461 72.218347 189.078315"></polygon>
                    <path d="M167.880409,151.909391 C165.991243,153.748402 158.42204,163.382313 149.26042,162.880764 C146.117383,162.709402 145.131004,161.522404 145.193698,160.034477 C145.310726,157.188189 149.26042,153.255212 149.26042,153.255212 C149.26042,153.255212 156.654081,153.639733 161.690464,151.758926 C162.589072,151.42874 163.408268,151.023322 164.102077,150.530132 C168.691246,147.274246 169.769575,150.070379 167.880409,151.909391" id="Fill-50" fill="#F9C7C2" mask="url(#mask-4)"></path>
                    <path d="M161.690423,151.758884 C160.825251,155.265544 154.539177,156.38149 150.518429,159.060595 C147.776631,160.887067 146.121521,160.623754 145.193656,160.034435 C145.310684,157.188147 149.260379,153.255171 149.260379,153.255171 C149.260379,153.255171 156.65404,153.639691 161.690423,151.758884" id="Fill-51" fill="#C98881" mask="url(#mask-4)"></path>
                    <polygon id="Fill-52" fill="#4E5255" mask="url(#mask-4)" points="119.432494 153.743846 162.86367 153.743846 162.86367 151.592203 119.432494 151.592203"></polygon>
                    <path d="M90.8885322,116.082067 C90.4831139,119.304516 90.4120612,123.876966 91.406799,129.97914 L79.5368175,122.627275 C79.5368175,122.627275 81.0874383,118.088261 81.9693278,113.486553 C82.3831053,111.325715 82.6505979,109.148158 82.5335699,107.421995 C82.4750559,106.489951 82.3036935,105.691653 81.9860461,105.098154 L92.5060262,109.950636 C92.5060262,109.950636 92.4475122,110.055125 92.3472025,110.272463 C92.021196,110.974631 91.2897711,112.851258 90.8885322,116.082067" id="Fill-53" fill="#ECA89E" mask="url(#mask-4)"></path>
                    <path d="M92.3472025,110.272463 C92.021196,110.974631 91.2897711,112.851258 90.8885322,116.082067 L81.9693278,113.486553 C82.3831053,111.325715 82.6505979,109.148158 82.5335699,107.421995 L92.3472025,110.272463 Z" id="Fill-54" fill="#C98881" mask="url(#mask-4)"></path>
                    <path d="M132.89322,255.303617 L114.695368,259.650371 L73.0877395,192.070888 L72.0512059,190.390701 C72.0470263,190.386521 72.0470263,190.382341 72.0470263,190.382341 L98.8129988,189.078315 L103.397988,197.984981 L132.89322,255.303617 Z" id="Fill-55" fill="#E2E0EF" mask="url(#mask-4)"></path>
                    <path d="M103.397988,197.984981 C102.570433,199.092567 100.710524,199.966098 97.2289414,200.3339 C82.1657676,201.926316 75.4324788,195.305876 73.0877395,192.070888 C72.3981103,191.122125 72.0846425,190.465933 72.0512059,190.390701 C72.0470263,190.386521 72.0470263,190.382341 72.0470263,190.382341 L98.8129988,189.078315 L103.397988,197.984981 Z" id="Fill-56" fill="#C9C8D6" mask="url(#mask-4)"></path>
                    <path d="M100.681267,154.082726 C100.351081,154.571736 99.9665604,155.056566 99.5360646,155.533037 C97.0701177,158.262297 95.7242959,161.050071 95.1140785,163.871281 C93.1831167,172.761228 100.815013,181.786176 101.270587,190.233089 C102.01873,203.996416 71.3573971,191.34778 71.3573971,191.34778 C71.3573971,185.287403 75.5160702,174.955503 76.0552349,164.435523 C76.5943995,153.915543 69.5810795,151.758884 67.9635855,140.69974 C66.341912,129.640595 75.7835628,121.816438 79.5368175,122.627275 L91.406799,129.97914 C91.406799,129.97914 108.25465,143.03194 100.681267,154.082726" id="Fill-57" fill="#FF5E62" mask="url(#mask-4)"></path>
                    <path d="M100.681267,154.082726 C100.351081,154.571736 99.9665604,155.056566 99.5360646,155.533037 C97.0701177,158.262297 95.7242959,161.050071 95.1140785,163.871281 L87.0057108,156.226846 L86.4999827,156.711676 L74.6091033,148.444485 C72.4649834,146.220953 71.3573971,143.454077 71.3573971,140.908718 C71.3573971,138.915063 72.0386672,137.059333 73.4346439,135.713511 C76.6111178,132.649886 82.2869752,133.38549 86.1154622,137.351903 L95.3982893,148.135196 L94.8925612,148.624206 L100.681267,154.082726 Z" id="Fill-58" fill="#DD4551" mask="url(#mask-4)"></path>
                    <path d="M98.4419365,76.8823302 C100.250019,78.6114187 102.218179,88.1002987 108.152334,91.3369584 C108.152334,91.3369584 105.219947,99.6760384 104.588414,106.86908 C104.224791,111.011871 100.418874,113.982292 96.3082655,113.349087 C91.0846377,112.544101 84.5632531,111.145199 79.5603067,108.77998 C69.66977,104.104712 70.029631,87.9205771 71.6479609,84.1439168 C73.2662908,80.3676744 87.652374,66.5633874 98.4419365,76.8823302" id="Fill-59" fill="#ECA89E" mask="url(#mask-4)"></path>
                    <path d="M99.5208927,65.1483519 C103.382816,67.9010173 105.095604,77.0663985 97.7224233,80.1233367 C90.3496602,83.1802749 83.5164796,82.8505068 82.976897,87.241564 C82.976897,87.241564 80.4595414,84.0793006 84.0560622,79.224311 C84.0560622,79.224311 70.7487262,88.215404 79.9199588,97.2069151 C89.0911913,106.198008 68.8148387,123.256927 60.6784679,126.518246 C46.3425395,132.265156 22.9407037,125.310768 35.475655,97.93834 C36.7023591,95.2604889 41.3270544,88.9485008 47.8053894,87.6946295 C54.2059843,86.4558047 58.6852305,85.780386 57.9061585,78.6387531 C56.8269933,68.7482164 81.5382887,52.3312796 99.5208927,65.1483519" id="Fill-60" fill="#4E5255" mask="url(#mask-4)"></path>
                    <path d="M109.149788,167.374179 C107.085498,169.563021 103.605587,169.665002 101.416746,167.600712 L79.1818465,146.63264 C76.9930052,144.56835 76.8910237,141.08844 78.9553138,138.899598 C81.0196039,136.710339 84.4995147,136.608357 86.688356,138.672648 L108.923256,159.641137 C111.112097,161.705427 111.214078,165.185338 109.149788,167.374179" id="Fill-61" fill="#F9C7C2" mask="url(#mask-4)"></path>
                    <path d="M153.878261,159.728866 C154.012843,161.458791 150.911602,162.996037 146.986985,163.145248 L107.604141,169.071461 C103.368564,169.268737 99.802554,167.262125 99.6788387,164.612277 C99.5555414,161.962011 102.919678,159.632318 107.154837,159.435043 L142.35184,159.626885 C146.276457,159.477674 153.743679,157.998942 153.878261,159.728866" id="Fill-62" fill="#F9C7C2" mask="url(#mask-4)"></path>
                    <path d="M96.0941879,146.577679 L87.198807,155.156666 L75.3066737,146.889057 C71.4802765,142.92139 70.9536506,137.22171 74.1305425,134.158084 C77.3070164,131.094458 82.9841276,131.827137 86.8105249,135.794804 L96.0941879,146.577679 Z" id="Fill-63" fill="#FF5E62" mask="url(#mask-4)"></path>
                    <polygon id="Fill-64" fill="#4E5255" mask="url(#mask-4)" points="159.994854 152.509075 184.920562 116.942598 186.682251 118.177244 161.756961 153.743721"></polygon>
                    <path d="M129.729912,342.733931 L96.2377561,343.142693 C95.138111,343.156067 94.2353237,342.275432 94.2219491,341.175369 L94.0526764,327.285818 L102.379218,327.282475 L130.442947,338.892069 C132.468785,339.699144 131.910812,342.707181 129.729912,342.733931" id="Fill-65" fill="#4E5255" mask="url(#mask-4)"></path>
                    <path d="M78.2591645,336.74728 L48.9691491,320.500452 C48.0070119,319.966721 47.6596895,318.754227 48.1934207,317.792508 L54.9313071,305.645421 L61.6470417,309.474744 L80.7827894,333.763903 C82.1424038,335.469585 80.1663027,337.80513 78.2591645,336.74728" id="Fill-66" fill="#4E5255" mask="url(#mask-4)"></path>
                    <polygon id="Fill-67" fill="#E2E0EF" mask="url(#mask-4)" points="94.0525511 327.282684 102.379092 327.282684 132.893304 255.30462 114.694198 259.648448"></polygon>
                </g>
                <g id="Group-71" transform="translate(135.836056, 82.207563)">
                    <mask id="mask-6" fill="white">
                        <use xlink:href="#path-5"></use>
                    </mask>
                    <g id="Clip-70"></g>
                    <polygon id="Fill-69" fill="url(#linearGradient-7)" mask="url(#mask-6)" points="0.283374911 66.9266339 24.1587561 67.1122069 46.2586555 35.0231329 33.99872 0.239071459"></polygon>
                </g>
                <g id="Group-127" transform="translate(0.000000, 0.287972)">
                    <path d="M291.142644,239.291096 L309.807354,240.59136 L313.581925,165.344036 C313.585268,165.339439 313.584867,165.335259 313.584867,165.335259 L286.077422,168.591145 L291.142644,239.291096 Z" id="Fill-72" fill="#1F289B"></path>
                    <polygon id="Fill-74" fill="#1F289B" points="337.229268 307.99317 329.892868 312.680558 291.142393 239.292308 309.807939 240.589229"></polygon>
                    <polygon id="Fill-76" fill="#18247C" points="312.846738 180.000078 303.507487 262.709608 293.274225 243.554216 309.347601 181.121875"></polygon>
                    <path d="M281.299754,232.444039 L299.497606,236.790793 L315.574744,163.184368 C315.578924,163.180189 315.578924,163.176009 315.578924,163.176009 L287.910582,161.871983 L281.299754,232.444039 Z" id="Fill-78" fill="#2B30C9"></path>
                    <polygon id="Fill-80" fill="#2B30C9" points="307.82699 325.682828 299.500449 325.682828 281.299671 232.445376 299.498777 236.788787"></polygon>
                    <path d="M267.556531,137.291592 C265.305414,135.856327 264.637937,132.840767 266.073201,130.58965 L281.456948,106.458897 C282.892213,104.208198 285.907773,103.540303 288.15889,104.975567 C290.410007,106.410832 291.077485,109.426392 289.642638,111.677509 L274.258473,135.808262 C272.823626,138.058961 269.807648,138.726857 267.556531,137.291592" id="Fill-82" fill="#ECA89E"></path>
                    <path d="M235.343031,167.993592 C234.044856,166.701268 234.5556,164.019238 236.478203,162.033524 L266.466206,129.799836 C268.333639,127.89228 271.422342,127.85968 273.329898,129.727112 C275.237872,131.594544 275.270473,134.683247 273.40304,136.590803 L241.199028,166.733033 C239.276425,168.718329 236.641206,169.285915 235.343031,167.993592" id="Fill-84" fill="#ECA89E"></path>
                    <path d="M283.173623,125.544364 L272.787389,115.595732 L284.622681,98.5238561 C288.657638,94.7689295 294.365678,94.3434492 297.372462,97.5738396 C300.379245,100.804648 299.545421,106.467549 295.510881,110.222893 L283.173623,125.544364 Z" id="Fill-86" fill="#FFC371"></path>
                    <path d="M291.625259,95.4039735 C291.625259,95.4039735 286.534542,98.4186981 284.584354,103.016226 C282.633748,107.613754 279.830092,121.301849 282.442324,125.063463 C285.054556,128.825077 291.717628,97.1957556 291.625259,95.4039735" id="Fill-88" fill="#D39853"></path>
                    <path d="M318.173016,177.468219 C305.301191,185.072531 287.593603,183.137807 281.019974,178.637245 C280.810995,160.426437 281.972916,143.173586 281.972916,124.478783 C281.972916,109.562312 290.535603,91.1801409 298.73425,91.1801409 L304.178977,91.1801409 C314.938446,92.3153124 320.789846,114.530568 320.789846,123.391676 C320.789846,123.391676 317.028232,151.193764 318.173016,177.468219" id="Fill-90" fill="#FFC371"></path>
                    <path d="M303.937857,100.123838 C303.937857,100.123838 301.754449,104.792418 302.860782,111.68871 C303.098181,113.168697 303.891046,117.54011 305.301233,122.346616 C307.41526,128.347644 311.214908,133.855065 311.024738,139.449421 C310.744707,147.682758 299.039818,164.121428 298.279554,171.494191 C297.180745,182.150844 301.337746,182.34185 302.016508,182.463057 C310.410341,182.114481 318.173058,177.468052 318.173058,177.468052 L318.173058,131.332694 L303.937857,100.123838 Z" id="Fill-92" fill="#D39853"></path>
                    <path d="M294.549412,87.6550072 C294.954831,90.8774564 295.025883,95.449907 294.031146,101.552081 L305.301359,92.3156468 C305.301359,92.3156468 304.350506,89.6612012 303.468617,85.0594936 C303.054839,82.8986554 302.787347,80.7210989 302.904375,78.9949361 C302.962889,78.0628918 303.134251,77.2645938 303.451899,76.6710947 L292.931918,81.5235766 C292.931918,81.5235766 292.990432,81.6280658 293.090742,81.8454035 C293.416749,82.5475715 294.148174,84.4241988 294.549412,87.6550072" id="Fill-94" fill="#ECA89E"></path>
                    <path d="M293.090742,81.8454035 C293.416749,82.5475715 294.148174,84.4241988 294.549412,87.6550072 L303.468617,85.0594936 C303.054839,82.8986554 302.787347,80.7210989 302.904375,78.9949361 L293.090742,81.8454035 Z" id="Fill-96" fill="#C98881"></path>
                    <path d="M281.869639,49.9087166 C280.385055,51.9224339 280.073677,61.6081717 274.78234,65.8149099 C274.78234,65.8149099 279.101927,73.5274722 280.957657,80.5052659 C282.026791,84.5243413 286.286192,86.7980279 290.226691,85.4689244 C295.235071,83.7799597 301.42,81.2830841 305.943132,78.0949073 C314.884906,71.7921143 311.754407,55.9093267 309.512067,52.4666141 C307.270146,49.0239015 290.729076,37.8920322 281.869639,49.9087166" id="Fill-98" fill="#ECA89E"></path>
                    <path d="M295.607596,177.468219 C295.607596,177.468219 288.123656,181.033393 285.999598,184.942546 C283.875958,188.851281 286.33689,188.364361 287.107603,187.790506 C287.878734,187.216651 293.741836,183.157033 294.818911,183.313349 C295.895987,183.469665 295.607596,177.468219 295.607596,177.468219" id="Fill-100" fill="#C98881"></path>
                    <path d="M294.00005,178.307352 C294.00005,178.307352 290.130185,186.904311 285.102161,189.423757 C280.073719,191.943202 282.03561,194.20853 284.54586,193.405216 C287.05611,192.601485 299.744034,190.703123 302.977768,182.116613 C307.457432,170.220718 294.00005,178.307352 294.00005,178.307352" id="Fill-102" fill="#ECA89E"></path>
                    <path d="M236.08503,161.4646 C236.08503,161.4646 227.965378,159.794444 223.913702,161.631365 C219.862026,163.468287 222.118576,164.56417 223.079459,164.571275 C224.040761,164.578799 231.165675,164.876802 231.930537,165.650859 C232.695398,166.425333 236.08503,161.4646 236.08503,161.4646" id="Fill-104" fill="#C98881"></path>
                    <path d="M234.296717,161.164382 C234.296717,161.164382 226.024928,165.687513 220.49452,164.664355 C214.964112,163.641196 215.162641,166.631679 217.649486,167.504791 C220.136331,168.377903 231.401946,174.516439 239.160066,169.617564 C249.908251,162.830777 234.296717,161.164382 234.296717,161.164382" id="Fill-106" fill="#ECA89E"></path>
                    <path d="M272.149629,341.134074 L305.641785,341.542836 C306.74143,341.556211 307.644217,340.675575 307.657592,339.575512 L307.826864,325.685962 L299.500323,325.682619 L271.436594,337.292213 C269.410756,338.099288 269.968729,341.107325 272.149629,341.134074" id="Fill-108" fill="#4E5255"></path>
                    <path d="M312.806698,337.229018 L342.44111,321.619156 C343.414532,321.106323 343.787768,319.90177 343.275352,318.928766 L336.801615,306.638738 L329.481096,310.606405 L310.348274,334.191723 C308.952297,335.867731 310.87699,338.245489 312.806698,337.229018" id="Fill-110" fill="#4E5255"></path>
                    <path d="M323.968911,47.0819474 C321.664295,37.772371 314.860372,30.3143446 301.677587,31.4574573 C287.021504,32.7284648 281.733928,49.9436997 276.145006,44.796976 C276.145006,44.796976 276.772778,51.0834687 286.335218,48.0344716 C295.897658,44.9858926 303.138347,51.2740571 303.138347,56.9900383 C303.138347,62.7064376 300.146192,61.5633249 300.30836,64.2307271 C300.470945,66.8985472 305.977112,76.6582634 313.808792,73.7580591 C321.525534,70.8996505 326.95605,59.1496227 323.968911,47.0819474" id="Fill-112" fill="#4E5255"></path>
                    <path d="M302.619286,63.4618114 C300.446327,66.1179288 300.154175,69.4728704 301.966855,70.9557822 C303.779535,72.4386939 307.010343,71.4878415 309.183302,68.8317242 C311.355843,66.1756068 311.647995,62.8202473 309.835733,61.3377534 C308.023053,59.8548417 304.792245,60.8056941 302.619286,63.4618114" id="Fill-114" fill="#ECA89E"></path>
                    <path d="M323.493025,143.95341 C320.92844,144.694448 318.22384,143.202759 317.482384,140.638174 L309.537437,113.145793 C308.7964,110.581208 310.288506,107.876607 312.853091,107.135152 C315.417676,106.394114 318.122276,107.88622 318.863314,110.450805 L326.808261,137.942769 C327.549716,140.507772 326.05761,143.212372 323.493025,143.95341" id="Fill-116" fill="#ECA89E"></path>
                    <path d="M298.237675,182.40818 C296.632302,181.525872 296.380273,178.807479 297.677612,176.367028 L317.564429,137.088256 C318.830421,134.738083 321.789557,133.851178 324.13973,135.11717 C326.489903,136.383162 327.376808,139.34188 326.110816,141.692471 L303.515219,179.574849 C302.21788,182.0153 299.843048,183.290487 298.237675,182.40818" id="Fill-118" fill="#ECA89E"></path>
                    <path d="M326.011551,125.273319 L312.121165,130.202287 L303.432255,108.432992 C301.775055,103.175928 303.843524,97.8386154 308.052352,96.5116016 C312.261598,95.1845879 317.017114,98.3702568 318.674732,103.627321 L326.011551,125.273319 Z" id="Fill-120" fill="#FFC371"></path>
                    <path d="M277.347594,70.8456923 C279.711977,74.189349 285.697959,74.8213002 290.002917,72.9304623 C294.307875,71.0396243 294.948603,69.795784 300.777433,63.1782693 C302.125344,61.6481284 301.566536,71.1194542 300.103686,76.1349393 C298.640836,81.1504245 294.341729,87.6116232 287.564973,87.6550908 C280.787799,87.6981403 280.898975,82.6462929 280.957907,80.5050987 C281.016839,78.3639045 277.410705,75.2045668 277.347594,70.8456923" id="Fill-122" fill="#4E5255"></path>
                    <mask id="mask-9" fill="white">
                        <use xlink:href="#path-8"></use>
                    </mask>
                    <g id="Clip-125"></g>
                    <polygon id="Fill-124" fill="#D1DAEE" mask="url(#mask-9)" points="217.623991 164.792542 231.265275 164.792542 231.265275 142.364546 217.623991 142.364546"></polygon>
                    <polygon id="Fill-126" fill="#FF5E62" mask="url(#mask-9)" points="229.431153 152.075738 225.770685 152.075738 225.770685 148.517251 222.914784 148.517251 222.914784 152.075738 219.457861 152.075738 219.457861 154.931638 222.914784 154.931638 222.914784 158.490125 225.770685 158.490125 225.770685 154.931638 229.431153 154.931638"></polygon>
                </g>
            </g>
        </g>
    </g>
</svg>