<?xml version="1.0" encoding="UTF-8"?>
<svg width="130px" height="170px" viewBox="0 0 130 170" version="1.1" xmlns="http://www.w3.org/2000/svg" xmlns:xlink="http://www.w3.org/1999/xlink">
    <!-- Generator: Sketch 52.2 (67145) - http://www.bohemiancoding.com/sketch -->
    <title>prepare_disease@1x</title>
    <desc>Created with Sketch.</desc>
    <defs>
        <polygon id="path-1" points="0 169.522468 128.655085 169.522468 128.655085 0 0 0"></polygon>
    </defs>
    <g id="Mockups" stroke="none" stroke-width="1" fill="none" fill-rule="evenodd">
        <g id="Planner---Desktop" transform="translate(-190.000000, -1652.000000)">
            <g id="prepare_disease" transform="translate(190.363281, 1652.097822)">
                <path d="M83.5884319,162.92764 L9.27070851,162.92764 C4.15096383,162.92764 9.14893617e-05,158.776768 9.14893617e-05,153.657023 L9.14893617e-05,35.944066 C9.14893617e-05,30.8243213 4.15096383,26.6734489 9.27070851,26.6734489 L83.5884319,26.6734489 C88.7081766,26.6734489 92.8590489,30.8243213 92.8590489,35.944066 L92.8590489,153.657023 C92.8590489,158.776768 88.7081766,162.92764 83.5884319,162.92764" id="Fill-1" fill="#FF5E62"></path>
                <mask id="mask-2" fill="white">
                    <use xlink:href="#path-1"></use>
                </mask>
                <g id="Clip-4"></g>
                <polygon id="Fill-3" fill="#FFC371" mask="url(#mask-2)" points="14.8651915 162.924255 19.8971064 162.924255 19.8971064 26.6728085 14.8651915 26.6728085"></polygon>
                <polygon id="Fill-5" fill="#FFC371" mask="url(#mask-2)" points="26.4843404 162.924255 31.5162553 162.924255 31.5162553 26.6728085 26.4843404 26.6728085"></polygon>
                <polygon id="Fill-6" fill="#FFC371" mask="url(#mask-2)" points="38.1034894 162.924255 43.1354043 162.924255 43.1354043 26.6728085 38.1034894 26.6728085"></polygon>
                <polygon id="Fill-7" fill="#FFC371" mask="url(#mask-2)" points="49.7226383 162.924255 54.7545532 162.924255 54.7545532 26.6728085 49.7226383 26.6728085"></polygon>
                <polygon id="Fill-8" fill="#FFC371" mask="url(#mask-2)" points="61.3417872 162.924255 66.3737021 162.924255 66.3737021 26.6728085 61.3417872 26.6728085"></polygon>
                <polygon id="Fill-9" fill="#FFC371" mask="url(#mask-2)" points="72.9609362 162.924255 77.9928511 162.924255 77.9928511 26.6728085 72.9609362 26.6728085"></polygon>
                <path d="M27.7472596,169.522468 L20.545217,169.522468 C17.4089617,169.522468 14.8655574,166.979064 14.8655574,163.842809 C14.8655574,160.705638 17.4089617,158.162234 20.545217,158.162234 L27.7472596,158.162234 C30.8844298,158.162234 33.4269191,160.705638 33.4269191,163.842809 C33.4269191,166.979064 30.8844298,169.522468 27.7472596,169.522468" id="Fill-10" fill="#4E5255" mask="url(#mask-2)"></path>
                <path d="M72.313283,169.522468 L65.1112404,169.522468 C61.9749851,169.522468 59.4315809,166.979064 59.4315809,163.842809 C59.4315809,160.705638 61.9749851,158.162234 65.1112404,158.162234 L72.313283,158.162234 C75.4504532,158.162234 77.9929426,160.705638 77.9929426,163.842809 C77.9929426,166.979064 75.4504532,169.522468 72.313283,169.522468" id="Fill-11" fill="#4E5255" mask="url(#mask-2)"></path>
                <polygon id="Fill-12" fill="#4E5255" mask="url(#mask-2)" points="14.8651915 30.5711702 77.9928511 30.5711702 77.9928511 22.8732553 14.8651915 22.8732553"></polygon>
                <polygon id="Fill-13" fill="#2F3133" mask="url(#mask-2)" points="29.7322128 22.8723404 34.0779574 22.8723404 34.0779574 4.57446809 29.7322128 4.57446809"></polygon>
                <polygon id="Fill-14" fill="#2F3133" mask="url(#mask-2)" points="58.7800851 22.8723404 63.1258298 22.8723404 63.1258298 4.57446809 58.7800851 4.57446809"></polygon>
                <path d="M72.5952532,4.57474255 L20.2633383,4.57474255 C19.0007851,4.57474255 17.9761043,3.5509766 17.9761043,2.28750851 C17.9761043,1.02404043 19.0007851,0.000274468085 20.2633383,0.000274468085 L72.5952532,0.000274468085 C73.8587213,0.000274468085 74.8824872,1.02404043 74.8824872,2.28750851 C74.8824872,3.5509766 73.8587213,4.57474255 72.5952532,4.57474255" id="Fill-15" fill="#0079FF" mask="url(#mask-2)"></path>
                <path d="M75.9115596,100.428879 C72.1275596,100.428879 69.0498574,103.506581 69.0498574,107.290581 L69.0498574,107.976751 C69.0498574,111.760751 72.1275596,114.838453 75.9115596,114.838453 L94.4848149,114.838453 C98.2688149,114.838453 101.346517,111.760751 101.346517,107.976751 L101.346517,107.290581 C101.346517,103.506581 98.2688149,100.428879 94.4848149,100.428879 L75.9115596,100.428879 Z M94.4848149,119.412921 L75.9115596,119.412921 C69.6051979,119.412921 64.4753894,114.283113 64.4753894,107.976751 L64.4753894,107.290581 C64.4753894,100.984219 69.6051979,95.8544106 75.9115596,95.8544106 L94.4848149,95.8544106 C100.790262,95.8544106 105.920985,100.984219 105.920985,107.290581 L105.920985,107.976751 C105.920985,114.283113 100.790262,119.412921 94.4848149,119.412921 Z" id="Fill-16" fill="#4E5255" mask="url(#mask-2)"></path>
                <path d="M128.655451,112.691564 L128.655451,163.754521 C128.655451,166.941096 126.073621,169.522926 122.887047,169.522926 L47.5089617,169.522926 C44.3223872,169.522926 41.7405574,166.941096 41.7405574,163.754521 L41.7405574,112.691564 C41.7405574,109.504989 44.3223872,106.92316 47.5089617,106.92316 L122.887047,106.92316 C126.073621,106.92316 128.655451,109.504989 128.655451,112.691564" id="Fill-17" fill="#0079FF" mask="url(#mask-2)"></path>
                <path d="M75.843583,163.327906 L54.5256468,163.327906 C51.8230511,163.327906 49.6318809,161.136736 49.6318809,158.433226 L49.6318809,139.403438 C49.6318809,136.699928 51.8230511,134.508757 54.5256468,134.508757 L75.843583,134.508757 C78.5461787,134.508757 80.7382638,136.699928 80.7382638,139.403438 L80.7382638,158.433226 C80.7382638,161.136736 78.5461787,163.327906 75.843583,163.327906" id="Fill-18" fill="#4E5255" mask="url(#mask-2)"></path>
                <path d="M75.9875872,147.774623 L54.3823745,147.774623 C52.7739915,147.774623 51.471183,146.471815 51.471183,144.863432 L51.471183,139.123389 C51.471183,137.515921 52.7739915,136.213113 54.3823745,136.213113 L75.9875872,136.213113 C77.5950553,136.213113 78.8987787,137.515921 78.8987787,139.123389 L78.8987787,144.863432 C78.8987787,146.471815 77.5950553,147.774623 75.9875872,147.774623" id="Fill-19" fill="#FF5E62" mask="url(#mask-2)"></path>
                <path d="M122.076177,129.614351 L48.3201979,129.614351 C46.0283894,129.614351 44.1702404,127.756202 44.1702404,125.464394 L44.1702404,113.144436 C44.1702404,110.852628 46.0283894,108.994479 48.3201979,108.994479 L122.076177,108.994479 C124.367985,108.994479 126.226134,110.852628 126.226134,113.144436 L126.226134,125.464394 C126.226134,127.756202 124.367985,129.614351 122.076177,129.614351" id="Fill-20" fill="#FFC371" mask="url(#mask-2)"></path>
                <path d="M115.870179,163.327906 L94.5522426,163.327906 C91.8496468,163.327906 89.6584766,161.136736 89.6584766,158.433226 L89.6584766,139.403438 C89.6584766,136.699928 91.8496468,134.508757 94.5522426,134.508757 L115.870179,134.508757 C118.572774,134.508757 120.76486,136.699928 120.76486,139.403438 L120.76486,158.433226 C120.76486,161.136736 118.572774,163.327906 115.870179,163.327906" id="Fill-21" fill="#4E5255" mask="url(#mask-2)"></path>
                <path d="M116.014183,147.774623 L94.4089702,147.774623 C92.8005872,147.774623 91.4977787,146.471815 91.4977787,144.863432 L91.4977787,139.123389 C91.4977787,137.515921 92.8005872,136.213113 94.4089702,136.213113 L116.014183,136.213113 C117.621651,136.213113 118.925374,137.515921 118.925374,139.123389 L118.925374,144.863432 C118.925374,146.471815 117.621651,147.774623 116.014183,147.774623" id="Fill-22" fill="#FF5E62" mask="url(#mask-2)"></path>
            </g>
        </g>
    </g>
</svg>