<?xml version="1.0" encoding="UTF-8"?>
<svg width="187px" height="149px" viewBox="0 0 187 149" version="1.1" xmlns="http://www.w3.org/2000/svg" xmlns:xlink="http://www.w3.org/1999/xlink">
    <!-- Generator: Sketch 52.2 (67145) - http://www.bohemiancoding.com/sketch -->
    <title>prepare_allergy@1x</title>
    <desc>Created with Sketch.</desc>
    <defs>
        <polygon id="path-1" points="0.764100191 0.846580857 53.4088876 0.846580857 53.4088876 33.1001793 0.764100191 33.1001793"></polygon>
        <polygon id="path-3" points="0 148.959908 185.794885 148.959908 185.794885 0.87096796 0 0.87096796"></polygon>
    </defs>
    <g id="Mockups" stroke="none" stroke-width="1" fill="none" fill-rule="evenodd">
        <g id="Planner---Desktop" transform="translate(-175.000000, -2441.000000)">
            <g id="prepare_allergy" transform="translate(175.713782, 2440.211123)">
                <g id="Group-3" transform="translate(56.612917, 0.024387)">
                    <mask id="mask-2" fill="white">
                        <use xlink:href="#path-1"></use>
                    </mask>
                    <g id="Clip-2"></g>
                    <path d="M16.8909429,10.8112382 C13.4932969,10.8112382 10.7288446,13.5756905 10.7288446,16.9733365 C10.7288446,20.3709825 13.4932969,23.1345639 16.8909429,23.1345639 L37.2811738,23.1345639 C40.6788199,23.1345639 43.4432722,20.3709825 43.4432722,16.9733365 C43.4432722,13.5756905 40.6788199,10.8112382 37.2811738,10.8112382 L16.8909429,10.8112382 Z M37.2811738,33.1001793 L16.8909429,33.1001793 C7.99836007,33.1001793 0.764100191,25.8659194 0.764100191,16.9733365 C0.764100191,8.08075364 7.99836007,0.84649376 16.8909429,0.84649376 L37.2811738,0.84649376 C46.1737567,0.84649376 53.4088876,8.08075364 53.4088876,16.9733365 C53.4088876,25.8659194 46.1737567,33.1001793 37.2811738,33.1001793 Z" id="Fill-1" fill="#2F3133" mask="url(#mask-2)"></path>
                </g>
                <path d="M167.398387,29.7672462 L167.398387,128.113464 C167.398387,134.252047 162.426031,139.223532 156.28832,139.223532 L11.1101544,139.223532 C4.97244318,139.223532 8.7096796e-05,134.252047 8.7096796e-05,128.113464 L8.7096796e-05,29.7672462 C8.7096796e-05,23.6295349 4.97244318,18.6571789 11.1101544,18.6571789 L156.28832,18.6571789 C162.426031,18.6571789 167.398387,23.6295349 167.398387,29.7672462" id="Fill-4" fill="#FFC371"></path>
                <path d="M23.5852027,18.657266 C23.5852027,31.6808499 13.0229742,42.2422073 0.000261290388,42.2422073 L0.000261290388,29.7673333 C0.000261290388,23.629622 4.97174641,18.657266 11.1103286,18.657266 L23.5852027,18.657266 Z" id="Fill-6" fill="#FF5E62"></path>
                <path d="M23.5852027,139.22388 L11.1103286,139.22388 C4.97174641,139.22388 0.000261290388,134.251524 0.000261290388,128.113813 L0.000261290388,115.648519 C13.0229742,115.648519 23.5852027,126.201167 23.5852027,139.22388" id="Fill-8" fill="#FF5E62"></path>
                <path d="M167.398387,29.7672462 L167.398387,42.1924751 C155.042836,41.4556362 145.24793,31.2017304 145.24793,18.6571789 L156.28832,18.6571789 C162.426031,18.6571789 167.398387,23.6295349 167.398387,29.7672462" id="Fill-10" fill="#FF5E62"></path>
                <path d="M167.398387,115.698426 L167.398387,128.114074 C167.398387,134.251785 162.426031,139.224141 156.28832,139.224141 L145.24793,139.224141 C145.24793,126.678719 155.042836,116.436136 167.398387,115.698426" id="Fill-12" fill="#FF5E62"></path>
                <mask id="mask-4" fill="white">
                    <use xlink:href="#path-3"></use>
                </mask>
                <g id="Clip-15"></g>
                <polygon id="Fill-14" fill="#0079FF" mask="url(#mask-4)" points="48.1610443 139.224228 60.1176925 139.224228 60.1176925 18.6587466 48.1610443 18.6587466"></polygon>
                <polygon id="Fill-16" fill="#0079FF" mask="url(#mask-4)" points="107.281478 139.224228 119.238127 139.224228 119.238127 18.6587466 107.281478 18.6587466"></polygon>
                <polygon id="Fill-17" fill="#4E5255" mask="url(#mask-4)" points="43.8427852 38.0909128 64.4350806 38.0909128 64.4350806 18.6587466 43.8427852 18.6587466"></polygon>
                <polygon id="Fill-18" fill="#4E5255" mask="url(#mask-4)" points="102.96409 38.0909128 123.556386 38.0909128 123.556386 18.6587466 102.96409 18.6587466"></polygon>
                <polygon id="Fill-19" fill="#4E5255" mask="url(#mask-4)" points="43.8427852 139.226841 64.4350806 139.226841 64.4350806 119.794675 43.8427852 119.794675"></polygon>
                <polygon id="Fill-20" fill="#4E5255" mask="url(#mask-4)" points="102.96409 139.226841 123.556386 139.226841 123.556386 119.794675 102.96409 119.794675"></polygon>
                <path d="M131.036781,38.1845418 C128.06678,38.1845418 125.650715,40.6006069 125.650715,43.5706077 C125.650715,46.5406084 128.06678,48.9566735 131.036781,48.9566735 L148.86027,48.9566735 C151.83027,48.9566735 154.246335,46.5406084 154.246335,43.5706077 C154.246335,40.6006069 151.83027,38.1845418 148.86027,38.1845418 L131.036781,38.1845418 Z M148.86027,57.6672241 L131.036781,57.6672241 C123.264263,57.6672241 116.940165,51.3431258 116.940165,43.5706077 C116.940165,35.7980896 123.264263,29.4739913 131.036781,29.4739913 L148.86027,29.4739913 C156.632788,29.4739913 162.956886,35.7980896 162.956886,43.5706077 C162.956886,51.3431258 156.632788,57.6672241 148.86027,57.6672241 Z" id="Fill-21" fill="#4E5255" mask="url(#mask-4)"></path>
                <path d="M177.65238,148.959908 L102.244845,148.959908 C97.7480374,148.959908 94.1030365,145.314907 94.1030365,140.817229 L94.1030365,50.2609481 C94.1030365,45.7641405 97.7480374,42.1191396 102.244845,42.1191396 L177.65238,42.1191396 C182.149188,42.1191396 185.795059,45.7641405 185.795059,50.2609481 L185.795059,140.817229 C185.795059,145.314907 182.149188,148.959908 177.65238,148.959908" id="Fill-22" fill="#FF5E62" mask="url(#mask-4)"></path>
                <path d="M160.327869,91.7642262 L119.569182,91.7642262 C106.452404,91.7642262 95.8196272,81.1314493 95.8196272,68.0146719 L95.8196272,50.5273772 C95.8196272,46.6855375 98.9342086,43.5709561 102.776048,43.5709561 L177.121002,43.5709561 C180.962842,43.5709561 184.077424,46.6855375 184.077424,50.5273772 L184.077424,68.0146719 C184.077424,81.1314493 173.444647,91.7642262 160.327869,91.7642262" id="Fill-23" fill="#FFC371" mask="url(#mask-4)"></path>
                <path d="M120.351833,107.078804 C117.886994,107.078804 115.888123,105.079933 115.888123,102.615093 L115.888123,79.9699265 C115.888123,77.5050871 117.886994,75.5062157 120.351833,75.5062157 C122.816673,75.5062157 124.815544,77.5050871 124.815544,79.9699265 L124.815544,102.615093 C124.815544,105.079933 122.816673,107.078804 120.351833,107.078804" id="Fill-24" fill="#4E5255" mask="url(#mask-4)"></path>
                <path d="M159.545392,107.078804 C157.080552,107.078804 155.081681,105.079933 155.081681,102.615093 L155.081681,79.9699265 C155.081681,77.5050871 157.080552,75.5062157 159.545392,75.5062157 C162.010231,75.5062157 164.009102,77.5050871 164.009102,79.9699265 L164.009102,102.615093 C164.009102,105.079933 162.010231,107.078804 159.545392,107.078804" id="Fill-25" fill="#4E5255" mask="url(#mask-4)"></path>
                <path d="M123.763154,102.361032 C123.763154,100.477128 122.235476,98.9494506 120.351572,98.9494506 C118.467668,98.9494506 116.940862,100.477128 116.940862,102.361032 C116.940862,104.244936 118.467668,105.772614 120.351572,105.772614 C122.235476,105.772614 123.763154,104.244936 123.763154,102.361032" id="Fill-26" fill="#FFFFFF" mask="url(#mask-4)"></path>
                <path d="M162.956712,102.361032 C162.956712,100.477128 161.429034,98.9494506 159.54513,98.9494506 C157.661227,98.9494506 156.13442,100.477128 156.13442,102.361032 C156.13442,104.244936 157.661227,105.772614 159.54513,105.772614 C161.429034,105.772614 162.956712,104.244936 162.956712,102.361032" id="Fill-27" fill="#FFFFFF" mask="url(#mask-4)"></path>
                <path d="M168.252197,113.248132 L111.645376,113.248132 C106.352504,113.248132 102.061245,117.53852 102.061245,122.831392 L102.061245,134.14875 C102.061245,139.441622 106.352504,143.73201 111.645376,143.73201 L168.252197,143.73201 C173.545069,143.73201 177.835457,139.441622 177.835457,134.14875 L177.835457,122.831392 C177.835457,117.53852 173.545069,113.248132 168.252197,113.248132" id="Fill-28" fill="#0079FF" mask="url(#mask-4)"></path>
                <polygon id="Fill-29" fill="#FFFFFF" mask="url(#mask-4)" points="110.989189 123.700095 168.908558 123.700095 168.908558 119.635288 110.989189 119.635288"></polygon>
            </g>
        </g>
    </g>
</svg>